<svg width="175" height="121" viewBox="0 0 175 121" fill="none" xmlns="http://www.w3.org/2000/svg">
<path fill-rule="evenodd" clip-rule="evenodd" d="M56 0.5C56 0.775 55.55 1 55 1C54.45 1 54 1.225 54 1.5C54 1.775 54.225 2 54.5 2C54.775 2 55 2.45 55 3C55 3.55 55.225 4 55.5 4C55.775 4 56 4.45 56 5C56 5.55 56.225 6 56.5 6C56.775 6 57 6.4005 57 6.8895C57 7.379 57.45 8.1035 58 8.5C58.55 8.8965 59 9.621 59 10.1105C59 10.5995 59.225 11 59.5 11C59.775 11 60 11.45 60 12C60 12.55 60.225 13 60.5 13C60.775 13 61 13.4005 61 13.8895C61 14.379 61.45 15.1035 62 15.5C62.55 15.8965 63 16.5715 63 17C63 17.4285 63.45 18.1035 64 18.5C64.55 18.8965 65 19.621 65 20.1105C65 20.5995 65.225 21 65.5 21C65.775 21 66 21.4005 66 21.8895C66 22.379 66.45 23.1035 67 23.5C67.55 23.8965 68 24.5715 68 25C68 25.4285 68.45 26.1035 69 26.5C69.55 26.8965 70 27.5715 70 28C70 28.4285 70.45 29.1035 71 29.5C71.55 29.8965 72 30.531 72 30.91C72 31.2885 72.675 32.2295 73.5 33C74.325 33.7705 75 34.7115 75 35.09C75 35.469 75.45 36.1035 76 36.5C76.55 36.8965 77 37.531 77 37.91C77 38.2885 77.675 39.2295 78.5 40C79.325 40.7705 80 41.6705 80 42C80 42.3295 80.675 43.2295 81.5 44C82.325 44.7705 83 45.666 83 45.99C83 46.3135 83.9 47.443 85 48.5C86.1 49.557 87 50.679 87 50.9935C87 51.3075 88.125 52.6605 89.5 54C90.875 55.3395 92 56.6835 92 56.9865C92 57.29 94.025 59.546 96.5 62C98.975 64.454 101 66.7 101 66.9915C101 67.6825 106.317 73 107.008 73C107.3 73 109.546 75.025 112 77.5C114.454 79.975 116.808 82 117.231 82C117.752 82 118 81.5165 118 80.5C118 79.675 118.225 79 118.5 79C118.775 79 119 78.325 119 77.5C119 76.675 119.225 76 119.5 76C119.775 76 120 75.1 120 74C120 72.9 120.225 72 120.5 72C120.792 72 121 70.3335 121 68C121 65.6665 121.208 64 121.5 64C121.778 64 122 62.6665 122 61C122 59.3335 121.778 58 121.5 58C121.204 58 121 56.1665 121 53.5C121 50.8335 120.796 49 120.5 49C120.225 49 120 48.1 120 47C120 45.9 119.775 45 119.5 45C119.225 45 119 44.1 119 43C119 41.9 118.775 41 118.5 41C118.225 41 118 40.55 118 40C118 39.45 117.775 39 117.5 39C117.225 39 117 38.325 117 37.5C117 36.675 116.775 36 116.5 36C116.225 36 116 35.55 116 35C116 34.45 115.775 34 115.5 34C115.225 34 115 33.55 115 33C115 32.45 114.775 32 114.5 32C114.225 32 114 31.5995 114 31.1105C114 30.621 113.55 29.8965 113 29.5C112.45 29.1035 112 28.4285 112 28C112 27.5715 111.55 26.8965 111 26.5C110.45 26.1035 110 25.477 110 25.107C110 24.7375 108.875 23.3395 107.5 22C106.125 20.6605 105 19.315 105 19.0095C105 18.2855 102.709 16 101.983 16C101.674 16 100.557 15.1 99.5 14C98.443 12.9 97.273 12 96.8995 12C96.526 12 95.8965 11.55 95.5 11C95.1035 10.45 94.4285 10 94 10C93.5715 10 92.8965 9.55 92.5 9C92.1035 8.45 91.379 8 90.8895 8C90.4005 8 90 7.775 90 7.5C90 7.225 89.55 7 89 7C88.45 7 88 6.775 88 6.5C88 6.225 87.55 6 87 6C86.45 6 86 5.775 86 5.5C86 5.225 85.55 5 85 5C84.45 5 84 4.775 84 4.5C84 4.225 83.325 4 82.5 4C81.675 4 81 3.775 81 3.5C81 3.225 80.325 3 79.5 3C78.675 3 78 2.775 78 2.5C78 2.225 77.1 2 76 2C74.9 2 74 1.775 74 1.5C74 1.2085 72.3335 1 70 1C67.6665 1 66 0.7915 66 0.5C66 0.2 64 0 61 0C58 0 56 0.2 56 0.5ZM48 1.5C48 1.775 47.1 2 46 2C44.9 2 44 2.225 44 2.5C44 2.775 43.325 3 42.5 3C41.675 3 41 3.225 41 3.5C41 3.775 40.325 4 39.5 4C38.675 4 38 4.225 38 4.5C38 4.775 37.325 5 36.5 5C35.675 5 35 5.225 35 5.5C35 5.775 34.55 6 34 6C33.45 6 33 6.225 33 6.5C33 6.775 32.5995 7 32.1105 7C31.621 7 30.8965 7.45 30.5 8C30.1035 8.55 29.379 9 28.8895 9C28.4005 9 28 9.225 28 9.5C28 9.775 27.6405 10 27.2005 10C26.761 10 25.7705 10.675 25 11.5C24.2295 12.325 23.3485 13 23.043 13C22.3175 13 13 22.3175 13 23.043C13 23.3485 12.325 24.2295 11.5 25C10.675 25.7705 10 26.7115 10 27.09C10 27.469 9.55 28.1035 9 28.5C8.45 28.8965 8 29.621 8 30.1105C8 30.5995 7.775 31 7.5 31C7.225 31 7 31.45 7 32C7 32.55 6.775 33 6.5 33C6.225 33 6 33.45 6 34C6 34.55 5.775 35 5.5 35C5.225 35 5 35.45 5 36C5 36.55 4.775 37 4.5 37C4.225 37 4 37.675 4 38.5C4 39.325 3.775 40 3.5 40C3.225 40 3 40.675 3 41.5C3 42.325 2.775 43 2.5 43C2.225 43 2 43.9 2 45C2 46.1 1.775 47 1.5 47C1.225 47 1 48.125 1 49.5C1 50.875 0.775 52 0.5 52C0.1875 52 0 55 0 60C0 65 0.1875 68 0.5 68C0.778 68 1 69.3335 1 71C1 72.6665 1.222 74 1.5 74C1.775 74 2 74.9 2 76C2 77.1 2.225 78 2.5 78C2.775 78 3 78.675 3 79.5C3 80.325 3.225 81 3.5 81C3.775 81 4 81.45 4 82C4 82.55 4.225 83 4.5 83C4.775 83 5 83.675 5 84.5C5 85.325 5.225 86 5.5 86C5.775 86 6 86.4005 6 86.8895C6 87.379 6.45 88.1035 7 88.5C7.55 88.8965 8 89.621 8 90.1105C8 90.5995 8.225 91 8.5 91C8.775 91 9 91.4005 9 91.8895C9 92.379 9.45 93.1035 10 93.5C10.55 93.8965 11 94.531 11 94.91C11 95.2885 11.675 96.2295 12.5 97C13.325 97.7705 14 98.652 14 98.9585C14 99.686 21.314 107 22.0415 107C22.348 107 23.2295 107.675 24 108.5C24.7705 109.325 25.7115 110 26.09 110C26.469 110 27.1035 110.45 27.5 111C27.8965 111.55 28.621 112 29.1105 112C29.5995 112 30 112.225 30 112.5C30 112.775 30.45 113 31 113C31.55 113 32 113.225 32 113.5C32 113.775 32.45 114 33 114C33.55 114 34 114.225 34 114.5C34 114.775 34.45 115 35 115C35.55 115 36 115.225 36 115.5C36 115.775 36.45 116 37 116C37.55 116 38 116.225 38 116.5C38 116.775 38.675 117 39.5 117C40.325 117 41 117.225 41 117.5C41 117.775 41.9 118 43 118C44.1 118 45 118.225 45 118.5C45 118.775 45.9 119 47 119C48.1 119 49 119.225 49 119.5C49 119.803 51.1665 120 54.5 120C57.8335 120 60 120.197 60 120.5C60 120.775 60.225 121 60.5 121C60.778 121 61 119.666 61 118C61 116.334 60.778 115 60.5 115C60.222 115 60 113.666 60 112C60 110.334 59.778 109 59.5 109C59.222 109 59 107.666 59 106C59 104.334 58.778 103 58.5 103C58.2145 103 58 101.5 58 99.5C58 97.5 57.7855 96 57.5 96C57.2085 96 57 94.3335 57 92C57 89.6665 56.7915 88 56.5 88C56.2145 88 56 86.5 56 84.5C56 82.5 55.7855 81 55.5 81C55.2 81 55 79 55 76C55 73 54.8 71 54.5 71C54.1945 71 54 68.6665 54 65C54 61.3335 53.8055 59 53.5 59C53.184 59 53 55.5 53 49.5C53 43.5 52.816 40 52.5 40C52.175 40 52 33.1665 52 20.5V1H50C48.9 1 48 1.225 48 1.5ZM57 20.5C57 20.775 57.225 21 57.5 21C57.823 21 58 26.6665 58 37C58 47.3335 58.177 53 58.5 53C58.8075 53 59 55.5 59 59.5C59 63.5 59.1925 66 59.5 66C59.803 66 60 68.1665 60 71.5C60 74.8335 60.197 77 60.5 77C60.7915 77 61 78.6665 61 81C61 83.3335 61.2085 85 61.5 85C61.7855 85 62 86.5 62 88.5C62 90.5 62.2145 92 62.5 92C62.7855 92 63 93.5 63 95.5C63 97.5 63.2145 99 63.5 99C63.7855 99 64 100.5 64 102.5C64 104.5 64.2145 106 64.5 106C64.778 106 65 107.334 65 109C65 110.666 65.222 112 65.5 112C65.775 112 66 113.125 66 114.5C66 115.875 66.225 117 66.5 117C66.775 117 67 117.9 67 119V121H85.5C95.675 121 104 120.866 104 120.701C104 120.536 103.325 119.771 102.5 119C101.675 118.229 101 117.334 101 117.01C101 116.687 100.1 115.557 99 114.5C97.9 113.443 97 112.273 97 111.899C97 111.526 96.55 110.896 96 110.5C95.45 110.104 95 109.428 95 109C95 108.572 94.55 107.896 94 107.5C93.45 107.104 93 106.428 93 106C93 105.572 92.55 104.896 92 104.5C91.45 104.104 91 103.428 91 103C91 102.572 90.55 101.896 90 101.5C89.45 101.104 89 100.379 89 99.8895C89 99.4005 88.775 99 88.5 99C88.225 99 88 98.5995 88 98.1105C88 97.621 87.55 96.8965 87 96.5C86.45 96.1035 86 95.379 86 94.8895C86 94.4005 85.775 94 85.5 94C85.225 94 85 93.55 85 93C85 92.45 84.775 92 84.5 92C84.225 92 84 91.5995 84 91.1105C84 90.621 83.55 89.8965 83 89.5C82.45 89.1035 82 88.379 82 87.8895C82 87.4005 81.775 87 81.5 87C81.225 87 81 86.55 81 86C81 85.45 80.775 85 80.5 85C80.225 85 80 84.55 80 84C80 83.45 79.775 83 79.5 83C79.225 83 79 82.55 79 82C79 81.45 78.775 81 78.5 81C78.225 81 78 80.55 78 80C78 79.45 77.775 79 77.5 79C77.225 79 77 78.55 77 78C77 77.45 76.775 77 76.5 77C76.225 77 76 76.55 76 76C76 75.45 75.775 75 75.5 75C75.225 75 75 74.325 75 73.5C75 72.675 74.775 72 74.5 72C74.225 72 74 71.55 74 71C74 70.45 73.775 70 73.5 70C73.225 70 73 69.55 73 69C73 68.45 72.775 68 72.5 68C72.225 68 72 67.325 72 66.5C72 65.675 71.775 65 71.5 65C71.225 65 71 64.55 71 64C71 63.45 70.775 63 70.5 63C70.225 63 70 62.325 70 61.5C70 60.675 69.775 60 69.5 60C69.225 60 69 59.325 69 58.5C69 57.675 68.775 57 68.5 57C68.225 57 68 56.325 68 55.5C68 54.675 67.775 54 67.5 54C67.225 54 67 53.325 67 52.5C67 51.675 66.775 51 66.5 51C66.225 51 66 50.325 66 49.5C66 48.675 66.225 48 66.5 48C66.775 48 67 48.675 67 49.5C67 50.325 67.225 51 67.5 51C67.775 51 68 51.45 68 52C68 52.55 68.225 53 68.5 53C68.775 53 69 53.45 69 54C69 54.55 69.225 55 69.5 55C69.775 55 70 55.45 70 56C70 56.55 70.225 57 70.5 57C70.775 57 71 57.45 71 58C71 58.55 71.225 59 71.5 59C71.775 59 72 59.45 72 60C72 60.55 72.225 61 72.5 61C72.775 61 73 61.45 73 62C73 62.55 73.225 63 73.5 63C73.775 63 74 63.45 74 64C74 64.55 74.225 65 74.5 65C74.775 65 75 65.45 75 66C75 66.55 75.225 67 75.5 67C75.775 67 76 67.45 76 68C76 68.55 76.225 69 76.5 69C76.775 69 77 69.4005 77 69.8895C77 70.379 77.45 71.1035 78 71.5C78.55 71.8965 79 72.621 79 73.1105C79 73.5995 79.225 74 79.5 74C79.775 74 80 74.4005 80 74.8895C80 75.379 80.45 76.1035 81 76.5C81.55 76.8965 82 77.621 82 78.1105C82 78.5995 82.225 79 82.5 79C82.775 79 83 79.4005 83 79.8895C83 80.379 83.45 81.1035 84 81.5C84.55 81.8965 85 82.5715 85 83C85 83.4285 85.45 84.1035 86 84.5C86.55 84.8965 87 85.5715 87 86C87 86.4285 87.45 87.1035 88 87.5C88.55 87.8965 89 88.5715 89 89C89 89.4285 89.45 90.1035 90 90.5C90.55 90.8965 91 91.5715 91 92C91 92.4285 91.45 93.1035 92 93.5C92.55 93.8965 93 94.531 93 94.91C93 95.2885 93.675 96.2295 94.5 97C95.325 97.7705 96 98.666 96 98.99C96 99.3135 96.9 100.443 98 101.5C99.1 102.557 100 103.679 100 103.993C100 104.307 101.125 105.661 102.5 107C103.875 108.339 105 109.678 105 109.974C105 110.27 107.36 112.871 110.244 115.756L115.489 121H143.244C161.415 121 171 120.827 171 120.5C171 120.225 170.1 120 169 120C167.9 120 167 119.775 167 119.5C167 119.225 166.325 119 165.5 119C164.675 119 164 118.775 164 118.5C164 118.225 163.325 118 162.5 118C161.675 118 161 117.775 161 117.5C161 117.225 160.55 117 160 117C159.45 117 159 116.775 159 116.5C159 116.225 158.325 116 157.5 116C156.675 116 156 115.775 156 115.5C156 115.225 155.55 115 155 115C154.45 115 154 114.775 154 114.5C154 114.225 153.55 114 153 114C152.45 114 152 113.775 152 113.5C152 113.225 151.325 113 150.5 113C149.675 113 149 112.775 149 112.5C149 112.225 148.55 112 148 112C147.45 112 147 111.775 147 111.5C147 111.225 146.55 111 146 111C145.45 111 145 110.775 145 110.5C145 110.225 144.6 110 144.111 110C143.621 110 142.896 109.55 142.5 109C142.104 108.45 141.379 108 140.889 108C140.4 108 140 107.775 140 107.5C140 107.225 139.55 107 139 107C138.45 107 138 106.775 138 106.5C138 106.225 137.6 106 137.111 106C136.621 106 135.896 105.55 135.5 105C135.104 104.45 134.428 104 134 104C133.572 104 132.896 103.55 132.5 103C132.104 102.45 131.428 102 131 102C130.572 102 129.896 101.55 129.5 101C129.104 100.45 128.428 100 128 100C127.572 100 126.896 99.55 126.5 99C126.104 98.45 125.428 98 125 98C124.572 98 123.896 97.55 123.5 97C123.104 96.45 122.474 96 122.101 96C121.727 96 120.557 95.1 119.5 94C118.443 92.9 117.318 92 117 92C116.682 92 115.557 91.1 114.5 90C113.443 88.9 112.334 88 112.036 88C111.332 88 89 65.674 89 64.9705C89 64.676 87.875 63.3395 86.5 62C85.125 60.6605 84 59.3075 84 58.9935C84 58.679 83.1 57.557 82 56.5C80.9 55.443 80 54.3135 80 53.99C80 53.666 79.325 52.7705 78.5 52C77.675 51.2295 77 50.2885 77 49.91C77 49.531 76.55 48.8965 76 48.5C75.45 48.1035 75 47.4285 75 47C75 46.5715 74.55 45.8965 74 45.5C73.45 45.1035 73 44.4285 73 44C73 43.5715 72.55 42.8965 72 42.5C71.45 42.1035 71 41.4285 71 41C71 40.5715 70.55 39.8965 70 39.5C69.45 39.1035 69 38.4285 69 38C69 37.5715 68.55 36.8965 68 36.5C67.45 36.1035 67 35.4285 67 35C67 34.5715 66.55 33.8965 66 33.5C65.45 33.1035 65 32.379 65 31.8895C65 31.4005 64.775 31 64.5 31C64.225 31 64 30.5995 64 30.1105C64 29.621 63.55 28.8965 63 28.5C62.45 28.1035 62 27.379 62 26.8895C62 26.4005 61.775 26 61.5 26C61.225 26 61 25.55 61 25C61 24.45 60.775 24 60.5 24C60.225 24 60 23.55 60 23C60 22.45 59.775 22 59.5 22C59.225 22 59 21.55 59 21C59 20.3335 58.6665 20 58 20C57.45 20 57 20.225 57 20.5Z" fill="white"/>
<path fill-rule="evenodd" clip-rule="evenodd" d="M56 0.5C56 0.775 55.55 1 55 1C54.45 1 54 1.225 54 1.5C54 1.775 54.225 2 54.5 2C54.775 2 55 2.45 55 3C55 3.55 55.225 4 55.5 4C55.775 4 56 4.45 56 5C56 5.55 56.225 6 56.5 6C56.775 6 57 6.4005 57 6.8895C57 7.379 57.45 8.1035 58 8.5C58.55 8.8965 59 9.621 59 10.1105C59 10.5995 59.225 11 59.5 11C59.775 11 60 11.45 60 12C60 12.55 60.225 13 60.5 13C60.775 13 61 13.4005 61 13.8895C61 14.379 61.45 15.1035 62 15.5C62.55 15.8965 63 16.5715 63 17C63 17.4285 63.45 18.1035 64 18.5C64.55 18.8965 65 19.621 65 20.1105C65 20.5995 65.225 21 65.5 21C65.775 21 66 21.4005 66 21.8895C66 22.379 66.45 23.1035 67 23.5C67.55 23.8965 68 24.5715 68 25C68 25.4285 68.45 26.1035 69 26.5C69.55 26.8965 70 27.5715 70 28C70 28.4285 70.45 29.1035 71 29.5C71.55 29.8965 72 30.531 72 30.91C72 31.2885 72.675 32.2295 73.5 33C74.325 33.7705 75 34.7115 75 35.09C75 35.469 75.45 36.1035 76 36.5C76.55 36.8965 77 37.531 77 37.91C77 38.2885 77.675 39.2295 78.5 40C79.325 40.7705 80 41.6705 80 42C80 42.3295 80.675 43.2295 81.5 44C82.325 44.7705 83 45.666 83 45.99C83 46.3135 83.9 47.443 85 48.5C86.1 49.557 87 50.679 87 50.9935C87 51.3075 88.125 52.6605 89.5 54C90.875 55.3395 92 56.6835 92 56.9865C92 57.29 94.025 59.546 96.5 62C98.975 64.454 101 66.7 101 66.9915C101 67.6825 106.317 73 107.008 73C107.3 73 109.546 75.025 112 77.5C114.454 79.975 116.808 82 117.231 82C117.752 82 118 81.5165 118 80.5C118 79.675 118.225 79 118.5 79C118.775 79 119 78.325 119 77.5C119 76.675 119.225 76 119.5 76C119.775 76 120 75.1 120 74C120 72.9 120.225 72 120.5 72C120.792 72 121 70.3335 121 68C121 65.6665 121.208 64 121.5 64C121.778 64 122 62.6665 122 61C122 59.3335 121.778 58 121.5 58C121.204 58 121 56.1665 121 53.5C121 50.8335 120.796 49 120.5 49C120.225 49 120 48.1 120 47C120 45.9 119.775 45 119.5 45C119.225 45 119 44.1 119 43C119 41.9 118.775 41 118.5 41C118.225 41 118 40.55 118 40C118 39.45 117.775 39 117.5 39C117.225 39 117 38.325 117 37.5C117 36.675 116.775 36 116.5 36C116.225 36 116 35.55 116 35C116 34.45 115.775 34 115.5 34C115.225 34 115 33.55 115 33C115 32.45 114.775 32 114.5 32C114.225 32 114 31.5995 114 31.1105C114 30.621 113.55 29.8965 113 29.5C112.45 29.1035 112 28.4285 112 28C112 27.5715 111.55 26.8965 111 26.5C110.45 26.1035 110 25.477 110 25.107C110 24.7375 108.875 23.3395 107.5 22C106.125 20.6605 105 19.315 105 19.0095C105 18.2855 102.709 16 101.983 16C101.674 16 100.557 15.1 99.5 14C98.443 12.9 97.273 12 96.8995 12C96.526 12 95.8965 11.55 95.5 11C95.1035 10.45 94.4285 10 94 10C93.5715 10 92.8965 9.55 92.5 9C92.1035 8.45 91.379 8 90.8895 8C90.4005 8 90 7.775 90 7.5C90 7.225 89.55 7 89 7C88.45 7 88 6.775 88 6.5C88 6.225 87.55 6 87 6C86.45 6 86 5.775 86 5.5C86 5.225 85.55 5 85 5C84.45 5 84 4.775 84 4.5C84 4.225 83.325 4 82.5 4C81.675 4 81 3.775 81 3.5C81 3.225 80.325 3 79.5 3C78.675 3 78 2.775 78 2.5C78 2.225 77.1 2 76 2C74.9 2 74 1.775 74 1.5C74 1.2085 72.3335 1 70 1C67.6665 1 66 0.7915 66 0.5C66 0.2 64 0 61 0C58 0 56 0.2 56 0.5ZM48 1.5C48 1.775 47.1 2 46 2C44.9 2 44 2.225 44 2.5C44 2.775 43.325 3 42.5 3C41.675 3 41 3.225 41 3.5C41 3.775 40.325 4 39.5 4C38.675 4 38 4.225 38 4.5C38 4.775 37.325 5 36.5 5C35.675 5 35 5.225 35 5.5C35 5.775 34.55 6 34 6C33.45 6 33 6.225 33 6.5C33 6.775 32.5995 7 32.1105 7C31.621 7 30.8965 7.45 30.5 8C30.1035 8.55 29.379 9 28.8895 9C28.4005 9 28 9.225 28 9.5C28 9.775 27.6405 10 27.2005 10C26.761 10 25.7705 10.675 25 11.5C24.2295 12.325 23.3485 13 23.043 13C22.3175 13 13 22.3175 13 23.043C13 23.3485 12.325 24.2295 11.5 25C10.675 25.7705 10 26.7115 10 27.09C10 27.469 9.55 28.1035 9 28.5C8.45 28.8965 8 29.621 8 30.1105C8 30.5995 7.775 31 7.5 31C7.225 31 7 31.45 7 32C7 32.55 6.775 33 6.5 33C6.225 33 6 33.45 6 34C6 34.55 5.775 35 5.5 35C5.225 35 5 35.45 5 36C5 36.55 4.775 37 4.5 37C4.225 37 4 37.675 4 38.5C4 39.325 3.775 40 3.5 40C3.225 40 3 40.675 3 41.5C3 42.325 2.775 43 2.5 43C2.225 43 2 43.9 2 45C2 46.1 1.775 47 1.5 47C1.225 47 1 48.125 1 49.5C1 50.875 0.775 52 0.5 52C0.1875 52 0 55 0 60C0 65 0.1875 68 0.5 68C0.778 68 1 69.3335 1 71C1 72.6665 1.222 74 1.5 74C1.775 74 2 74.9 2 76C2 77.1 2.225 78 2.5 78C2.775 78 3 78.675 3 79.5C3 80.325 3.225 81 3.5 81C3.775 81 4 81.45 4 82C4 82.55 4.225 83 4.5 83C4.775 83 5 83.675 5 84.5C5 85.325 5.225 86 5.5 86C5.775 86 6 86.4005 6 86.8895C6 87.379 6.45 88.1035 7 88.5C7.55 88.8965 8 89.621 8 90.1105C8 90.5995 8.225 91 8.5 91C8.775 91 9 91.4005 9 91.8895C9 92.379 9.45 93.1035 10 93.5C10.55 93.8965 11 94.531 11 94.91C11 95.2885 11.675 96.2295 12.5 97C13.325 97.7705 14 98.652 14 98.9585C14 99.686 21.314 107 22.0415 107C22.348 107 23.2295 107.675 24 108.5C24.7705 109.325 25.7115 110 26.09 110C26.469 110 27.1035 110.45 27.5 111C27.8965 111.55 28.621 112 29.1105 112C29.5995 112 30 112.225 30 112.5C30 112.775 30.45 113 31 113C31.55 113 32 113.225 32 113.5C32 113.775 32.45 114 33 114C33.55 114 34 114.225 34 114.5C34 114.775 34.45 115 35 115C35.55 115 36 115.225 36 115.5C36 115.775 36.45 116 37 116C37.55 116 38 116.225 38 116.5C38 116.775 38.675 117 39.5 117C40.325 117 41 117.225 41 117.5C41 117.775 41.9 118 43 118C44.1 118 45 118.225 45 118.5C45 118.775 45.9 119 47 119C48.1 119 49 119.225 49 119.5C49 119.803 51.1665 120 54.5 120C57.8335 120 60 120.197 60 120.5C60 120.775 60.225 121 60.5 121C60.778 121 61 119.666 61 118C61 116.334 60.778 115 60.5 115C60.222 115 60 113.666 60 112C60 110.334 59.778 109 59.5 109C59.222 109 59 107.666 59 106C59 104.334 58.778 103 58.5 103C58.2145 103 58 101.5 58 99.5C58 97.5 57.7855 96 57.5 96C57.2085 96 57 94.3335 57 92C57 89.6665 56.7915 88 56.5 88C56.2145 88 56 86.5 56 84.5C56 82.5 55.7855 81 55.5 81C55.2 81 55 79 55 76C55 73 54.8 71 54.5 71C54.1945 71 54 68.6665 54 65C54 61.3335 53.8055 59 53.5 59C53.184 59 53 55.5 53 49.5C53 43.5 52.816 40 52.5 40C52.175 40 52 33.1665 52 20.5V1H50C48.9 1 48 1.225 48 1.5Z" fill="#EF2D24"/>
</svg>
