<svg width="1919" height="914" viewBox="0 0 1919 914" fill="none" xmlns="http://www.w3.org/2000/svg">
<path d="M1619.23 240.85V418.462L1476.76 240.85H1429.59V503.354H1480.82V325.477L1623.3 503.354H1670.47V240.85H1619.23Z" fill="#131D46"/>
<path d="M1192.63 446.366H1303.29L1325.97 503.348H1381.21L1269.8 240.843H1226.11L1114.72 503.348H1169.94L1192.63 446.366ZM1211.6 398.671L1247.96 307.317L1284.31 398.671H1211.6Z" fill="#131D46"/>
<path d="M859.403 240.843V503.361H959.757C1032.19 503.361 1090.9 444.444 1090.9 372.012C1090.9 299.566 1028.95 240.843 959.757 240.843H859.403V240.843ZM910.731 288.655H958.545C1002.68 288.655 1038.45 325.735 1038.45 372.012C1038.45 418.288 1002.68 455.22 958.545 455.22H910.731V288.655Z" fill="#131D46"/>
<path d="M525.601 372.302C525.601 447.759 586.754 508.926 662.196 508.926C737.637 508.926 798.785 447.759 798.785 372.302C798.785 296.844 737.637 235.678 662.196 235.678C586.761 235.678 525.601 296.844 525.601 372.302ZM578.057 372.302C578.057 324.839 615.059 286.339 662.202 286.339C709.352 286.339 746.354 324.839 746.354 372.302C746.354 419.778 709.352 458.251 662.202 458.251C615.059 458.251 578.057 419.778 578.057 372.302Z" fill="#131D46"/>
<path d="M385.124 235.678C422.841 235.678 456.987 250.968 481.7 275.699L445.684 311.728C430.223 296.051 408.799 286.339 385.124 286.339C337.98 286.339 300.978 324.832 300.978 372.302C300.978 419.771 337.98 458.251 385.124 458.251C408.799 458.251 430.223 448.546 445.684 432.869L481.7 468.898C456.987 493.623 422.841 508.919 385.124 508.919C309.682 508.919 248.522 447.759 248.522 372.302C248.522 296.838 309.682 235.678 385.124 235.678Z" fill="#131D46"/>
<path d="M926.785 585.692V603.291H877.404V624.088H921.35V641.565H877.404V679.967H859.403V585.692H926.785Z" fill="#131D46"/>
<path d="M939.499 632.82C939.499 604.348 960.95 583.828 987.964 583.828C1015.1 583.828 1036.54 604.348 1036.54 632.82C1036.54 661.285 1015.1 681.818 987.964 681.818C960.95 681.818 939.499 661.285 939.499 632.82ZM1018.27 632.82C1018.27 613.886 1003.44 600.917 987.964 600.917C972.478 600.917 957.655 613.892 957.655 632.82C957.655 651.76 972.478 664.728 987.964 664.728C1003.44 664.735 1018.27 651.76 1018.27 632.82Z" fill="#131D46"/>
<path d="M1072.27 679.967H1054.27V585.692H1093.73C1110.14 585.692 1121.25 597.474 1121.25 613.628C1121.25 627.397 1113.32 637.857 1100.87 640.771L1123.52 679.967H1102.19L1080.23 641.565H1072.28V679.967H1072.27ZM1091.73 624.088C1098.35 624.088 1102.86 620.38 1102.86 613.628C1102.86 606.877 1098.36 603.291 1091.73 603.291H1072.27V624.088H1091.73Z" fill="#131D46"/>
<path d="M1170.86 601.182C1163.2 601.182 1158.56 604.883 1158.56 610.849C1158.56 616.801 1161.61 620.251 1174.18 622.631C1195.89 626.732 1204.89 634.284 1204.89 652.024C1204.89 672.544 1189.67 681.811 1171.4 681.811C1150.62 681.811 1138.98 672.151 1137.39 652.411L1155.52 649.774C1155.78 657.976 1161.08 664.464 1171.41 664.464C1180.94 664.464 1186.77 659.563 1186.77 652.94C1186.77 645.395 1183.45 642.88 1169.96 640.371C1153.41 637.192 1140.3 631.762 1140.3 612.558C1140.3 593.759 1152.61 583.828 1170.88 583.828C1193.91 583.828 1201.19 596.281 1202.39 610.971L1184.39 613.493C1183.84 606.605 1181.72 601.182 1170.86 601.182Z" fill="#131D46"/>
<path d="M1242.05 585.686H1224.05V679.961H1242.05V585.686Z" fill="#131D46"/>
<path d="M1319.88 679.961L1292.88 639.843L1283.88 649.639V679.961H1265.87V585.686H1283.88V624.482L1316.98 585.686H1341.2L1304.79 626.204L1343.18 679.961H1319.88Z" fill="#131D46"/>
<path d="M1376.39 679.967H1358.39V585.692H1397.85C1414.26 585.692 1425.37 597.474 1425.37 613.628C1425.37 627.397 1417.44 637.857 1404.99 640.771L1427.64 679.967H1406.31L1384.35 641.565H1376.4V679.967H1376.39ZM1395.85 624.088C1402.47 624.088 1406.98 620.38 1406.98 613.628C1406.98 606.877 1402.48 603.291 1395.85 603.291H1376.38V624.088H1395.85Z" fill="#131D46"/>
<path d="M1464.8 585.686H1446.79V679.961H1464.8V585.686Z" fill="#131D46"/>
<path d="M1547.65 647.388L1547.11 625.539V585.692H1564.59V679.961H1547.65L1505.56 618.259L1506.09 640.107V679.961H1488.61V585.692H1505.56L1547.65 647.388Z" fill="#131D46"/>
<path d="M1631.55 583.835C1652.47 583.835 1663.19 592.444 1669.94 601.176L1657.23 613.893C1654.19 609.779 1647.83 600.912 1631.81 600.912C1616.07 600.912 1601.9 613.893 1601.9 632.82C1601.9 651.76 1615.93 664.729 1632.75 664.729C1643.73 664.729 1650.48 659.834 1652.73 657.719V645.931H1630.76V628.448H1670.47V665.657C1665.56 672.151 1652.99 681.812 1632.75 681.812C1604.94 681.812 1583.76 661.285 1583.76 632.82C1583.76 604.355 1605.2 583.835 1631.55 583.835Z" fill="#131D46"/>
</svg>
