<svg width="572" height="572" viewBox="0 0 572 572" fill="none" xmlns="http://www.w3.org/2000/svg">
<path d="M280.595 571.92C280.595 561.424 294.509 569.296 299.757 571.92H305.402C307.782 571.267 310.266 571.078 312.717 571.364C315.977 571.364 319.237 570.807 322.497 570.33C331.323 569.217 339.91 567.626 348.418 565.718C348.926 565.343 349.507 565.079 350.123 564.942C350.739 564.805 351.377 564.799 351.996 564.923C402.432 552.844 448.64 527.286 485.682 490.982C522.723 454.678 549.207 408.991 562.303 358.802C559.372 361.45 556.709 364.38 554.351 367.549C550.376 370.492 548.468 364.925 547.116 361.983C548.1 359.836 549.578 357.953 551.43 356.488C553.282 355.023 555.455 354.017 557.77 353.554C558.327 350.134 563.893 351.486 561.746 347.987C563.744 345.618 565.33 342.93 566.437 340.035C570.983 316.468 572.533 292.421 571.049 268.465C569.68 270.308 568.165 272.037 566.517 273.634C565.562 275.145 562.541 276.577 561.984 273.634C563.804 268.856 566.501 264.46 569.936 260.672C567.153 260.036 566.596 263.456 562.7 263.694C554.749 266.795 561.984 275.066 554.749 280.155C553.814 281.298 552.531 282.104 551.095 282.448C549.659 282.793 548.15 282.658 546.798 282.064C545.881 280.82 545.386 279.315 545.386 277.769C545.386 276.224 545.881 274.719 546.798 273.475C549.422 267.591 557.532 268.386 558.566 261.467C549.024 262.978 556.26 251.448 554.113 247.949C555.334 246.506 557.029 245.546 558.894 245.24C560.759 244.934 562.672 245.302 564.29 246.279C566.061 246.672 567.913 246.447 569.538 245.643C568.849 240.712 568.027 235.808 567.073 230.931C562.7 234.748 557.452 241.269 553.874 232.76C552.682 230.374 550.853 225.524 554.67 224.808C555.052 224.752 555.442 224.775 555.815 224.874C556.189 224.973 556.538 225.146 556.843 225.384C557.147 225.622 557.401 225.919 557.587 226.257C557.774 226.595 557.891 226.968 557.93 227.353C560.65 227.157 563.329 226.567 565.881 225.603C565.245 222.581 564.608 219.639 563.813 216.617L563.177 216.14C562.571 215.457 562.175 214.614 562.034 213.712C561.893 212.81 562.014 211.886 562.382 211.051C559.807 201.433 556.728 191.956 553.159 182.661C545.844 184.57 545.208 194.669 542.425 201.111C541.312 201.985 539.721 203.735 538.052 202.144C536.382 200.554 536.064 193.317 531.293 195.782C528.192 193.874 521.275 195.783 520.162 190.455L513.88 185.922C507.36 192.045 507.917 203.178 498.694 205.961C497.024 212.959 491.379 220.196 492.094 226.001C493.287 228.387 497.581 224.092 497.819 227.989L501.079 230.533C499.966 231.408 501.079 231.17 501.477 232.442C501.477 236.975 495.831 242.382 501.477 246.358L510.62 248.903C510.62 253.595 504.259 255.662 504.657 260.195C497.899 262.422 500.204 272.441 494.48 276.099C490.345 278.406 483.984 279.201 481.837 284.052C473.012 286.119 479.293 295.9 471.103 297.809C461.005 291.527 455.917 317.848 448.602 303.614C444.547 303.614 447.011 296.696 445.819 294.31C448.376 291.736 451.814 290.23 455.44 290.095C455.724 290.673 456.166 291.159 456.715 291.497C457.264 291.835 457.896 292.01 458.541 292.004C460.008 291.491 461.278 290.534 462.176 289.266C463.074 287.997 463.554 286.481 463.55 284.926C466.955 281.506 471.125 278.944 475.715 277.451C481.996 267.432 499.568 259.32 490.981 246.12L488.834 245.325C482.473 249.46 477.862 257.809 470.149 256.219C465.935 255.185 466.969 250.971 468.241 248.267C478.259 237.372 477.623 222.979 487.483 211.369C487.759 202.304 491.126 193.606 497.024 186.717L502.51 184.808C501.079 178.526 506.486 173.357 508.474 167.552C505.452 160.316 511.972 154.193 509.666 146.797C503.067 141.071 490.424 140.674 491.379 130.893C494.877 126.121 501.238 130.893 505.134 130.336C505.953 129.427 506.599 128.376 507.042 127.235C503.623 126.678 506.168 123.497 506.406 121.43C507.365 120.31 508.617 119.479 510.021 119.03C511.425 118.58 512.926 118.53 514.357 118.885C516.206 120.428 518.48 121.371 520.877 121.589C500.963 93.1083 476.042 68.4811 447.33 48.9057V48.9057C447.129 50.8144 446.179 52.5655 444.688 53.7734C443.197 54.9814 441.287 55.5473 439.378 55.347C437.629 56.3808 435.244 51.6892 434.051 49.3035L432.302 50.3373C429.866 49.603 427.813 47.9484 426.577 45.7249C425.623 41.7488 431.109 41.6693 431.984 39.2041C418.353 31.0879 404.071 24.119 389.286 18.3694C386.269 21.1144 382.312 22.595 378.234 22.5047C376.958 22.2534 375.83 21.5153 375.088 20.4468C374.346 19.3782 374.048 18.063 374.259 16.7791C368.773 18.6877 366.308 15.9839 360.662 17.9719C351.996 20.5961 355.415 32.4448 350.485 36.8185C350.164 36.705 349.821 36.6693 349.483 36.7147C349.146 36.76 348.824 36.885 348.545 37.0792C348.265 37.2734 348.035 37.5314 347.875 37.8317C347.715 38.1321 347.628 38.4662 347.623 38.8066L341.58 35.5461C343.045 32.3896 344.062 29.0439 344.601 25.6059C343.856 22.4344 342.029 19.6221 339.433 17.6538C343.806 6.1231 356.607 11.2124 366.864 10.8944C337.72 2.29633 307.385 -1.56985 277.017 -0.556794C276.81 0.0804479 276.486 0.673689 276.063 1.19269C274.348 1.7624 272.531 1.95795 270.734 1.76591C268.937 1.57386 267.202 0.998799 265.647 0.079516C260.399 0.079516 255.072 0.95411 249.744 1.66981C222.967 5.12682 196.814 12.3555 172.062 23.1408H173.334C175.004 24.7312 176.117 26.4806 178.423 25.2878C179.775 28.3096 177.389 29.5026 175.799 31.1725C169.12 28.0712 171.823 36.7389 165.701 36.1822C163.952 37.216 165.701 38.1703 166.258 38.727L162.6 42.8623C156.398 38.9657 159.817 48.1106 154.649 47.2359C150.117 56.2218 137.157 63.1403 139.94 75.1481C137.395 84.2931 139.939 93.7561 137.554 102.185C139.542 102.185 139.065 105.843 138.111 107.354C135.926 109.331 133.105 110.459 130.16 110.535C123.719 105.446 132.465 97.4141 128.649 89.7004C127.138 86.0424 121.652 88.0306 120.141 84.3726C119.696 84.9701 119.375 85.651 119.197 86.375C119.019 87.099 118.989 87.8513 119.108 88.5873C113.621 96.5394 112.906 101.947 107.976 109.024L109.725 124.929L112.667 126.201C115.371 132.165 122.845 133.119 127.456 135.982C134.135 139.084 125.548 145.048 130.239 147.91C130.239 150.535 130.239 153.238 126.264 153.477C124.647 153.352 123.103 152.759 121.818 151.77C120.533 150.782 119.564 149.441 119.028 147.91C119.515 147.068 119.736 146.098 119.664 145.127C109.566 141.469 106.863 129.223 102.251 121.271C96.1291 114.75 99.389 106.082 102.967 98.6068C102.967 92.0065 96.6856 85.4858 100.979 78.5674C101.373 77.5424 102.145 76.7074 103.136 76.2341C104.127 75.7608 105.261 75.6851 106.306 76.0227C107.976 77.6131 112.19 78.6469 110.759 80.953C112.27 81.9073 113.542 84.2931 115.132 82.6231V81.3508C119.982 79.6013 123.481 86.0424 128.57 82.2254C131.034 79.4405 132.691 76.0359 133.364 72.3786C134.036 68.7212 133.698 64.9498 132.386 61.4703C136.521 56.54 135.328 48.2695 143.756 47.6334V48.9057C150.276 51.3709 149.64 42.9416 155.126 40.9536C152.105 36.3413 161.487 36.8186 160.93 31.6497C162.203 28.7074 164.588 30.1386 167.212 30.2181C166.75 29.1125 166.715 27.8754 167.111 26.7448C167.507 25.6143 168.308 24.6703 169.359 24.095C147.842 33.6659 127.597 45.8733 109.089 60.4365C109.791 60.9397 110.296 61.6703 110.52 62.5041C110.205 63.6795 109.605 64.7588 108.773 65.6466C107.941 66.5344 106.902 67.2031 105.75 67.5934C105.134 67.5545 104.545 67.3278 104.061 66.944C103.578 66.5601 103.224 66.0376 103.046 65.4464C94.6784 72.4088 86.7143 79.8428 79.193 87.7124C79.5239 89.5949 79.9755 91.4544 80.5448 93.279C81.6307 94.1213 82.4798 95.2306 83.0094 96.4989C83.5389 97.7672 83.7308 99.151 83.5662 100.516C86.4286 104.492 82.6121 110.694 86.7466 114.352C84.2818 120.873 93.5845 124.054 96.1289 129.382C92.6304 134.153 97.6397 141.628 95.0159 147.513C96.2286 150.521 97.16 153.636 97.7986 156.817C102.172 158.487 110.282 159.202 112.349 165.405C110.441 168.506 115.053 171.369 114.655 175.425C111.634 179.401 118.949 182.343 119.108 186.319C118.154 187.83 119.664 188.864 121.095 189.182L121.573 188.387C122.717 188.65 123.797 189.137 124.752 189.819C125.707 190.502 126.518 191.366 127.138 192.363C128.728 199.281 138.826 202.86 137.395 211.13H138.826C141.848 209.778 143.756 215.265 145.903 216.14C145.903 214.072 148.447 215.583 149.799 216.14C152.844 216.624 155.964 216.122 158.704 214.709C167.45 215.345 162.918 221.627 168.802 226.955C175.187 228.7 181.215 231.554 186.613 235.384C198.756 239.201 211.293 241.629 223.983 242.621C235.194 245.325 244.417 239.201 254.674 238.168C270.179 227.989 283.537 222.899 298.723 214.311C301.904 210.892 304.209 206.359 306.277 203.973C308.344 195.544 309.139 184.808 315.977 180.117C320.775 173.461 324.208 165.92 326.075 157.93C332.754 149.978 329.892 137.175 338.479 131.29C338.672 130.924 338.767 130.514 338.753 130.1C338.74 129.686 338.619 129.282 338.402 128.929C338.186 128.576 337.881 128.285 337.518 128.086C337.155 127.886 336.746 127.785 336.332 127.791C335.549 123.478 336.4 119.028 338.717 115.306C339.011 114.691 339.44 114.149 339.973 113.722C340.505 113.295 341.127 112.994 341.792 112.841C342.457 112.688 343.148 112.688 343.813 112.839C344.479 112.991 345.101 113.29 345.635 113.716C349.133 117.533 343.249 117.613 345.635 120.952C342.772 125.565 347.543 128.905 347.543 135.028C347.543 141.151 341.023 141.151 338.002 145.207C338.547 147.177 338.658 149.243 338.329 151.261C337.999 153.279 337.237 155.201 336.093 156.896L336.491 158.805C330.846 168.666 329.653 180.912 321.066 189.5C321.779 192.16 321.658 194.974 320.719 197.563C319.781 200.151 318.07 202.389 315.818 203.973C315.037 208.859 313.212 213.519 310.468 217.636C307.724 221.752 304.125 225.229 299.916 227.83C293.555 234.589 282.105 227.83 277.812 238.247C275.831 239.716 273.393 240.434 270.933 240.273C268.472 240.113 266.148 239.085 264.374 237.372C249.903 249.301 231.218 256.935 210.545 247.79C201.004 246.676 191.622 248.824 186.136 239.838C180.172 239.838 175.243 246.994 171.267 241.269C174.845 233.794 165.065 240.076 163.316 235.782C157.273 232.521 148.765 229.897 148.129 221.468C145.618 222.56 142.802 222.729 140.178 221.945C137.952 215.186 126.343 216.538 122.447 208.188C121.328 207.2 119.863 206.695 118.373 206.785C116.883 206.874 115.489 207.55 114.496 208.665C114.421 208.847 114.389 209.044 114.403 209.241C114.417 209.437 114.477 209.628 114.577 209.798C114.677 209.967 114.815 210.111 114.981 210.218C115.146 210.325 115.334 210.392 115.53 210.414H116.166L118.949 228.307C119.585 234.112 128.251 231.408 129.126 237.85C126.979 242.939 131.75 246.517 131.988 253.038C143.279 250.414 150.276 260.99 161.407 260.116C162.791 261.428 163.656 263.195 163.846 265.092C164.036 266.99 163.537 268.893 162.441 270.453C160.533 273.555 154.49 272.362 150.037 273.952C144.889 267.239 137.493 262.609 129.206 260.911C117.438 261.626 109.725 250.891 99.707 247.869C95.0543 246.683 90.6053 244.807 86.5081 242.303C83.7552 241.081 80.6626 240.856 77.7618 241.667C77.7618 242.303 78.5569 242.144 78.7159 242.78L70.7648 245.325C66.2327 243.018 65.0401 249.301 60.19 251.05C54.7037 244.37 53.5109 256.537 46.9115 251.05C46.3517 250.749 45.8721 250.318 45.5131 249.794C45.1541 249.269 44.9261 248.666 44.8483 248.035C44.7704 247.404 44.845 246.764 45.0657 246.168C45.2863 245.571 45.6465 245.037 46.1163 244.609C50.8075 242.223 50.251 231.09 57.8841 232.601C59.0767 237.611 68.3 237.452 65.8352 242.621C67.7435 239.52 72.5141 237.134 69.5722 233.158C70.2355 230.909 71.5073 228.887 73.2471 227.315C74.987 225.743 77.1271 224.683 79.4315 224.251C82.791 225.083 85.9021 226.708 88.5032 228.991C91.1043 231.275 93.1195 234.149 94.3796 237.372L110.282 246.279C111.713 246.279 114.655 247.949 114.973 246.279C111.872 235.702 114.973 227.83 107.022 219.082C105.392 219.304 103.735 219.192 102.15 218.755C100.564 218.317 99.0841 217.563 97.7986 216.538C96.4469 213.516 94.0618 208.585 98.2759 207.154C96.4063 205.684 94.1304 204.823 91.7559 204.689C90.8813 200.951 86.3491 201.269 83.8048 199.202C80.0677 197.373 74.8199 194.669 76.4896 190.295C76.6109 189.739 76.8578 189.217 77.2115 188.771C77.5652 188.324 78.0163 187.964 78.5303 187.719C79.0443 187.473 79.6078 187.349 80.1774 187.354C80.747 187.36 81.3079 187.495 81.817 187.751C79.5907 189.58 83.0097 190.136 83.3277 191.409C89.9271 188.546 91.2787 197.532 97.4011 198.089V199.361C99.1852 201.591 101.537 203.3 104.209 204.307C106.881 205.315 109.776 205.584 112.588 205.087C114.049 203.009 115.041 200.639 115.494 198.139C115.948 195.64 115.851 193.072 115.212 190.614C113.065 189.818 112.906 186.478 109.964 187.83L107.101 181.23C99.4239 176.95 92.5387 171.382 86.7466 164.769C86.7466 157.533 86.7466 148.228 86.7466 140.356C77.4045 128.315 71.3987 114.025 69.3337 98.925C27.3485 147.432 2.92419 208.669 0 272.759H1.3518C2.14258 269.827 3.59197 267.114 5.5899 264.826C7.58783 262.538 10.0814 260.737 12.8808 259.559L13.6759 260.036C9.2233 263.694 9.30293 269.658 4.8503 273.316C10.6546 278.565 16.4589 277.928 24.7281 281.984C27.3519 290.652 36.734 285.165 41.9023 293.197C42.6974 302.262 35.7006 309.101 34.9055 317.053C37.2908 330.413 53.4314 328.663 63.0522 332.957C66.6386 331.947 70.4658 332.229 73.8659 333.753C85.236 337.093 104.319 333.753 109.407 347.351C116.782 351.231 124.934 353.405 133.261 353.713C142.563 350.929 152.979 370.333 158.863 355.701L160.851 347.272C155.524 338.604 141.053 341.944 132.307 335.343C131.113 335.86 129.764 335.891 128.547 335.431C127.331 334.971 126.341 334.055 125.787 332.878C125.374 332.18 125.25 331.348 125.444 330.56C125.637 329.772 126.131 329.091 126.82 328.663C131.909 330.811 137.793 327.471 142.723 329.618C152.105 336.059 163.952 332.639 171.744 340.751C172.035 341.966 172.036 343.233 171.746 344.449C171.456 345.665 170.883 346.796 170.074 347.749C170.643 348.164 171.044 348.769 171.205 349.455C171.365 350.141 171.275 350.862 170.949 351.486C182.319 363.414 201.64 364.21 214.283 364.607L219.053 368.106C216.191 372.718 207.922 371.367 207.047 376.058C204.9 375.263 204.661 377.251 202.912 378.365C204.259 379.177 205.74 379.743 207.286 380.034C215.053 379.896 222.806 380.778 230.344 382.659C235.444 379.979 241.303 379.11 246.961 380.193C252.35 377.293 258.419 375.892 264.533 376.138C277.653 367.152 295.702 373.593 307.787 360.233C309.219 357.927 311.286 355.462 312.876 356.416V355.144C311.557 353.674 309.954 352.487 308.164 351.653C306.374 350.819 304.434 350.357 302.46 350.293C275.506 362.46 249.585 359.2 219.689 355.542L207.763 349.657C201.958 350.293 191.463 353.395 185.34 346.874C185.297 346.36 185.358 345.842 185.521 345.352C185.683 344.862 185.943 344.41 186.285 344.024C186.627 343.637 187.043 343.324 187.51 343.103C187.976 342.882 188.482 342.758 188.998 342.739C203.628 345.999 217.86 344.647 232.49 347.908C248.949 347.43 267.714 354.349 282.741 344.886C312.69 339.749 340.169 325.046 361.06 302.978C366.149 299.161 365.91 292.56 372.112 290.493C373.554 291.633 374.653 293.151 375.284 294.877C375.916 296.604 376.056 298.472 375.69 300.274C369.727 311.566 358.913 313.395 351.041 322.461C345.281 324.234 340.31 327.942 336.968 332.957C327.665 335.741 315.977 342.421 315.5 354.428C330.925 355.462 339.354 341.546 352.711 337.888C356.873 331.565 362.905 326.7 369.965 323.971C372.589 306.795 390.797 313.872 396.204 300.115C398.748 299.558 400.497 298.445 399.225 296.139C402.724 291.368 407.176 287.074 409.482 283.177C404.393 281.03 394.057 282.143 393.58 272.919C394.693 271.964 393.58 270.851 392.387 270.533C384.834 272.282 379.427 280.155 372.271 283.733C371.207 283.038 370.311 282.114 369.647 281.03C365.433 279.996 356.289 283.415 358.675 276.258C358.895 274.487 359.705 272.842 360.975 271.587C362.244 270.332 363.898 269.541 365.671 269.34C372.987 269.34 373.623 259.638 379.347 256.935C393.341 251.686 393.819 236.418 397.635 224.251C409.221 215.852 417.202 203.381 419.978 189.341C425.146 180.196 442.559 184.093 442.877 174.153C447.25 164.53 453.293 153.238 448.761 145.048C446.296 142.98 442.479 146.479 439.537 145.048L437.868 140.833C437.868 142.105 436.119 141.867 436.437 143.139C433.892 143.696 432.858 141.946 432.302 139.481C433.133 135.672 435.102 132.206 437.947 129.541C443.433 127.632 450.351 134.63 454.724 127.632C456.553 123.895 462.675 125.088 464.345 123.418C466.015 121.748 469.911 124.77 469.672 120.873C468.755 119.629 468.26 118.124 468.26 116.579C468.26 115.033 468.755 113.529 469.672 112.285L473.966 107.991C473.515 107.719 473.002 107.566 472.476 107.546C471.95 107.527 471.428 107.643 470.958 107.881C470.489 108.12 470.088 108.474 469.793 108.911C469.499 109.347 469.32 109.852 469.274 110.376C468.718 107.831 466.015 110.376 465.06 109.342V109.979C459.574 109.263 460.21 100.515 460.131 97.2551C460.697 96.0389 461.594 95.0061 462.718 94.275C463.843 93.5438 465.151 93.1435 466.492 93.1198C470.149 88.9847 465.538 77.2156 475.317 79.8398C476.627 80.44 477.694 81.467 478.344 82.7527C478.994 84.0384 479.188 85.5065 478.895 86.9171C476.033 88.9052 475.317 94.3922 470.944 95.3464C470.944 99.402 478.895 94.8695 480.088 100.516C484.064 103.537 479.134 107.991 479.134 110.694L474.363 115.784C475.329 116.474 476.009 117.495 476.272 118.653C476.536 119.811 476.366 121.025 475.794 122.066C469.115 127.553 480.168 137.97 470.229 143.855C462.278 144.968 466.492 153.318 462.993 155.465C463.947 162.542 451.941 170.574 453.134 178.924C451.146 181.161 449.783 183.883 449.183 186.815C448.583 189.747 448.766 192.785 449.715 195.623C447.727 201.349 441.764 202.78 439.617 209.222C435.721 215.424 435.244 225.126 428.803 228.227C428.896 229.636 428.505 231.035 427.696 232.191C426.886 233.348 425.706 234.194 424.351 234.589C422.363 234.589 423.874 232.681 423.635 231.488C425.861 229.659 423.079 226.319 425.305 224.49C422.84 213.834 439.14 204.132 435.085 192.681C431.666 189.5 429.121 192.681 426.418 195.305L427.213 195.782C424.665 207.867 418.074 218.722 408.528 226.557C409.244 238.327 400.179 247.631 393.5 255.822C392.841 256.913 392.493 258.164 392.493 259.44C392.493 260.715 392.841 261.966 393.5 263.058C402.565 264.967 406.302 247.154 414.968 252.8C414.412 258.923 402.088 265.682 407.733 272.998C409.165 274.174 410.859 274.989 412.671 275.377C414.483 275.764 416.361 275.712 418.149 275.225C422.449 269.031 427.321 263.253 432.7 257.969C433.813 257.014 436.834 255.662 437.868 257.412C440.174 258.843 437.868 260.672 437.868 262.74C432.222 264.012 433.892 265.682 432.302 269.976C425.861 282.064 413.855 287.471 407.415 299.558L405.507 300.036C405.507 307.352 395.965 307.511 390.797 310.691C386.978 316.35 381.989 321.123 376.167 324.687C374.736 324.687 374.338 322.461 372.589 323.494L371.476 324.449L373.782 325.88C366.467 342.818 348.338 350.293 332.118 357.689C323.372 365.641 308.98 366.357 301.824 375.263C282.9 376.297 272.723 386.635 254.913 384.09C253.436 385.632 251.612 386.798 249.592 387.49C247.572 388.182 245.416 388.379 243.304 388.066C238.965 388.096 234.633 388.441 230.344 389.1C220.564 386.714 209.671 391.247 200.766 384.011L201.163 385.919C190.986 384.965 178.741 389.1 171.585 380.83C170.532 378.938 168.984 377.369 167.107 376.29C165.23 375.211 163.095 374.664 160.93 374.706C152.979 377.887 149.163 386.714 143.279 392.678C138.111 393.235 133.022 388.464 128.093 386.953C131.989 380.75 121.652 370.571 132.704 366.675C137.316 360.949 129.126 359.597 124.753 358.723C120.38 359.756 118.949 370.651 112.429 368.186C111.15 367.127 110.3 365.641 110.037 364.002C109.773 362.363 110.115 360.685 110.997 359.279L114.098 358.563C110.52 357.371 112.826 352.917 109.725 350.611C101.774 351.725 89.6885 344.011 86.9056 351.884C83.3276 353.395 86.349 355.303 84.4408 358.405C83.5082 361.679 83.5082 365.15 84.4408 368.424C89.5295 373.196 92.3919 363.891 97.8781 369.299C98.7819 371.618 100.162 373.722 101.928 375.475C103.695 377.229 105.809 378.592 108.135 379.478L108.533 381.386L126.661 388.464C127.695 390.213 124.912 392.201 123.64 392.44C114.508 390.917 105.538 388.547 96.8445 385.362C94.8665 385.352 92.9558 386.08 91.4856 387.404C90.0153 388.727 89.0911 390.551 88.8934 392.519C90.6426 405.959 106.386 399.676 111.713 408.424C112.981 407.694 114.396 407.258 115.855 407.148C117.314 407.038 118.778 407.256 120.141 407.787C117.04 405.879 120.141 403.096 122.129 402.062C126.588 402.164 130.89 403.729 134.374 406.515C134.271 406.841 134.253 407.187 134.323 407.521C134.392 407.856 134.547 408.167 134.771 408.424C136.203 408.424 135.566 406.277 135.566 406.277C140.257 406.277 142.882 398.324 147.175 402.3C154.49 402.3 156.16 389.656 163.952 391.804C167.078 392.923 169.7 395.123 171.346 398.006C174.739 398.097 178.073 398.91 181.126 400.392C185.181 398.752 189.714 398.752 193.769 400.392C195.279 404.05 199.096 400.392 201.084 403.334C205.298 401.664 210.466 403.811 212.533 401.346C215.396 405.322 219.053 403.811 218.178 408.662C211.182 415.581 201.64 405.879 194.325 406.197L193.45 405.084C186.515 407.269 179.172 407.841 171.983 406.754V405.481C162.203 409.06 146.142 399.517 142.007 413.433C145.983 419.159 147.891 424.646 151.23 430.451C161.646 435.302 157.034 412.559 169.677 421.545L168.882 423.692C174.368 424.408 183.114 413.752 185.897 423.056C182.796 429.736 175.72 431.008 170.71 434.507C168.564 442.459 157.989 445.401 162.759 452.797C167.715 454.646 173.015 455.39 178.289 454.978C183.563 454.566 188.683 453.008 193.291 450.411C189.236 450.411 192.496 443.97 194.882 442.459L209.035 437.847C213.713 442.343 219.459 445.573 225.732 447.23C228.754 443.254 238.374 450.252 241.634 444.209C247.792 441.577 254.301 439.862 260.956 439.119C271.451 444.606 274.472 434.666 284.809 437.529C297.69 433.234 311.366 432.042 320.827 424.567C327.745 420.352 336.332 414.388 343.567 419.954C342.931 419.954 343.09 420.749 343.567 421.386C348.646 417.676 354.177 414.63 360.026 412.32L363.048 410.968H362.412C368.838 404.781 376.025 399.437 383.8 395.064L385.231 392.758C390.877 391.486 396.84 382.818 402.406 386.794C397.98 393.778 392.837 400.282 387.06 406.197C380.302 408.424 374.338 408.503 369.409 415.581C362.571 420.432 357.482 426.952 350.167 426.634C346.398 429.374 341.771 430.672 337.127 430.292C330.212 436.104 322.049 440.24 313.274 442.379C309.616 437.926 303.096 441.425 299.359 442.379C285.763 443.572 275.983 453.035 261.194 451.843C247.677 453.672 241.078 459.158 229.39 458.443C212.295 453.115 198.46 464.884 180.013 465.202C172.861 465.11 165.734 466.075 158.863 468.065C157.896 467.118 157.173 465.95 156.758 464.662C156.342 463.373 156.246 462.003 156.478 460.669C151.712 459.5 146.88 458.623 142.007 458.045C139.185 457.39 136.25 457.386 133.426 458.033C130.602 458.681 127.962 459.963 125.707 461.783C126.258 463.885 126.525 466.051 126.502 468.224C128.725 472.71 130.664 477.331 132.307 482.061C153.549 483.303 174.863 482.37 195.915 479.277C210.557 482.771 225.748 483.312 240.601 480.868C246.007 481.584 253.481 476.574 257.139 480.868C257.849 481.261 258.424 481.859 258.791 482.583C259.158 483.307 259.299 484.124 259.196 484.929C259.093 485.734 258.751 486.49 258.215 487.099C257.678 487.707 256.971 488.141 256.185 488.343C247.677 494.307 240.283 486.037 233.286 492.319C224.779 492.548 216.269 492.07 207.842 490.888C199.891 491.365 191.145 498.84 186.931 489.059C186.351 488.836 185.851 488.443 185.497 487.933C185.142 487.422 184.949 486.817 184.943 486.196C179.854 484.049 175.879 492.876 174.288 497.249C177.071 500.589 171.506 502.498 173.016 506.156L174.924 505.758C175.084 506.207 175.151 506.683 175.121 507.158C175.091 507.633 174.964 508.097 174.748 508.521C174.532 508.946 174.232 509.322 173.866 509.626C173.5 509.93 173.075 510.157 172.619 510.291C163.077 511.802 154.411 514.506 145.903 509.178C147.334 501.226 158.068 510.37 162.441 503.373C163.616 502.255 164.332 500.739 164.449 499.122C164.567 497.505 164.078 495.901 163.077 494.625C157.512 490.649 153.536 496.136 148.368 494.069C142.007 492.24 137.236 497.329 131.511 492.717C130.16 489.695 134.771 486.673 130.875 484.287C129.982 483.962 129.001 483.967 128.111 484.303C127.221 484.638 126.481 485.282 126.025 486.116C123.242 491.365 133.579 492.955 127.059 499.079C126.469 500.093 125.578 500.899 124.509 501.383C123.44 501.868 122.247 502.007 121.095 501.782C117.04 498.76 116.007 491.047 110.043 491.126C107.569 495.89 104.583 500.37 101.138 504.486C106.783 509.257 112.588 513.711 118.551 518.005C118.974 517.546 119.455 517.144 119.982 516.812C122.347 516.179 124.826 516.102 127.225 516.585C129.625 517.067 131.881 518.097 133.817 519.595C133.876 520.929 133.474 522.243 132.677 523.315C131.88 524.387 130.739 525.152 129.444 525.48C139.355 531.969 149.658 537.838 160.294 543.054L177.866 547.109C180.983 546.696 183.897 545.336 186.215 543.213C187.646 535.261 190.668 522.378 200.527 519.356C205.377 520.231 212.613 514.585 219.053 516.414C218.551 516.775 218.209 517.317 218.099 517.925C218.955 517.66 219.856 517.573 220.747 517.668C221.638 517.762 222.5 518.038 223.281 518.477C224.063 518.916 224.746 519.509 225.291 520.221C225.835 520.933 226.229 521.748 226.448 522.617C228.435 525.48 226.448 529.933 230.821 532.875C241.555 536.374 253.402 530.331 264.215 534.386C264.926 533.881 265.745 533.547 266.606 533.411C267.468 533.275 268.349 533.341 269.181 533.603C270.013 533.865 270.773 534.316 271.402 534.921C272.03 535.526 272.509 536.268 272.803 537.09C272.497 538.476 271.659 539.687 270.469 540.46C269.279 541.234 267.833 541.509 266.442 541.225C264.056 536.454 262.466 544.088 259.524 542.815C256.999 543.425 254.367 543.448 251.831 542.883C249.295 542.318 246.922 541.18 244.894 539.555C239.09 548.859 225.573 544.644 217.145 542.656C215.157 542.656 215.793 539.634 216.27 538.919C217.273 538.161 217.954 537.054 218.178 535.818C216.519 533.144 214.189 530.951 211.42 529.456C207.603 532.955 202.992 530.092 199.891 534.068C200.736 536.491 202.154 538.674 204.026 540.43C204.026 544.485 198.46 545.042 197.426 549.177H196.79C200.925 552.835 202.515 553.79 207.444 558.004C206.815 558.949 206.004 559.76 205.059 560.39C229.603 567.621 255.012 571.5 280.595 571.92V571.92ZM564.37 309.499C564.671 310.554 564.72 311.665 564.513 312.742C564.306 313.82 563.848 314.833 563.177 315.701C562.642 316.286 561.951 316.704 561.186 316.907C560.42 317.11 559.613 317.088 558.859 316.845C558.105 316.602 557.437 316.148 556.934 315.537C556.431 314.925 556.114 314.182 556.021 313.395C556.259 312.556 556.677 311.779 557.248 311.119C557.818 310.459 558.527 309.932 559.323 309.576C560.119 309.22 560.983 309.042 561.855 309.057C562.727 309.071 563.586 309.276 564.37 309.658V309.499ZM494.321 97.4937C496.626 98.9251 501.477 97.4936 502.272 100.913C503.067 104.332 499.568 103.537 497.978 105.207C496.491 105.442 494.968 105.128 493.696 104.323C492.423 103.519 491.486 102.278 491.061 100.833C491.135 100.001 491.504 99.2232 492.102 98.6398C492.7 98.0564 493.487 97.7063 494.321 97.6526V97.4937ZM316.136 104.889C313.047 104.135 310.269 102.44 308.185 100.038C308.134 98.7434 308.536 97.4709 309.322 96.4407C310.108 95.4104 311.229 94.687 312.492 94.3949C313.754 94.1027 315.079 94.2602 316.238 94.8404C317.397 95.4206 318.317 96.3871 318.84 97.573C318.283 99.9587 321.463 105.128 315.818 105.048L316.136 104.889ZM288.148 12.1667C288.148 18.1309 292.362 13.2005 294.668 14.6319C301.506 18.3694 298.246 24.4131 296.258 30.5362C294.589 34.9099 298.803 38.4884 294.827 41.4307L297.769 42.7031C300.87 44.6116 297.769 49.3035 296.02 52.3254C294.927 53.3034 293.511 53.8441 292.044 53.8441C290.578 53.8441 289.162 53.3034 288.069 52.3254C285.922 46.7523 285.425 40.6785 286.637 34.8305C285.981 30.1358 286.224 25.3592 287.353 20.7552C285.575 20.2849 283.992 19.2608 282.834 17.8312C281.677 16.4015 281.003 14.6406 280.913 12.803C283.227 11.9454 285.741 11.7794 288.148 12.3257V12.1667ZM275.188 148.069C284.57 140.117 272.564 130.813 280.356 121.748C279.296 118.676 279.467 115.313 280.833 112.364C280.833 105.048 283.378 100.515 283.06 93.3584C283.934 88.5075 277.335 80.1578 285.524 78.2493C287.486 79.1654 289.102 80.688 290.133 82.5923C291.163 84.4966 291.555 86.682 291.249 88.8258C293.555 92.9609 290.136 98.3684 292.68 103.696C291.976 105.211 291.675 106.882 291.806 108.547C280.436 116.499 293.476 127.314 286.558 137.493C288.382 140.439 289.394 143.815 289.492 147.279C289.589 150.742 288.769 154.17 287.115 157.214C285.115 158.617 283.445 160.44 282.223 162.556C281.001 164.671 280.255 167.027 280.038 169.461C270.179 180.991 262.228 192.761 248.234 199.361C240.283 202.462 231.775 202.542 224.38 206.279C214.441 203.258 207.286 200.951 196.87 198.725C198.38 193.715 192.019 197.85 192.258 193.158C192.312 191.946 192.716 190.774 193.422 189.786C194.127 188.798 195.104 188.036 196.233 187.592C197.533 187.188 198.936 187.282 200.17 187.855C201.405 188.428 202.382 189.44 202.912 190.693C212.215 187.91 222.234 194.192 231.616 194.669C247.492 186.483 261.534 175.145 272.882 161.35C272.864 161.265 272.828 161.184 272.777 161.114C272.727 161.043 272.662 160.984 272.588 160.939C272.513 160.894 272.43 160.865 272.344 160.854C272.258 160.842 272.171 160.849 272.087 160.873C269.622 155.465 279.641 153.159 275.188 148.229V148.069ZM253.64 34.6715C255.31 38.8862 263.579 37.6933 261.591 44.055C261.845 44.3427 262.157 44.5731 262.507 44.7309C262.856 44.8887 263.236 44.9704 263.619 44.9704C264.003 44.9704 264.382 44.8887 264.731 44.7309C265.081 44.5731 265.393 44.3427 265.647 44.055L267.157 47.713C262.069 51.53 269.861 53.6771 266.362 58.4485C261.194 59.0051 265.806 61.8678 263.738 64.333L259.286 62.0268C258.325 60.5621 257.812 58.8484 257.812 57.0965C257.812 55.3445 258.325 53.6308 259.286 52.1662L257.775 51.2119C256.264 50.2577 258.57 49.0649 258.331 47.7926C253.64 47.7926 254.992 41.908 251.096 39.8404C250.619 38.8066 250.38 35.3076 253.64 34.8305V34.6715ZM240.124 21.948C243.225 23.8565 242.429 26.0831 239.726 28.6278C237.023 31.1725 234.24 27.9121 232.411 25.6855C231.536 22.0275 237.182 20.755 240.124 22.0274V21.948ZM217.781 79.9988C217.984 81.7056 217.504 83.4235 216.447 84.7786C215.39 86.1338 213.84 87.0167 212.136 87.2353C210.943 84.8496 204.741 83.6568 205.695 79.2831C205.896 77.6618 206.658 76.1621 207.849 75.0437C209.04 73.9254 210.585 73.259 212.215 73.16C213.042 73.2488 213.843 73.501 214.572 73.9019C215.301 74.3028 215.943 74.8443 216.461 75.4953C216.978 76.1464 217.362 76.8939 217.588 77.6943C217.815 78.4946 217.881 79.3321 217.781 80.158V79.9988ZM207.206 51.3709C206.649 54.7903 211.42 58.2895 206.729 60.7547C204.685 61.0129 202.612 60.6024 200.821 59.5847C199.029 58.567 197.615 56.9966 196.79 55.1084C195.12 47.6334 204.503 49.3829 207.206 51.2119V51.3709ZM184.625 73.7961C185.805 73.7806 186.952 74.1895 187.857 74.9483C188.762 75.7072 189.364 76.7657 189.554 77.9311L187.169 79.1242C187.805 84.9292 193.609 87.0763 192.258 92.4838C190.677 93.1914 188.978 93.5959 187.249 93.6765L179.297 81.6687C179.125 80.8062 179.127 79.9182 179.303 79.0564C179.479 78.1947 179.825 77.3768 180.321 76.6507C180.817 75.9247 181.454 75.3053 182.193 74.8287C182.932 74.3521 183.759 74.0282 184.625 73.8757V73.7961ZM178.741 122.782C178.741 121.35 180.013 119.839 181.763 121.43C182.686 122.118 183.459 122.988 184.033 123.986C184.608 124.985 184.971 126.09 185.102 127.235C191.563 128.958 198.214 129.866 204.9 129.938C208.717 129.064 209.512 124.213 212.851 124.77C212.687 123.499 213.017 122.214 213.771 121.179C214.525 120.144 215.647 119.436 216.906 119.203C213.885 114.591 219.451 115.943 220.166 113.159C216.827 107.275 224.539 106.241 226.448 103.14C229.708 105.684 225.255 109.342 227.322 112.841C223.585 113.716 224.062 118.885 221.836 120.793C219.513 126.166 216.346 131.133 212.454 135.505C209.543 137.654 206.138 139.035 202.553 139.522C198.968 140.008 195.318 139.584 191.94 138.288C188.918 133.676 183.989 140.833 180.57 134.948C179.287 133.628 178.57 131.859 178.57 130.018C178.57 128.177 179.287 126.409 180.57 125.088L178.741 122.782ZM195.438 160.634C200.527 171.369 215.475 167.234 224.142 170.495C227.799 168.984 229.39 164.69 234.399 166.121C241.714 158.169 255.469 151.33 253.323 139.243C252.289 128.905 263.42 117.056 254.197 108.627C241.555 108.627 245.053 123.338 237.897 129.62C234.399 140.356 229.946 151.33 218.258 153.477C216.509 145.922 223.744 142.98 227.322 135.505C232.411 131.688 232.649 124.372 236.943 120.078C232.649 115.784 240.601 109.979 241.873 104.173C246.962 91.7681 225.493 93.3585 232.49 80.3169C230.999 79.1576 229.936 77.5348 229.469 75.7045C229.311 74.1795 229.755 72.6531 230.705 71.4501C231.655 70.2471 233.038 69.4623 234.558 69.2633C235.564 69.4521 236.515 69.8645 237.341 70.4701C238.167 71.0757 238.846 71.859 239.328 72.7623C239.328 76.0227 241.237 80.7145 238.215 82.305C240.193 83.6658 241.607 85.7016 242.191 88.0306C250.619 87.3944 250.142 98.2094 258.093 98.2889C268.668 92.5634 255.549 84.2929 259.763 76.7384C260.558 74.5913 265.726 74.0348 265.01 70.9334H266.283C267.239 71.4379 268.039 72.1926 268.6 73.1171C269.16 74.0415 269.458 75.1009 269.463 76.1819C268.307 86.0619 268.307 96.043 269.463 105.923C263.261 127.871 264.613 150.694 247.041 169.54C242.026 173.153 235.966 175.024 229.787 174.868C228.022 177.426 225.35 179.217 222.313 179.878C215.316 178.208 205.616 179.083 201.004 173.516C197.571 173.431 194.218 172.464 191.267 170.71C188.315 168.955 185.864 166.471 184.148 163.497C182.631 162.183 180.821 161.253 178.871 160.782C176.92 160.312 174.885 160.315 172.937 160.793C171.286 160.574 169.746 159.842 168.533 158.701C167.32 157.559 166.497 156.066 166.178 154.431L167.689 155.385C167.285 154.276 166.6 153.289 165.701 152.523C166.532 151.831 167.232 150.996 167.768 150.057C169.756 152.92 173.096 147.513 175.72 151.568C184.863 149.262 188.044 160.395 195.438 160.713V160.634ZM153.695 76.9769C154.649 75.466 154.251 70.9335 157.193 72.2058C158.943 71.172 156.796 70.2971 156.478 69.0247C157.382 66.917 158.731 65.0299 160.433 63.4926C162.135 61.9553 164.149 60.8041 166.337 60.1183C166.915 60.1534 167.467 60.3734 167.911 60.7457C168.354 61.1179 168.667 61.6227 168.802 62.186C169.995 64.5716 166.417 66.0824 164.827 65.0486C165.24 65.7468 165.363 66.5791 165.169 67.367C164.976 68.1549 164.482 68.8356 163.793 69.2633L165.144 80.8736L163.554 82.5435C171.506 86.5991 166.099 96.5394 169.279 101.708C172.46 106.877 177.23 108.388 175.322 113.557C171.108 112.523 167.371 110.774 163.793 109.581C166.417 112.285 161.01 114.829 164.906 117.533C164.996 118.18 164.895 118.839 164.615 119.429C164.335 120.019 163.888 120.513 163.33 120.852C162.771 121.19 162.126 121.358 161.473 121.333C160.821 121.309 160.19 121.093 159.658 120.714C157.613 119.781 155.822 118.369 154.438 116.597C153.054 114.825 152.117 112.746 151.707 110.535C152.101 107.496 153.534 104.686 155.762 102.583C156.602 94.0143 155.874 85.3645 153.616 77.0565L153.695 76.9769ZM144.869 133.278C147.255 129.382 149.163 137.573 150.833 133.278L152.661 135.505C150.594 137.97 155.524 139.481 154.888 142.264C154.715 143.31 154.168 144.258 153.349 144.931C152.53 145.603 151.494 145.956 150.435 145.922C144.79 147.195 145.982 140.992 143.2 137.97L144.869 133.278ZM172.221 191.806C170.472 195.544 167.053 192.363 164.27 195.544C157.034 198.566 157.671 187.115 153.059 184.252C150.706 182.793 148.053 181.884 145.299 181.595C142.545 181.306 139.762 181.643 137.157 182.582C135.908 182.279 134.814 181.53 134.081 180.475C133.349 179.419 133.028 178.132 133.181 176.856C141.132 172.323 135.805 162.383 144.154 158.487C146.152 158.437 148.109 159.06 149.71 160.258C151.311 161.455 152.462 163.156 152.979 165.087C156.219 165.527 159.192 167.119 161.353 169.573C163.515 172.026 164.719 175.177 164.747 178.447C167.212 181.787 175.401 185.842 172.141 191.886L172.221 191.806ZM320.032 141.787C316.515 144.395 313.452 147.565 310.968 151.171C311.044 152.963 310.512 154.729 309.457 156.181C309.06 171.528 299.677 185.524 294.271 199.361L255.072 224.251L224.778 230.613C215.53 227.292 205.922 225.076 196.154 224.013C192.576 222.82 190.827 217.969 186.374 219.003C182.239 212.641 170.472 211.051 174.368 201.269C174.368 195.305 179.934 196.657 182.319 198.725C184.978 200.633 186.823 203.471 187.487 206.677C197.792 212.681 208.866 217.256 220.405 220.275L239.647 217.81C255.549 209.858 276.699 200.633 290.216 184.968L289.42 184.49C291.488 182.025 291.567 176.538 295.384 175.823C294.589 175.346 295.384 174.55 294.35 174.073C302.301 166.916 295.543 153.318 306.833 148.069C303.176 143.616 311.365 141.708 306.833 138.05C308.252 134.915 309.038 131.532 309.147 128.093C309.256 124.655 308.686 121.228 307.47 118.01C307.47 112.682 307.469 107.354 314.864 107.036C315.833 106.988 316.793 107.236 317.617 107.748C318.441 108.259 319.089 109.01 319.476 109.899C319.026 113.147 317.676 116.205 315.58 118.726C315.023 124.849 321.94 129.143 315.58 134.63C317.329 135.903 323.213 138.686 320.032 141.867V141.787ZM322.258 79.7602C321.333 80.7573 320.167 81.5002 318.872 81.9179C317.578 82.3356 316.198 82.4142 314.864 82.146C311.445 81.5894 312.558 78.0109 310.888 76.4204C311.684 74.2734 311.445 70.2972 314.864 70.8538L312.638 67.1163C312.638 64.4921 312.638 61.1521 312.638 57.8917C312.638 51.2914 318.522 51.9278 322.577 52.3254C322.577 56.2219 323.531 59.4027 318.68 61.1522C319.396 64.2535 320.827 61.9473 321.781 63.0606C322.265 64.4 322.379 65.8446 322.113 67.2435C321.848 68.6423 321.211 69.9439 320.271 71.0128C318.442 75.0684 325.121 75.0685 322.258 79.8398V79.7602ZM330.21 19.0851C329.316 20.3044 328.094 21.2439 326.685 21.7932C325.277 22.3425 323.741 22.4789 322.258 22.1866C320.112 21.3913 320.032 24.0156 319.714 25.447L321.861 26.242C316.772 30.059 323.054 31.2519 323.133 34.1942C323.009 35.7146 322.479 37.1739 321.598 38.419C320.716 39.6641 319.517 40.6495 318.124 41.2717C314.864 41.2717 311.207 42.8621 310.173 38.4884C309.832 37.3559 309.909 36.1384 310.391 35.0581C310.872 33.9778 311.726 33.1069 312.797 32.6039C317.09 28.3097 312.161 24.1745 313.83 19.8008C312.733 19.6806 311.709 19.1898 310.929 18.409C310.148 17.6282 309.657 16.6044 309.537 15.5068C309.655 13.6918 310.181 11.9266 311.076 10.3432C311.97 8.75982 313.211 7.39877 314.705 6.36156C318.068 7.10978 321.071 8.99086 323.213 11.6896C323.328 12.4577 323.607 13.1919 324.031 13.8424C324.455 14.493 325.014 15.0447 325.671 15.4597C326.327 15.8747 327.065 16.1435 327.835 16.2477C328.604 16.3518 329.387 16.2888 330.13 16.0632C330.369 17.7332 331.164 18.2899 330.051 19.4032L330.21 19.0851ZM57.7251 133.596C59.0622 131.535 60.6074 129.617 62.3367 127.871C67.7434 131.211 59.7128 133.756 59.8719 137.016C58.1226 138.05 57.2479 137.016 56.2938 135.823L57.7251 133.596ZM60.8259 152.761C63.9836 153.917 66.8245 155.801 69.1177 158.26C71.411 160.72 73.0921 163.685 74.0248 166.916C74.5814 169.461 72.5936 169.222 71.4804 170.176C71.8882 170.455 72.2306 170.819 72.4842 171.243C72.7378 171.668 72.8967 172.141 72.9496 172.633C73.0025 173.124 72.9482 173.621 72.7907 174.089C72.6332 174.557 72.3761 174.986 72.037 175.345C70.7656 176.497 69.1861 177.254 67.4915 177.522C65.7969 177.791 64.061 177.559 62.4959 176.856C59.78 170.502 57.5991 163.932 55.9759 157.214C58.9973 157.135 56.6119 152.364 60.667 152.761H60.8259ZM42.5385 142.423C46.196 140.912 47.7067 144.57 49.5355 146.797C49.7065 147.324 49.7697 147.88 49.7216 148.432C49.6735 148.985 49.5151 149.521 49.2555 150.011C48.9959 150.5 48.6406 150.933 48.2106 151.282C47.7807 151.632 47.2848 151.891 46.7526 152.045C45.1624 152.688 43.3887 152.71 41.7834 152.106C40.1781 151.502 38.8584 150.317 38.0859 148.785C37.8681 147.379 38.1895 145.942 38.9856 144.762C39.7817 143.583 40.9937 142.747 42.3793 142.423H42.5385ZM29.5781 261.149C33.0766 264.966 25.6821 267.352 28.624 271.249L25.523 271.964C22.9141 269.71 21.2411 266.562 20.8319 263.137C24.4894 259.002 26.2386 249.301 32.2019 246.597C34.1897 246.597 37.3702 246.04 37.2907 248.744C37.0525 251.268 36.2319 253.701 34.8936 255.854C33.5553 258.007 31.7357 259.819 29.5781 261.149ZM49.5355 201.667C43.4132 192.522 30.3732 198.804 28.3059 184.093C25.205 173.596 39.9147 180.117 38.881 169.779C38.9182 169.044 39.1435 168.331 39.5355 167.708C39.9275 167.085 40.4729 166.573 41.1195 166.222C41.7661 165.871 42.4923 165.692 43.2281 165.702C43.9639 165.712 44.6847 165.911 45.3214 166.28C46.4428 166.928 47.3262 167.919 47.8416 169.108C48.3569 170.296 48.4768 171.618 48.1837 172.88C46.4345 173.914 43.89 177.174 41.9023 174.312C32.2019 175.266 45.4009 178.129 41.2663 183.059C45.2418 186.081 42.3794 191.011 46.4345 191.011C48.1042 195.226 53.352 195.385 53.7496 199.918C58.0761 200.73 61.9373 203.143 64.563 206.677C64.3127 208.699 63.3947 210.579 61.9543 212.02C60.5138 213.461 58.6335 214.379 56.6119 214.629C54.2499 214.65 51.9373 213.954 49.9786 212.634C48.0198 211.314 46.5069 209.431 45.6393 207.234C45.7882 206.069 46.212 204.957 46.8756 203.989C47.5392 203.021 48.4238 202.226 49.4559 201.667H49.5355ZM75.3766 276.418L73.7863 278.087V276.815L75.3766 276.418ZM64.404 312.043C63.3758 313.052 62.0929 313.762 60.6925 314.098C59.2921 314.434 57.8268 314.384 56.4529 313.952C55.6578 313.475 54.7036 314.986 55.6578 316.099L49.6149 312.838C45.9573 308.385 51.3641 309.101 49.6149 305.523L51.2052 303.852C56.5324 303.852 68.141 293.992 71.7985 304.409C72.1961 308.862 66.0737 308.306 64.3245 311.964L64.404 312.043ZM73.5478 288.743C72.1166 288.743 68.8567 288.743 68.9362 285.881C69.0707 284.847 69.4242 283.855 69.9733 282.969C70.5224 282.084 71.2543 281.326 72.12 280.746C72.9857 280.166 73.9654 279.778 74.9932 279.608C76.0211 279.437 77.0735 279.488 78.08 279.757C85.236 284.688 74.1838 285.881 73.4682 288.743H73.5478ZM405.825 112.205C405.141 114.196 404.012 116.004 402.524 117.492C401.036 118.98 399.228 120.109 397.237 120.793C396.601 120.793 393.341 120.793 393.5 119.044C396.363 114.432 396.283 102.503 404.553 106.559C406.779 107.99 404.075 110.535 405.745 112.126L405.825 112.205ZM403.837 100.754C400.497 103.537 398.987 99.8793 395.886 99.2431C392.387 95.4261 399.623 92.4043 402.883 95.0285C403.372 95.2995 403.793 95.679 404.113 96.138C404.432 96.5971 404.642 97.1232 404.727 97.6762C404.811 98.2291 404.768 98.7943 404.6 99.3278C404.432 99.8614 404.144 100.349 403.757 100.754H403.837ZM395.886 67.4344C397.289 67.9337 398.476 68.9038 399.244 70.1797C400.012 71.4556 400.315 72.9585 400.1 74.4324C398.351 78.1699 395.965 76.659 392.944 74.4324C394.614 72.4444 393.103 68.7862 396.124 67.1163L395.886 67.4344ZM388.332 146.956L385.231 145.048C385.1 144.188 385.211 143.309 385.55 142.508C385.89 141.707 386.446 141.017 387.155 140.514C387.864 140.01 388.699 139.714 389.567 139.658C390.435 139.602 391.301 139.789 392.069 140.197C394.534 142.264 394.296 146.956 392.069 147.513C394.932 154.113 392.069 157.533 385.311 158.328C385.876 158.993 386.568 159.539 387.346 159.935C388.124 160.331 388.973 160.568 389.843 160.634C389.145 164.95 387.05 168.917 383.88 171.926C383.463 179.99 380.7 187.757 375.928 194.272C367.58 198.168 369.965 205.564 367.977 212.721C356.051 221.388 355.335 235.464 345.794 245.643C334.98 256.06 325.439 272.203 310.173 271.726C309.624 271.591 309.113 271.336 308.675 270.98C308.237 270.623 307.883 270.174 307.64 269.664C307.396 269.154 307.269 268.597 307.267 268.032C307.265 267.467 307.389 266.909 307.628 266.398C319.367 260.191 329.769 251.734 338.24 241.507C346.191 239.599 346.191 229.102 350.485 222.82C353.586 216.14 359.39 212.8 362.491 206.12C359.867 194.828 376.088 190.216 375.293 178.685C377.28 172.96 375.292 163.497 381.415 159.441C377.598 153.715 387.378 151.568 388.571 146.638L388.332 146.956ZM374.1 111.171C374.645 110.712 375.335 110.459 376.048 110.459C376.761 110.459 377.451 110.712 377.996 111.171C378.694 112.38 379.061 113.752 379.061 115.147C379.061 116.543 378.694 117.915 377.996 119.124C377.996 120.555 375.133 121.111 375.451 119.68C374.649 118.569 373.932 117.4 373.305 116.181C375.372 114.829 374.815 112.682 374.338 110.774L374.1 111.171ZM368.693 47.554C374.179 48.2697 369.886 52.5639 369.965 55.5062C369.584 55.7625 369.148 55.9236 368.692 55.9758C368.236 56.028 367.774 55.9696 367.345 55.8059C366.917 55.6422 366.534 55.3777 366.228 55.0349C365.923 54.6921 365.705 54.2809 365.592 53.8361C365.433 52.0071 366.308 47.1563 368.931 47.2359L368.693 47.554ZM366.944 138.686C367.697 139.367 368.267 140.226 368.6 141.185C368.934 142.144 369.021 143.172 368.852 144.173C367.898 145.684 364.081 146.559 363.843 145.366C360.901 144.332 362.173 135.425 366.944 138.686ZM359.788 153.556C362.094 154.988 364.002 151.887 364.877 155.704C365.06 156.763 364.886 157.854 364.382 158.804C363.879 159.754 363.074 160.509 362.094 160.952C360.794 161.355 359.391 161.262 358.157 160.689C356.922 160.115 355.945 159.104 355.415 157.851C356.689 156.336 358.159 154.999 359.788 153.875V153.556ZM343.886 99.0046C342.906 98.8876 341.986 98.4748 341.247 97.8213C340.508 97.1677 339.987 96.3043 339.751 95.3464C338.717 90.9727 345.158 90.0981 347.146 92.9609C349.133 95.8236 347.225 98.925 343.886 98.925V99.0046ZM347.146 90.3368L346.589 87.792H347.225C348.656 88.2691 349.213 90.9728 347.225 90.9728L347.146 90.3368ZM331.72 208.506C338.161 205.007 337.127 194.669 341.5 187.751C342.375 180.276 352.314 177.333 349.928 169.938C350.088 168.201 350.653 166.527 351.579 165.049C352.504 163.571 353.763 162.331 355.256 161.429C356.435 161.595 357.557 162.043 358.526 162.735C359.495 163.427 360.282 164.343 360.821 165.405C359.231 167.075 360.821 170.733 357.72 172.085C359.947 176.22 356.13 182.343 353.665 186.24C352.632 199.043 341.818 209.46 336.173 222.025C335.246 223.53 333.843 224.684 332.187 225.303C330.531 225.922 328.717 225.972 327.029 225.444C323.769 219.639 328.54 213.277 331.72 208.506ZM179.536 257.969C179.941 258.177 180.258 258.523 180.43 258.945C180.602 259.367 180.617 259.837 180.473 260.269C180.329 260.701 180.035 261.067 179.644 261.302C179.254 261.536 178.792 261.623 178.343 261.547C177.558 261.463 176.801 261.206 176.127 260.793C175.453 260.38 174.879 259.823 174.447 259.161C174.662 258.707 174.977 258.307 175.367 257.992C175.758 257.676 176.215 257.452 176.704 257.338C177.193 257.223 177.702 257.22 178.192 257.33C178.683 257.439 179.142 257.657 179.536 257.969ZM111.395 323.971C107.164 325.55 102.507 325.55 98.2759 323.971C95.523 323.819 92.8327 323.09 90.3805 321.829C87.9284 320.569 85.7693 318.806 84.0433 316.656C83.0097 314.906 82.135 311.169 85.2359 310.453C86.8031 310.461 88.3451 310.848 89.7298 311.582C91.1145 312.316 92.3007 313.375 93.187 314.668C95.7314 314.111 97.7191 316.974 99.8659 315.065L99.4685 313.157C101.854 311.964 105.432 310.453 106.783 313.157C105.988 312.679 105.511 313.157 105.034 314.19C106.863 318.723 112.349 319.439 111.474 324.29L111.395 323.971ZM171.028 321.427C166.894 326.357 158.386 321.427 153.456 322.858C148.924 322.858 145.505 318.803 140.894 319.836C135.169 315.224 130.398 311.884 123.958 306.556C122.209 307.59 122.05 306.954 121.016 305.284C111.872 308.703 104.239 298.604 97.7192 296.139L94.3003 286.994H93.0281C95.4929 280.473 86.9057 271.885 91.9944 265.364L83.3277 259.4C83.3277 257.332 85.0769 258.366 86.19 257.412C92.8689 260.513 102.092 259.082 106.068 266.08C105.521 267 104.757 267.771 103.841 268.326C102.926 268.881 101.889 269.202 100.82 269.261C99.9537 270.37 99.3706 271.674 99.1212 273.06C98.8719 274.445 98.9638 275.871 99.3889 277.213C101.695 278.644 97.0831 281.666 101.695 281.348C100.979 286.835 107.738 284.608 108.294 289.777C113.383 291.924 119.267 297.173 126.343 293.515C134.294 291.606 131.352 303.614 135.328 306.636C140.229 306.95 144.88 308.912 148.527 312.202L169.12 315.383C170.631 317.212 173.891 319.757 171.028 321.586V321.427ZM353.029 293.356C342.375 301.785 334.98 315.383 320.35 318.087C307.82 324.701 294.444 329.57 280.595 332.56C263.182 337.252 246.802 332.56 230.821 334.787C226.368 329.856 217.383 333.912 212.136 331.129C212.136 331.765 212.136 332.56 212.136 333.196L198.38 331.049C194.343 333.007 189.717 333.376 185.42 332.083C180.093 323.415 194.643 323.335 194.007 314.906C189.634 304.648 178.105 308.067 170.154 306.954C164.19 301.069 149.401 305.761 149.322 293.912C145.823 287.471 138.429 289.777 132.386 289.22C130.08 279.201 113.78 280.314 114.655 269.499C124.992 268.465 131.67 280.155 141.848 278.406C147.737 281.594 154.247 283.466 160.93 283.893C165.939 289.104 172.052 293.125 178.82 295.662C179.622 296.03 180.499 296.206 181.381 296.174C182.263 296.142 183.125 295.904 183.898 295.479C184.671 295.053 185.334 294.453 185.833 293.725C186.332 292.997 186.653 292.163 186.772 291.288C190.986 283.336 180.808 282.7 178.82 277.213C176.833 271.726 185.817 270.294 188.839 269.261C189.873 265.046 191.701 258.684 196.79 259.4C205.616 263.296 214.68 262.581 222.949 266.636C234.558 262.66 245.133 265.444 254.754 262.66C259.087 258.097 264.406 254.586 270.304 252.395C276.202 250.203 282.524 249.39 288.784 250.016C292.081 247.244 295.816 245.041 299.836 243.495C308.503 240.871 313.512 228.386 323.69 230.772C324.142 232.463 324.081 234.251 323.515 235.908C322.948 237.565 321.902 239.016 320.509 240.076C310.794 250.103 297.889 256.43 284.014 257.969C272.405 261.945 263.102 273.396 249.824 273.157C234.399 278.008 215.157 271.885 198.619 269.102C197.155 270.222 195.99 271.687 195.228 273.365C194.465 275.043 194.127 276.884 194.246 278.724C199.732 279.439 203.31 286.676 209.432 284.449C212.772 287.63 216.509 283.495 220.484 286.517C229.549 285.722 237.977 287.789 246.961 283.733C261.033 284.99 275.099 281.276 286.717 273.237C288.625 272.839 292.839 273.793 292.601 275.861C291.17 286.755 279.243 286.835 272.167 290.493C256.741 289.459 245.212 294.071 229.946 290.97C223.516 293.25 216.498 293.25 210.068 290.97C207.589 288.444 204.646 286.42 201.402 285.006C199.97 287.312 195.677 288.982 193.45 292.083C191.224 295.185 194.405 299.161 190.35 298.763C222.154 313.236 256.662 305.284 289.023 298.763C298.564 297.252 303.414 289.459 312.876 288.584C313.831 287.12 315.141 285.921 316.684 285.101C318.228 284.28 319.954 283.865 321.702 283.893C326.075 274.271 339.353 274.509 343.886 265.523C345.158 265.523 348.1 266.557 346.509 268.227C343.279 273.932 338.908 278.91 333.668 282.851C328.429 286.791 322.434 289.609 316.057 291.129C308.926 299.691 299.024 305.486 288.069 307.511C276.44 312.191 264.155 315.035 251.653 315.94C237.696 317.087 223.646 316.095 209.989 312.998C206.808 313.713 203.31 312.6 204.026 315.701L201.72 320.155L212.772 324.926C222.689 326.894 232.833 327.456 242.906 326.596C245.692 327.535 248.708 327.535 251.494 326.596C258.809 326.596 265.329 323.415 272.326 325.085C278.925 325.085 283.855 320.473 290.057 321.666L300.313 317.292C309.378 310.612 319.953 313.395 328.54 304.807C338.002 299.956 343.408 286.119 355.812 285.324C355.578 288.292 354.623 291.158 353.029 293.674V293.356ZM403.757 186.399C404.384 187.767 404.513 189.311 404.121 190.763C403.729 192.216 402.841 193.485 401.611 194.351C405.984 202.303 393.023 208.904 390.081 216.22C382.13 225.285 383.562 239.519 371.555 244.927C366.785 247.312 367.659 253.754 362.253 256.299C361.837 256.936 361.29 257.476 360.647 257.884C360.005 258.292 359.283 258.558 358.53 258.663C357.777 258.769 357.01 258.711 356.28 258.496C355.551 258.28 354.876 257.91 354.301 257.412C353.275 254.025 353.618 250.37 355.256 247.233C356.389 245.965 357.813 244.991 359.406 244.395C360.999 243.8 362.712 243.6 364.399 243.814C364.183 239.577 365.295 235.379 367.58 231.806C377.678 226.796 378.95 215.265 384.436 207.393C387.458 203.417 392.387 203.655 390.559 196.737C388.73 189.818 401.213 188.307 396.204 180.832C397.022 178.856 398.3 177.103 399.932 175.72C401.564 174.337 403.502 173.363 405.586 172.88C409.482 172.88 408.846 175.425 410.834 178.288C410.755 180.244 410.011 182.115 408.724 183.59C407.437 185.065 405.685 186.056 403.757 186.399ZM415.923 164.451C413.14 163.735 411.152 166.837 408.449 163.497C408.855 161.102 409.885 158.857 411.434 156.986C412.983 155.116 414.998 153.686 417.274 152.841C418.508 153.073 419.612 153.752 420.375 154.749C420.562 156.65 420.25 158.568 419.469 160.311C418.688 162.054 417.466 163.563 415.923 164.689V164.451ZM427.372 119.441C426.895 120.237 425.782 121.112 424.828 119.998C423.874 118.885 425.623 117.851 426.736 116.897C427.134 117.692 428.485 118.805 427.134 119.76L427.372 119.441ZM435.323 75.9431C434.912 77.9298 434.244 79.8545 433.336 81.6687C433.683 80.7132 433.799 79.6892 433.674 78.6803C433.55 77.6713 433.189 76.7062 432.62 75.8637L426.816 79.2035C425.218 79.4379 423.592 79.0484 422.275 78.1156C420.957 77.1827 420.049 75.7784 419.739 74.1938C421.647 71.0925 422.363 65.6053 427.69 65.7643C429.432 65.8441 431.1 66.4947 432.436 67.6155C433.772 68.7363 434.703 70.2652 435.085 71.967C436.595 73.955 433.017 75.0684 435.085 76.2612L435.323 75.9431ZM491.617 150.932C493.764 151.728 494.877 150.932 496.149 153.238C494.48 160.236 490.981 153.795 488.198 159.68C487.869 159.788 487.52 159.822 487.176 159.782C486.832 159.741 486.5 159.626 486.205 159.444C485.91 159.263 485.658 159.019 485.467 158.73C485.276 158.441 485.149 158.114 485.097 157.771C485.448 156.201 486.229 154.759 487.352 153.608C488.475 152.456 489.897 151.64 491.458 151.25L491.617 150.932ZM460.767 212.243C465.697 207.79 464.902 201.349 468.718 196.339C465.299 195.782 466.174 191.011 466.969 188.784C467.312 186.31 468.414 184.002 470.123 182.179C471.831 180.357 474.063 179.108 476.51 178.606C476.433 176.875 476.029 175.175 475.317 173.596C475.663 172.455 476.261 171.406 477.067 170.527C477.873 169.648 478.867 168.962 479.974 168.519C481.081 168.076 482.273 167.888 483.463 167.968C484.653 168.049 485.809 168.396 486.847 168.984C492.81 174.868 481.36 176.936 482.553 181.866C479.054 186.637 478.577 193.397 473.489 197.214C473.011 198.009 473.489 199.202 473.966 199.122C471.899 201.588 473.966 207.075 469.911 207.075V208.347C470.34 214.835 468.262 221.24 464.106 226.239C455.599 229.5 457.904 242.144 448.204 243.734L447.011 241.348L460.767 212.243ZM204.503 431.167C201.243 431.167 198.539 431.167 199.414 426.396C203.866 422.738 208.319 424.964 212.851 424.646C216.166 421.242 220.666 419.248 225.414 419.08C227.109 418.672 228.89 418.832 230.485 419.536C232.08 420.24 233.399 421.449 234.24 422.976C233.922 439.517 212.851 428.543 204.503 431.167ZM256.9 429.02C253.935 429.354 250.947 428.621 248.472 426.952C247.28 421.942 255.787 421.306 257.775 424.169C258.729 423.851 259.127 428.384 256.662 429.02H256.9ZM243.94 413.116C241.999 412.155 239.863 411.656 237.698 411.656C235.533 411.656 233.397 412.155 231.457 413.116C230.272 412.906 229.191 412.308 228.384 411.415C227.578 410.522 227.092 409.385 227.004 408.185C226.959 407.397 227.08 406.608 227.358 405.869C227.637 405.13 228.067 404.458 228.622 403.896C229.176 403.334 229.842 402.895 230.577 402.606C231.312 402.317 232.099 402.186 232.888 402.221C236.784 402.221 243.224 401.187 244.974 406.038C247.366 404.295 250.169 403.202 253.11 402.868C256.051 402.533 259.028 402.968 261.751 404.13C261.83 411.286 251.017 410.412 243.622 412.797L243.94 413.116ZM277.255 422.658C276.565 423.624 275.544 424.304 274.387 424.567C273.229 424.831 272.014 424.661 270.974 424.09C268.986 421.227 266.919 424.089 264.533 424.885C263.579 423.771 264.533 422.897 265.17 422.102C267.475 423.533 268.827 420.59 270.656 420.193C272.087 421.465 278.289 417.012 276.937 422.34L277.255 422.658ZM278.05 405.958C275.947 406.905 273.622 407.25 271.334 406.955C269.047 406.66 266.885 405.737 265.09 404.288C266.76 397.291 276.778 397.609 282.026 400.392C281.881 401.596 281.391 402.731 280.615 403.663C279.839 404.594 278.81 405.281 277.653 405.64L278.05 405.958ZM218.417 471.325C218.015 471.651 217.551 471.892 217.053 472.033C216.555 472.174 216.033 472.212 215.52 472.145C215.007 472.078 214.513 471.907 214.068 471.643C213.623 471.379 213.236 471.028 212.931 470.61C212.852 470.168 212.879 469.713 213.008 469.284C213.138 468.854 213.367 468.46 213.676 468.135C213.986 467.81 214.368 467.562 214.791 467.412C215.214 467.262 215.666 467.213 216.111 467.27C217.781 467.031 219.61 469.258 218.02 471.007L218.417 471.325ZM153.456 527.945C150.514 526.673 146.221 527.945 145.505 523.889C146.161 522.359 147.347 521.117 148.845 520.39C151.12 519.869 153.482 519.856 155.763 520.351C158.044 520.845 160.189 521.836 162.044 523.253L163.634 521.583C167.848 522.617 175.083 519.595 176.356 525.241C170.949 533.432 161.089 525.082 153.059 527.627L153.456 527.945ZM215.077 559.754C213.805 559.754 211.659 559.197 211.977 557.845C212.194 557.403 212.505 557.015 212.89 556.708C213.274 556.401 213.722 556.183 214.2 556.069C214.679 555.955 215.177 555.948 215.658 556.049C216.14 556.15 216.593 556.356 216.986 556.652L215.077 559.754ZM257.457 568.501C255.472 568.413 253.536 567.855 251.808 566.874C250.081 565.892 248.61 564.515 247.518 562.855C246.803 559.754 249.904 558.958 251.812 558.561C256.821 557.368 257.854 561.821 261.114 564.366C261.017 565.379 260.549 566.32 259.801 567.009C259.053 567.699 258.077 568.088 257.059 568.103L257.457 568.501ZM342.136 551.563C337.852 553.963 333.874 556.874 330.289 560.231C328.281 559.907 326.436 558.929 325.041 557.447C323.054 548.7 332.436 552.438 336.889 548.78C338.558 549.018 342.454 548.78 341.818 551.563H342.136ZM336.809 536.931C335.477 536.912 334.189 536.448 333.151 535.612C332.114 534.776 331.386 533.616 331.084 532.319L329.335 533.352C327.328 532.238 325.071 531.654 322.775 531.654C320.48 531.654 318.222 532.238 316.216 533.352C310.809 544.485 299.28 543.213 288.546 548.302C286.797 549.336 280.595 552.676 279.323 548.302C280.638 544.333 283.033 540.808 286.24 538.124C286.876 526.752 298.962 533.193 304.687 529.217C314.069 512.518 330.051 527.309 344.442 521.265C352.632 517.296 361.463 514.818 370.522 513.949C376.273 509.381 383.132 506.418 390.4 505.361C397.934 498.904 406.777 494.157 416.32 491.444C423.079 489.218 427.293 481.663 436.675 482.14C437.222 482.993 437.45 484.01 437.319 485.014C437.188 486.018 436.706 486.944 435.959 487.627C426.247 492.866 417.038 498.989 408.449 505.917C400.497 509.814 391.036 510.609 384.595 517.368C374.736 517.368 365.035 527.15 353.983 525.321C345.396 526.911 343.647 533.909 336.411 536.931H336.809ZM408.369 462.896C411.629 462.896 415.525 465.202 417.036 460.272C419.898 458.284 422.761 456.296 424.987 458.999L426.1 458.045C425.464 449.616 434.767 446.753 440.333 442.141C440.568 442.342 440.756 442.592 440.886 442.874C441.015 443.155 441.082 443.461 441.082 443.771C441.082 444.081 441.015 444.387 440.886 444.668C440.756 444.95 440.568 445.2 440.333 445.401C431.348 449.457 431.189 460.113 423.874 465.759C423.079 467.906 418.706 466.315 418.785 469.576C405.507 477.926 392.944 489.456 376.644 490.57C363.127 500.987 346.589 500.828 332.436 508.065C330.917 508.644 329.247 508.7 327.692 508.225C326.137 507.75 324.785 506.77 323.849 505.44C325.017 504.04 326.493 502.931 328.163 502.2C329.832 501.468 331.649 501.135 333.47 501.226C338.161 492.876 350.485 494.625 358.277 494.148L367.659 486.196C371.812 484.608 375.783 482.582 379.507 480.152C391.91 476.494 397.396 465.918 407.971 462.896H408.369ZM402.883 440.869C401.849 436.495 409.562 432.916 411.867 436.813C412.077 437.338 412.169 437.902 412.139 438.466C412.108 439.031 411.955 439.582 411.69 440.081C411.426 440.581 411.055 441.016 410.605 441.358C410.155 441.7 409.637 441.94 409.085 442.061C408.024 442.297 406.927 442.312 405.86 442.107C404.794 441.902 403.78 441.48 402.883 440.869V440.869ZM422.045 374.945C421.539 375.353 420.953 375.652 420.325 375.822C419.698 375.992 419.042 376.029 418.399 375.932C417.756 375.835 417.14 375.605 416.59 375.257C416.041 374.909 415.57 374.451 415.207 373.911C415.718 371.548 416.909 369.386 418.632 367.691C420.356 365.996 422.537 364.841 424.907 364.369C425.969 364.156 427.071 364.316 428.028 364.824C428.984 365.331 429.736 366.154 430.155 367.152C429.542 369.014 428.483 370.699 427.069 372.057C425.655 373.416 423.93 374.407 422.045 374.945V374.945ZM443.036 382.022C443.37 382.617 443.546 383.288 443.546 383.971C443.546 384.653 443.37 385.324 443.036 385.919C437.788 389.1 438.981 393.871 432.7 395.541C431.268 395.541 427.054 396.814 426.338 393.712L426.975 390.929C430.954 385.969 436.722 382.771 443.036 382.022ZM531.293 409.298C525.568 413.274 527.079 419.557 523.342 423.692L524.376 425.441C518.253 442.061 501 447.389 496.308 464.328C495.513 465.779 494.37 467.01 492.983 467.912C491.595 468.814 490.006 469.359 488.357 469.496L489.947 470.451C484.081 474.024 478.865 478.568 474.522 483.89L475.476 485.003C473.714 488.787 470.673 491.829 466.889 493.591C462.119 507.269 450.192 507.349 439.617 513.074C434.362 517.086 428.746 520.6 422.84 523.571C416.718 525.639 414.412 532.796 407.813 532.955C401.293 530.489 398.669 539.078 392.387 540.509C389.392 541.977 386.102 542.74 382.767 542.74C379.431 542.74 376.14 541.977 373.146 540.509L372.669 541.305C372.579 541.993 372.671 542.693 372.936 543.335C373.201 543.977 373.63 544.538 374.179 544.962C371.164 547.45 367.612 549.204 363.805 550.087C359.997 550.97 356.036 550.958 352.234 550.052C352.711 549.257 353.665 547.746 351.678 547.507C353.116 544.902 355.222 542.725 357.779 541.202C360.336 539.679 363.252 538.864 366.228 538.839C372.032 544.088 373.305 535.181 379.427 535.818C380.779 538.839 383.641 534.148 385.231 535.102C385.733 534.741 386.075 534.199 386.185 533.591L406.938 528.82C408.078 526.184 409.85 523.869 412.096 522.08C414.342 520.291 416.995 519.082 419.819 518.561C421.965 513.472 431.268 516.573 431.745 509.893C442.718 500.112 456.712 494.864 465.697 482.22C468.639 469.019 481.599 463.294 491.776 457.648C499.25 449.695 504.18 439.596 510.859 431.405C511.972 421.863 520.241 414.706 524.296 406.515C527.159 404.527 528.749 402.857 531.85 404.766C532.161 405.473 532.259 406.257 532.132 407.019C532.005 407.782 531.658 408.491 531.134 409.06L531.293 409.298ZM464.583 424.01C466.571 418.284 473.409 419.318 477.067 417.807C486.21 414.388 492.969 404.925 500.92 399.756C502.828 399.358 502.59 401.346 502.113 402.141C508.076 410.73 498.535 418.046 494.798 424.964C489.311 432.916 490.504 446.435 478.895 448.821C471.978 444.447 483.427 439.835 483.984 433.712C485.177 430.133 480.963 426.475 483.11 424.01H482.473C481.836 424.211 481.292 424.636 480.942 425.205C480.591 425.775 480.458 426.451 480.565 427.111C477.905 428.111 475.55 429.782 473.727 431.962C471.156 433.57 468.258 434.583 465.246 434.926C462.233 435.27 459.182 434.937 456.314 433.95C455.048 435.111 453.468 435.874 451.771 436.143C450.074 436.411 448.336 436.174 446.773 435.461L448.443 431.087C451.623 427.668 451.544 430.372 455.201 428.861C460.131 424.407 463.152 432.916 466.969 425.441L464.583 424.01ZM448.681 465.441C450.589 462.339 452.577 465.441 453.69 466.952C453.69 470.212 449.079 469.974 449.953 473.791C449.12 474.948 447.895 475.764 446.506 476.086C445.116 476.407 443.657 476.213 442.4 475.54C441.753 474.554 441.515 473.355 441.738 472.197C441.961 471.039 442.626 470.013 443.593 469.337C445.421 467.429 448.443 469.417 448.204 465.441H448.681ZM518.89 371.207C519.947 369.929 521.434 369.078 523.073 368.815C524.711 368.552 526.389 368.893 527.795 369.776C530.657 376.376 521.911 375.74 519.844 379.478C518.968 382.37 517.486 385.042 515.499 387.318C513.511 389.594 511.062 391.421 508.314 392.678C505.293 394.03 504.419 390.293 504.498 387.589C504.578 384.885 508.791 383.295 509.507 380.512C511.574 376.138 516.902 376.217 518.412 371.207H518.89ZM511.654 339.796C511.654 336.536 517.379 333.196 517.776 337.729C517.793 338.36 517.673 338.987 517.424 339.567C517.176 340.147 516.804 340.667 516.336 341.09C515.868 341.513 515.313 341.83 514.711 342.018C514.109 342.207 513.473 342.263 512.847 342.182L511.654 339.796ZM551.966 331.129C552.551 333.224 552.819 335.395 552.761 337.57C543.14 341.785 545.208 356.496 533.758 358.484C533.026 358.429 532.316 358.206 531.685 357.831C531.053 357.457 530.517 356.942 530.117 356.326C529.717 355.711 529.464 355.011 529.378 354.282C529.293 353.553 529.377 352.814 529.624 352.122C531.95 350.921 534.369 349.91 536.859 349.1C535.984 345.363 542.584 345.124 539.165 341.943C539.502 338.936 540.955 336.164 543.237 334.176C545.519 332.189 548.464 331.129 551.489 331.208L551.966 331.129ZM510.143 284.529C510.143 273.237 520.559 263.615 519.207 252.004C517.181 251.266 515.337 250.1 513.801 248.585C514.476 247.63 515.353 246.835 516.37 246.258C517.387 245.681 518.519 245.335 519.685 245.245C522.865 241.905 529.067 237.293 527.159 231.647C528.351 225.444 523.501 224.569 520.48 219.957C521.036 216.538 523.501 218.605 525.966 218.049C528.003 215.68 530.826 214.127 533.917 213.675C537.893 208.108 540.358 212.88 545.208 211.051C545.948 211.294 546.614 211.723 547.14 212.299C547.666 212.874 548.035 213.575 548.21 214.335C548.386 215.094 548.363 215.887 548.144 216.635C547.924 217.383 547.515 218.061 546.957 218.605C545.845 219.247 544.583 219.585 543.299 219.585C542.015 219.585 540.754 219.247 539.642 218.605C534.712 223.058 537.893 230.931 537.893 236.895C537.893 240.951 534.315 244.37 536.461 247.79C528.804 262.142 522.059 276.962 516.266 292.163C511.892 293.197 506.486 295.741 505.85 289.936C505.691 287.551 505.929 282.859 509.666 284.608L510.143 284.529ZM507.997 352.52C507.185 353.855 505.998 354.922 504.584 355.587C503.17 356.251 501.591 356.485 500.045 356.257L498.694 353.395C498.704 352.29 499.124 351.229 499.873 350.417C500.622 349.605 501.646 349.1 502.747 349.001C503.847 348.902 504.944 349.215 505.826 349.88C506.708 350.545 507.312 351.514 507.519 352.599L507.997 352.52ZM498.773 363.892C498.584 364.898 498.172 365.849 497.567 366.675C496.961 367.501 496.178 368.18 495.275 368.663C494.718 368.891 494.12 369.004 493.517 368.995C492.915 368.986 492.321 368.855 491.771 368.61C491.221 368.365 490.727 368.01 490.318 367.568C489.909 367.126 489.593 366.606 489.391 366.039C489.636 364.87 490.246 363.81 491.132 363.01C492.017 362.21 493.134 361.711 494.321 361.585C495.911 362.54 497.501 360.87 498.217 363.971L498.773 363.892ZM497.263 317.292C497.731 318.216 497.974 319.238 497.974 320.274C497.974 321.31 497.731 322.331 497.263 323.256C496.758 324.098 496.076 324.819 495.264 325.371C494.452 325.923 493.529 326.291 492.561 326.449C491.592 326.608 490.601 326.554 489.655 326.291C488.709 326.028 487.832 325.562 487.085 324.926L486.37 321.824C489.311 319.757 491.14 313.634 496.706 317.371L497.263 317.292ZM474.84 306.477C475.702 306.493 476.527 306.826 477.158 307.413C477.789 308 478.181 308.799 478.259 309.658C477.967 310.483 477.43 311.2 476.72 311.712C476.009 312.223 475.159 312.505 474.284 312.52C472.852 312.52 470.865 311.964 471.024 309.976C471.193 309.057 471.657 308.218 472.345 307.586C473.034 306.955 473.91 306.565 474.84 306.477ZM468.877 349.498C472.865 345.185 475.756 339.976 477.305 334.309C480.406 333.594 481.758 328.027 485.256 331.208C492.174 338.206 478.657 340.035 478.1 346.078L480.406 347.51C483.905 351.327 481.042 353.315 479.929 356.894C475.795 361.824 471.262 359.518 465.458 362.858L466.492 364.607C465.565 366.28 464.065 367.563 462.269 368.22C460.473 368.878 458.5 368.865 456.712 368.186C453.213 361.744 459.813 358.882 462.914 354.826C465.14 352.44 471.024 355.064 469.116 349.577L468.877 349.498ZM455.837 329.538C457.745 326.437 461.8 326.834 461.562 322.938C462.675 321.984 465.856 321.268 465.617 322.938C463.868 326.675 468.002 330.333 464.663 333.117C463.736 334.622 462.333 335.776 460.677 336.395C459.021 337.014 457.206 337.064 455.519 336.536C454.85 335.477 454.522 334.238 454.579 332.987C454.636 331.736 455.075 330.532 455.837 329.538ZM455.837 397.052C457.586 396.018 462.039 392.281 463.391 395.302C463.865 395.455 464.38 395.415 464.826 395.192C465.272 394.969 465.613 394.581 465.776 394.11C466.253 393.314 464.663 392.36 464.901 390.372C465.82 387.435 467.571 384.827 469.942 382.865C472.313 380.903 475.202 379.671 478.259 379.319C478.943 377.206 480.145 375.298 481.757 373.77C483.368 372.241 485.336 371.142 487.483 370.571C489.868 369.379 489.788 372.003 490.743 373.116C490.346 374.62 489.516 375.975 488.357 377.013C481.36 389.895 472.455 402.539 456.553 406.118C445.024 413.434 440.651 432.28 424.748 431.326C419.183 421.386 435.005 415.422 439.06 410.173C441.684 412.877 442.718 408.662 444.547 408.265C443.036 401.108 452.577 401.108 455.599 396.973L455.837 397.052ZM429.598 300.592C433.256 305.045 426.498 307.272 426.1 311.328C422.92 314.667 419.978 310.771 419.262 307.59C421.647 304.25 423.794 299.161 429.36 300.513L429.598 300.592ZM383.8 380.114C370.283 390.531 351.996 394.746 339.433 405.561C322.099 410.889 308.424 425.918 291.17 422.658C290.584 422.754 289.984 422.71 289.419 422.528C288.854 422.346 288.341 422.032 287.921 421.613C287.501 421.193 287.188 420.68 287.006 420.115C286.825 419.55 286.78 418.95 286.876 418.364C287.592 412.877 294.827 413.99 297.928 411.843C312.24 413.831 326.393 403.255 339.433 396.973L351.519 392.201C354.699 388.782 359.47 386.396 362.65 383.056C370.204 381.307 375.849 371.446 383.164 374.388C383.629 375.219 383.9 376.145 383.955 377.095C384.01 378.046 383.848 378.996 383.482 379.875L383.8 380.114ZM385.39 352.599C372.987 356.098 364.161 369.379 351.36 374.309C332.754 382.261 314.466 400.71 291.965 398.165C291.602 397.954 291.286 397.67 291.036 397.332C290.786 396.994 290.607 396.609 290.51 396.2C290.413 395.791 290.401 395.367 290.473 394.953C290.546 394.539 290.701 394.144 290.931 393.792C297.73 391.256 304.322 388.198 310.65 384.647C319.476 379.955 329.653 378.285 336.809 372.003L361.855 360.233C368.932 350.691 381.733 349.021 385.708 337.57C389.366 327.471 399.861 324.369 407.415 319.995C409.959 319.439 409.244 322.222 410.675 322.54C405.427 334.468 389.445 339.478 385.152 352.361L385.39 352.599ZM398.192 370.81C395.409 370.094 391.592 370.81 391.513 367.708C391.513 365.617 392.102 363.568 393.213 361.795C394.324 360.023 395.912 358.6 397.794 357.689C400.351 357.663 402.865 357.02 405.121 355.816C407.377 354.612 409.31 352.881 410.754 350.77C410.88 348.861 411.476 347.013 412.489 345.39C413.501 343.767 414.9 342.419 416.559 341.466C418.467 338.365 424.987 340.83 423.397 336.616C423.845 335.941 424.489 335.419 425.242 335.121C425.996 334.823 426.822 334.761 427.611 334.946C428.485 330.095 431.189 327.471 431.586 323.415C433.795 321.904 436.492 321.279 439.14 321.666L438.424 318.564C438.535 317.865 438.79 317.197 439.174 316.602C439.558 316.007 440.061 315.499 440.652 315.11C441.243 314.721 441.909 314.459 442.607 314.342C443.305 314.225 444.02 314.254 444.706 314.429C445.658 315.13 446.326 316.151 446.589 317.304C446.852 318.457 446.692 319.667 446.137 320.711C445.734 321.195 445.229 321.585 444.659 321.852C444.089 322.119 443.467 322.258 442.837 322.258C442.207 322.258 441.585 322.119 441.015 321.852C440.445 321.585 439.94 321.195 439.537 320.711C438.345 324.29 441.684 324.21 440.969 326.993C441.194 328.808 440.787 330.645 439.817 332.195C438.847 333.745 437.372 334.913 435.641 335.502C430.473 336.059 430.155 343.454 424.669 345.283C423.614 348.208 421.883 350.842 419.617 352.97C417.351 355.099 414.614 356.661 411.629 357.53C408.848 363.425 403.973 368.074 397.953 370.571L398.192 370.81ZM379.427 427.191C386.691 425.105 392.906 420.364 396.84 413.911C398.112 410.968 402.326 412.002 401.77 409.457C403.46 408.422 405.444 407.975 407.415 408.185C413.855 413.275 403.678 417.648 404.155 422.817C402.312 425.295 399.913 427.306 397.151 428.687C394.389 430.069 391.341 430.782 388.253 430.769C388.242 431.469 388.094 432.16 387.817 432.802C387.54 433.445 387.138 434.026 386.636 434.514C386.134 435.001 385.541 435.385 384.891 435.643C384.24 435.901 383.546 436.028 382.846 436.018C381.069 437.157 378.955 437.653 376.856 437.421C374.758 437.189 372.803 436.245 371.317 434.745C371.912 432.899 372.97 431.235 374.389 429.913C375.809 428.591 377.543 427.653 379.427 427.191V427.191ZM298.485 460.431C301.413 457.608 305.311 456.014 309.378 455.978C311.152 454.071 313.382 452.647 315.858 451.84C318.334 451.034 320.974 450.87 323.531 451.365C329.529 451.846 335.481 449.994 340.148 446.197C341.973 446.32 343.8 446.001 345.475 445.267C347.149 444.533 348.623 443.406 349.769 441.982C354.416 439.316 359.903 438.519 365.115 439.755C364.002 449.298 350.644 445.719 345.396 451.604C345.156 452.488 344.669 453.286 343.994 453.905C343.318 454.525 342.481 454.94 341.58 455.103C333.629 462.18 326.393 457.966 318.84 459.715C315.341 464.486 307.469 464.964 300.552 466.554C299.479 465.977 298.654 465.029 298.229 463.888C297.805 462.746 297.811 461.489 298.246 460.351L298.485 460.431ZM279.561 461.465C282.98 462.021 286.478 459.874 289.182 463.214C289.182 464.486 290.375 465.6 289.182 466.475C286.072 468.151 282.618 469.087 279.088 469.211C275.558 469.335 272.047 468.644 268.827 467.19C269.384 458.443 277.335 467.19 279.323 461.465H279.561ZM241.793 515.778C239.806 515.778 232.729 513.87 235.91 510.53C239.83 508.646 244.123 507.668 248.472 507.667C258.888 503.929 272.326 512.04 282.264 505.122C285.683 497.17 273.2 497.17 273.439 489.934C278.687 484.128 284.332 485.48 291.567 482.458C305.243 487.23 316.772 479.914 327.824 473.393C340.467 467.826 349.69 467.667 365.433 461.385C368.996 457.877 373.497 455.475 378.393 454.467C379.739 452.425 381.687 450.853 383.967 449.97C386.247 449.086 388.745 448.934 391.115 449.536C391.889 450.083 392.437 450.894 392.657 451.816C392.876 452.738 392.752 453.709 392.308 454.546C384.357 455.819 381.892 466.872 372.669 467.031C360.662 472.439 347.225 480.152 336.173 480.788C325.359 482.617 323.451 494.307 316.375 501.226L318.442 507.349C312.24 514.744 303.494 514.108 294.589 512.836C277.184 516.46 259.334 517.452 241.634 515.778H241.793Z" fill="#76B057"/>
</svg>
