<svg width="378" height="154" viewBox="0 0 378 154" fill="none" xmlns="http://www.w3.org/2000/svg">
<g clip-path="url(#clip0)">
<path fill-rule="evenodd" clip-rule="evenodd" d="M332.628 106.712C332.833 120.48 331.412 134.387 336.04 147.776C336.85 150.121 336.018 150.676 333.804 150.638C328.644 150.546 323.482 150.613 318.321 150.605C313.913 150.597 312.503 146.974 311.103 143.958C309.526 140.563 308.483 140.405 305.636 142.851C294.176 152.688 281.01 155.668 266.496 151.195C253.493 147.189 245.389 136.163 244.914 122.491C244.376 107.009 250.978 96.274 264.301 90.828C274.795 86.538 285.791 86.946 296.787 87.153C299.182 87.198 299.319 88.449 299.243 90.41C298.896 99.379 294.281 104.893 285.357 106.778C282.76 107.326 280.099 107.695 277.596 108.531C272.813 110.129 269.484 113.277 269.17 118.566C268.859 123.786 270.982 128.049 275.54 130.733C285.406 136.539 299.758 131.453 306.706 123.379C307.362 122.616 307.463 121.192 307.465 120.074C307.491 108.426 307.661 96.772 307.359 85.13C307.046 73.094 300.581 66.802 288.279 66C277.623 65.305 267.404 67.553 257.488 71.165C254.158 72.378 252.838 72.014 253.25 68.269C253.412 66.789 253.276 65.276 253.276 63.778C253.276 52.572 253.219 52.364 263.811 49.418C277.301 45.666 290.996 44.582 304.745 48.053C323.029 52.668 332.562 64.951 332.625 83.746C332.65 91.401 332.629 99.056 332.628 106.712" fill="#8BBE26"/>
<path fill-rule="evenodd" clip-rule="evenodd" d="M63.8779 106.972C55.7149 106.972 47.5389 106.702 39.3939 107.077C34.7959 107.289 34.4459 105.367 35.2939 101.784C37.0679 94.264 42.5119 89.078 50.5889 88.024C55.0239 87.444 59.5529 87.458 64.0399 87.436C66.5849 87.422 67.5099 86.716 67.3269 83.962C66.7519 75.278 60.8399 67.589 53.1869 66.032C43.5949 64.082 34.9029 67.97 31.1839 76.544C25.2169 90.3 25.3889 104.421 30.1919 118.444C33.0339 126.743 39.9279 130.334 48.0049 131.962C60.7869 134.535 73.2249 132.301 85.4369 128.658C89.1289 127.556 90.2349 128.19 89.9099 131.966C89.6829 134.611 89.8659 137.291 89.8659 139.955C89.8659 147.76 89.8859 147.838 82.1499 149.709C67.4239 153.272 52.5599 154.641 37.6149 151.335C17.5199 146.89 5.26289 134.07 1.95089 113.764C-0.484106 98.834 0.593894 84.232 7.80189 70.52C19.9589 47.395 51.0619 38.614 73.3839 52.214C86.1739 60.006 90.9399 72.602 92.7939 86.617C93.4689 91.714 93.4839 96.884 93.4639 102.06C93.4489 106.437 91.7679 107.203 87.8639 107.06C79.8789 106.764 71.8749 106.97 63.8779 106.97V106.972ZM177.935 81.922C188.435 71.645 198.481 61.972 208.308 52.084C210.721 49.654 213.088 48.486 216.563 48.584C224.849 48.82 233.147 48.661 241.598 48.661C241.325 51.089 239.495 51.891 238.266 53.061C219.354 71.1 200.436 89.131 181.404 107.041C178.904 109.394 177.777 111.741 177.852 115.228C178.082 125.708 177.832 136.2 178 146.684C178.048 149.719 177.18 150.784 174.08 150.664C168.422 150.444 162.758 150.444 157.1 150.664C153.852 150.792 152.855 149.802 152.9 146.46C153.091 132.315 152.982 118.165 152.982 104.017C152.982 71.06 153.058 38.103 152.883 5.14701C152.861 1.11501 154.018 -0.0129944 157.903 0.229006C163.045 0.548006 168.238 0.568006 173.378 0.222006C177.274 -0.0399944 178.042 1.39501 178.018 5.02801C177.859 29.495 177.935 53.964 177.935 78.432V81.922V81.922ZM134.186 99.473C134.186 114.953 134.078 130.433 134.264 145.911C134.309 149.623 133.62 151.27 129.442 150.978C123.808 150.585 118.124 150.808 112.465 150.915C110.134 150.959 108.823 150.647 108.831 147.753C108.918 115.795 108.915 83.837 108.831 51.88C108.824 49.108 109.937 48.56 112.373 48.61C118.364 48.732 124.367 48.812 130.353 48.582C133.465 48.462 134.281 49.492 134.253 52.535C134.108 68.181 134.186 83.827 134.186 99.473" fill="#8BBE25"/>
<path fill-rule="evenodd" clip-rule="evenodd" d="M244.873 150.605C234.928 150.605 226.313 150.559 217.701 150.639C215.671 150.657 214.774 149.476 213.853 148.024C208.956 140.305 203.856 132.708 199.148 124.875C193.311 115.167 194.677 104.025 202.316 95.917C203.442 94.72 204.321 93.049 206.021 95.472C218.702 113.538 231.441 131.56 244.873 150.605ZM362.543 120.482C370.684 120.566 377.513 127.362 377.575 135.44C377.639 143.604 370.422 150.787 362.265 150.677C353.98 150.567 346.984 143.342 347.248 135.17C347.512 127.041 354.429 120.398 362.543 120.482" fill="#8BBE26"/>
</g>
<defs>
<clipPath id="clip0">
<rect width="378" height="154" fill="white"/>
</clipPath>
</defs>
</svg>
