<svg width="719" height="283" viewBox="0 0 719 283" fill="none" xmlns="http://www.w3.org/2000/svg">
<path fill-rule="evenodd" clip-rule="evenodd" d="M1.19206 161.321C0.33358 160.878 -0.663365 159.937 0.596663 158.441C12.5185 144.277 119.289 42.4383 274.798 11.7275C420.186 -16.9756 569.478 6.05057 716.278 91.6475C718.979 93.1152 719.782 100.717 710.255 97.1029C659.785 77.8983 546.133 11.0352 379.242 39.1152C352.269 44.6537 309.276 51.2167 260.495 75.1152C238.368 86.0121 213.527 100.869 161.451 137.16C72.1136 199.412 14.1939 168.037 1.19206 161.321" fill="#D3253E"/>
<path fill-rule="evenodd" clip-rule="evenodd" d="M365.906 142.851C365.449 142.463 365.297 141.771 366.128 140.995C374.615 134.072 416.252 99.1523 495.481 91.4815C547.959 86.3584 618.95 91.343 671.788 116.931C676.828 120.129 675.859 124.643 668.88 122.262C642.738 112.362 586.175 102.655 544.068 110.298C531.911 111.392 504.44 117.457 489.209 123.272C478.838 127.232 466.002 132.245 442.851 144.346C402.391 165.503 372.469 146.769 365.906 142.851V142.851ZM552.404 217.412C553.29 218.008 552.764 218.797 552.681 218.88C545.661 225.014 498.5 265.071 400.951 277.892C332.619 286.865 242.963 284.663 170.823 247.846C168.234 246.683 166.905 241.989 174.714 244.135C202.615 251.543 269.715 270.415 348.224 259.726C362.957 257.871 395.662 250.172 413.386 243.526C425.515 238.985 437.991 234.72 464.022 220.763C509.134 196.657 545.19 214.117 552.404 217.412" fill="#D3253E"/>
</svg>
