<svg width="708" height="704" viewBox="0 0 708 704" fill="none" xmlns="http://www.w3.org/2000/svg">
<ellipse cx="354" cy="352" rx="354" ry="348" fill="white"/>
<path d="M515.69 538.999L504.036 520.547L494.324 537.057L515.69 538.999ZM491.411 475.873L504.036 499.181H505.007L516.661 476.844V475.873H491.411ZM481.699 480.729L482.671 534.143L497.238 509.864V508.893L481.699 480.729ZM529.287 536.085V478.786L511.806 509.864V510.835L529.287 536.085ZM447.708 331.169C447.708 340.88 447.708 356.419 447.708 356.419L455.478 370.015C458.391 373.9 477.815 468.104 477.815 468.104L502.094 455.478C500.152 452.565 498.209 448.68 498.209 443.824C498.209 441.882 498.209 439.94 499.18 438.969C498.209 438.969 492.382 437.997 491.411 436.055C490.44 434.113 489.469 414.689 492.382 409.833C492.382 408.862 491.411 407.891 490.44 406.92C486.555 402.064 472.959 386.525 472.959 383.612C472.959 381.67 475.872 377.785 475.872 377.785L447.708 331.169ZM320.485 611.837C320.485 609.894 317.572 587.557 316.601 581.73C290.379 579.788 277.754 576.875 274.84 572.99C270.956 568.134 304.947 363.217 307.86 359.333C309.802 357.39 317.572 350.592 318.543 348.65C319.514 346.707 318.543 303.976 318.543 293.293H317.572C315.629 293.293 270.956 336.996 256.388 335.053C245.705 334.082 235.022 328.255 229.195 324.371L252.503 688.559C277.754 696.328 303.975 701.184 331.168 703.127L338.937 690.501V671.078L328.255 613.779C327.283 615.721 321.456 613.779 320.485 611.837ZM357.39 0C304.946 0 255.417 11.654 210.743 32.0486L223.368 236.965C229.195 235.994 233.08 235.994 234.051 236.965C235.994 238.908 242.792 255.418 242.792 258.331C242.792 260.273 242.792 262.216 240.849 264.158C246.676 266.1 258.33 269.014 258.33 269.014C258.33 269.014 290.379 226.282 299.119 220.455C301.062 219.484 326.312 207.83 336.995 202.974C337.966 202.003 338.937 201.032 338.937 199.09C338.937 195.205 341.851 176.753 341.851 171.897C341.851 168.983 349.62 162.185 350.591 157.329C351.563 152.474 351.563 128.194 352.534 125.281C353.505 121.396 373.899 107.8 378.755 104.886C381.669 102.944 404.977 103.915 407.89 103.915C417.602 105.857 426.343 114.598 426.343 118.483C426.343 121.396 425.372 154.416 425.372 154.416C425.372 157.329 437.025 175.782 437.025 181.609C437.025 187.436 436.054 200.061 436.054 202.974C436.054 203.946 437.026 205.888 437.997 207.83C444.795 211.715 471.016 228.225 475.872 231.138C480.728 234.052 497.238 309.803 497.238 309.803L518.604 352.534C518.604 352.534 524.431 350.592 526.373 351.563C528.316 352.534 530.258 402.064 530.258 402.064C533.171 407.891 539.969 421.487 539.969 426.343C539.969 431.199 535.114 436.055 529.287 439.94C529.287 440.911 529.287 441.882 529.287 442.853C529.287 447.709 527.344 451.594 525.402 454.507C533.171 458.392 546.768 465.19 546.768 466.161C546.768 469.075 546.768 471.988 546.768 542.884C546.768 542.884 538.027 549.682 537.056 549.682C536.085 549.682 506.95 547.739 488.498 546.768C489.469 560.365 490.44 572.019 489.469 574.932C480.728 578.817 459.363 581.73 444.795 582.702C441.882 593.384 432.17 627.375 429.256 627.375C426.343 627.375 423.429 627.375 423.429 627.375C423.429 627.375 404.977 653.597 404.977 656.51C404.977 658.453 411.775 681.761 411.775 681.761L429.256 696.328C588.528 662.337 707.982 520.547 707.982 351.563C709.924 158.301 551.623 0 357.39 0Z" fill="#23509B"/>
<path d="M193.263 302.034C188.407 298.149 180.638 279.697 181.609 269.014C181.609 259.302 188.407 247.648 190.349 243.764C191.32 242.793 193.263 241.821 196.176 240.85L183.551 42.7317C73.809 102.944 0 218.513 0 352.535C0 502.095 93.2323 629.318 224.34 680.79L200.061 304.947C198.119 303.976 195.205 303.005 193.263 302.034Z" fill="#143C6E"/>
</svg>
