<svg width="238" height="238" viewBox="0 0 238 238" fill="none" xmlns="http://www.w3.org/2000/svg">
<path fill-rule="evenodd" clip-rule="evenodd" d="M0.5 118.998V237.503L76.625 237.376L152.75 237.25L152.888 205.5C152.964 188.038 152.903 173.244 152.753 172.625L152.481 171.5H109.492H66.503L66.3765 86.125L66.25 0.749996L33.375 0.621494L0.5 0.492996V118.998ZM85.8335 0.833496C85.65 1.0165 85.5 15.8665 85.5 33.8335V66.5H127.959C151.312 66.5 170.774 66.6365 171.209 66.8035C171.926 67.0785 172 75.0765 172 152.303V237.5H205H238V119.303C238 11.985 237.927 1.079 237.209 0.803497C236.125 0.387497 86.25 0.416996 85.8335 0.833496ZM85.5 119V153H118.947C148.984 153 152.424 152.919 152.697 152.209C153.092 151.18 153.08 87.6005 152.685 86.125L152.383 85H118.941H85.5V119Z" fill="#005AA0"/>
<rect x="85" y="83" width="70" height="70" fill="#E30613"/>
</svg>
