<svg width="982" height="347" viewBox="0 0 982 347" fill="none" xmlns="http://www.w3.org/2000/svg">
<rect x="22" y="50" width="939" height="248" fill="white"/>
<path fill-rule="evenodd" clip-rule="evenodd" d="M45 0.5C45 0.775 43.875 1 42.5 1C41.125 1 40 1.225 40 1.5C40 1.775 39.1 2 38 2C36.9 2 36 2.225 36 2.5C36 2.775 35.55 3 35 3C34.45 3 34 3.225 34 3.5C34 3.775 33.325 4 32.5 4C31.675 4 31 4.225 31 4.5C31 4.775 30.55 5 30 5C29.45 5 29 5.225 29 5.5C29 5.775 28.55 6 28 6C27.45 6 27 6.225 27 6.5C27 6.775 26.5995 7 26.1105 7C25.621 7 24.8965 7.45 24.5 8C24.1035 8.55 23.469 9 23.09 9C22.7115 9 21.7705 9.675 21 10.5C20.2295 11.325 19.3475 12 19.04 12C18.312 12 12 18.312 12 19.04C12 19.3475 11.325 20.2295 10.5 21C9.675 21.7705 9 22.7115 9 23.09C9 23.469 8.55 24.1035 8 24.5C7.45 24.8965 7 25.621 7 26.1105C7 26.5995 6.775 27 6.5 27C6.225 27 6 27.45 6 28C6 28.55 5.775 29 5.5 29C5.225 29 5 29.45 5 30C5 30.55 4.775 31 4.5 31C4.225 31 4 31.675 4 32.5C4 33.325 3.775 34 3.5 34C3.225 34 3 34.45 3 35C3 35.55 2.775 36 2.5 36C2.225 36 2 36.9 2 38C2 39.1 1.775 40 1.5 40C1.225 40 1 41.125 1 42.5C1 43.875 0.775 45 0.5 45C0.168 45 0 88 0 173C0 258 0.168 301 0.5 301C0.775 301 1 302.125 1 303.5C1 304.875 1.225 306 1.5 306C1.775 306 2 306.9 2 308C2 309.1 2.225 310 2.5 310C2.775 310 3 310.675 3 311.5C3 312.325 3.225 313 3.5 313C3.775 313 4 313.45 4 314C4 314.55 4.225 315 4.5 315C4.775 315 5 315.45 5 316C5 316.55 5.225 317 5.5 317C5.775 317 6 317.45 6 318C6 318.55 6.225 319 6.5 319C6.775 319 7 319.45 7 320C7 320.55 7.225 321 7.5 321C7.775 321 8 321.359 8 321.799C8 322.239 8.675 323.229 9.5 324C10.325 324.771 11 325.652 11 325.957C11 326.738 20.346 336 21.133 336C21.4885 336 22.1035 336.45 22.5 337C22.8965 337.55 23.5715 338 24 338C24.4285 338 25.1035 338.45 25.5 339C25.8965 339.55 26.621 340 27.1105 340C27.5995 340 28 340.225 28 340.5C28 340.775 28.45 341 29 341C29.55 341 30 341.225 30 341.5C30 341.775 30.45 342 31 342C31.55 342 32 342.225 32 342.5C32 342.775 32.675 343 33.5 343C34.325 343 35 343.225 35 343.5C35 343.775 35.675 344 36.5 344C37.325 344 38 344.225 38 344.5C38 344.775 38.9 345 40 345C41.1 345 42 345.225 42 345.5C42 345.8 44 346 47 346C50 346 52 346.2 52 346.5C52 346.833 198.5 347 490.5 347C782.5 347 929 346.833 929 346.5C929 346.2 931 346 934 346C937 346 939 345.8 939 345.5C939 345.225 940.125 345 941.5 345C942.875 345 944 344.775 944 344.5C944 344.225 944.675 344 945.5 344C946.325 344 947 343.775 947 343.5C947 343.225 947.45 343 948 343C948.55 343 949 342.775 949 342.5C949 342.225 949.626 342 950.39 342C951.206 342 952.076 341.587 952.5 341C952.896 340.45 953.621 340 954.11 340C954.599 340 955 339.775 955 339.5C955 339.225 955.401 339 955.89 339C956.379 339 957.104 338.55 957.5 338C957.896 337.45 958.572 337 959 337C959.428 337 960.104 336.55 960.5 336C960.896 335.45 961.512 335 961.869 335C962.713 335 970 327.713 970 326.868C970 326.512 970.45 325.896 971 325.5C971.55 325.104 972 324.428 972 324C972 323.572 972.45 322.896 973 322.5C973.55 322.104 974 321.428 974 321C974 320.572 974.45 319.896 975 319.5C975.55 319.104 976 318.379 976 317.889C976 317.4 976.225 317 976.5 317C976.775 317 977 316.325 977 315.5C977 314.675 977.225 314 977.5 314C977.775 314 978 313.55 978 313C978 312.45 978.225 312 978.5 312C978.775 312 979 311.325 979 310.5C979 309.675 979.225 309 979.5 309C979.775 309 980 308.1 980 307C980 305.9 980.225 305 980.5 305C980.796 305 981 303.167 981 300.5C981 297.833 981.204 296 981.5 296C981.832 296 982 255 982 174C982 93 981.832 52 981.5 52C981.2 52 981 50 981 47C981 44 980.8 42 980.5 42C980.225 42 980 41.1 980 40C980 38.9 979.775 38 979.5 38C979.225 38 979 37.325 979 36.5C979 35.675 978.775 35 978.5 35C978.225 35 978 34.325 978 33.5C978 32.675 977.775 32 977.5 32C977.225 32 977 31.55 977 31C977 30.45 976.775 30 976.5 30C976.225 30 976 29.55 976 29C976 28.45 975.775 28 975.5 28C975.225 28 975 27.5995 975 27.1105C975 26.621 974.55 25.8965 974 25.5C973.45 25.1035 973 24.4285 973 24C973 23.5715 972.55 22.8965 972 22.5C971.45 22.1035 971 21.4885 971 21.133C971 20.346 961.737 11 960.957 11C960.651 11 959.771 10.325 959 9.5C958.229 8.675 957.239 8 956.799 8C956.359 8 956 7.775 956 7.5C956 7.225 955.55 7 955 7C954.45 7 954 6.775 954 6.5C954 6.225 953.55 6 953 6C952.45 6 952 5.775 952 5.5C952 5.225 951.55 5 951 5C950.45 5 950 4.775 950 4.5C950 4.225 949.55 4 949 4C948.45 4 948 3.775 948 3.5C948 3.225 947.325 3 946.5 3C945.675 3 945 2.775 945 2.5C945 2.225 944.1 2 943 2C941.9 2 941 1.775 941 1.5C941 1.225 939.875 1 938.5 1C937.125 1 936 0.775 936 0.5C936 0.167 787.167 0 490.5 0C193.833 0 45 0.167 45 0.5ZM445 96.5C445 96.775 445.675 97 446.5 97C447.325 97 448 97.225 448 97.5C448 97.775 448.675 98 449.5 98C450.325 98 451 98.225 451 98.5C451 98.775 451.675 99 452.5 99C453.325 99 454 99.225 454 99.5C454 99.775 454.675 100 455.5 100C456.325 100 457 100.225 457 100.5C457 100.775 457.675 101 458.5 101C459.325 101 460 101.225 460 101.5C460 101.775 460.675 102 461.5 102C462.325 102 463 102.225 463 102.5C463 102.775 463.675 103 464.5 103C465.325 103 466 103.225 466 103.5C466 103.775 466.675 104 467.5 104C468.325 104 469 104.225 469 104.5C469 104.775 469.675 105 470.5 105C471.325 105 472 105.225 472 105.5C472 105.775 472.675 106 473.5 106C474.325 106 475 106.225 475 106.5C475 106.775 475.675 107 476.5 107H478V170.786C478 225.4 477.897 234.674 477.285 235.286C476.757 235.815 475.2 236 471.285 236C468.095 236 466 236.198 466 236.5C466 236.808 463.5 237 459.5 237C455.5 237 453 237.192 453 237.5C453 237.826 445.667 238 432 238C418.333 238 411 237.826 411 237.5C411 237.222 409.666 237 408 237C406.334 237 405 236.778 405 236.5C405 236.225 404.1 236 403 236C401.9 236 401 235.775 401 235.5C401 235.225 400.325 235 399.5 235C398.675 235 398 234.775 398 234.5C398 234.225 397.55 234 397 234C396.45 234 396 233.775 396 233.5C396 233.225 395.55 233 395 233C394.45 233 394 232.775 394 232.5C394 232.225 393.6 232 393.111 232C392.621 232 391.896 231.55 391.5 231C391.104 230.45 390.469 230 390.09 230C389.711 230 388.771 229.325 388 228.5C387.229 227.675 386.346 227 386.036 227C385.304 227 381 222.696 381 221.964C381 221.655 380.325 220.771 379.5 220C378.675 219.229 378 218.239 378 217.799C378 217.359 377.775 217 377.5 217C377.225 217 377 216.6 377 216.111C377 215.621 376.55 214.896 376 214.5C375.413 214.076 375 213.205 375 212.389C375 211.625 374.775 211 374.5 211C374.225 211 374 210.55 374 210C374 209.45 373.775 209 373.5 209C373.225 209 373 208.325 373 207.5C373 206.675 372.775 206 372.5 206C372.225 206 372 205.325 372 204.5C372 203.675 371.775 203 371.5 203C371.222 203 371 201.666 371 200C371 198.334 370.778 197 370.5 197C370.187 197 370 193.833 370 188.5C370 183.167 370.187 180 370.5 180C370.778 180 371 178.666 371 177C371 175.334 371.222 174 371.5 174C371.775 174 372 173.1 372 172C372 170.9 372.225 170 372.5 170C372.775 170 373 169.55 373 169C373 168.45 373.225 168 373.5 168C373.775 168 374 167.325 374 166.5C374 165.675 374.225 165 374.5 165C374.775 165 375 164.55 375 164C375 163.45 375.225 163 375.5 163C375.775 163 376 162.55 376 162C376 161.45 376.225 161 376.5 161C376.775 161 377 160.6 377 160.111C377 159.621 377.45 158.896 378 158.5C378.55 158.104 379 157.428 379 157C379 156.572 379.45 155.896 380 155.5C380.55 155.104 381 154.486 381 154.129C381 153.334 386.256 148 387.039 148C387.347 148 388.229 147.325 389 146.5C389.771 145.675 390.761 145 391.201 145C391.641 145 392 144.775 392 144.5C392 144.225 392.4 144 392.889 144C393.379 144 394.104 143.55 394.5 143C394.924 142.413 395.795 142 396.611 142C397.375 142 398 141.775 398 141.5C398 141.225 398.45 141 399 141C399.55 141 400 140.775 400 140.5C400 140.225 400.9 140 402 140C403.1 140 404 139.775 404 139.5C404 139.222 405.334 139 407 139C408.666 139 410 138.778 410 138.5C410 138.18 414.667 138 423 138C431.333 138 436 138.18 436 138.5C436 138.792 437.667 139 440 139H444V117.5C444 103.5 444.174 96 444.5 96C444.775 96 445 96.225 445 96.5ZM144 109C144 109.55 144.225 110 144.5 110C144.775 110 145 111.125 145 112.5C145 113.875 145.225 115 145.5 115C145.775 115 146 115.9 146 117C146 118.1 146.225 119 146.5 119C146.775 119 147 120.125 147 121.5C147 122.875 147.225 124 147.5 124C147.775 124 148 125.125 148 126.5C148 127.875 148.225 129 148.5 129C148.775 129 149 130.125 149 131.5C149 132.875 149.225 134 149.5 134C149.775 134 150 134.9 150 136C150 137.1 150.225 138 150.5 138C150.775 138 151 139.125 151 140.5C151 141.875 151.225 143 151.5 143C151.775 143 152 144.125 152 145.5C152 146.875 152.225 148 152.5 148C152.775 148 153 148.9 153 150C153 151.1 153.225 152 153.5 152C153.775 152 154 153.125 154 154.5C154 155.875 154.225 157 154.5 157C154.775 157 155 158.125 155 159.5C155 160.875 155.225 162 155.5 162C155.775 162 156 163.125 156 164.5C156 165.875 156.225 167 156.5 167C156.775 167 157 167.9 157 169C157 170.1 157.225 171 157.5 171C157.775 171 158 172.125 158 173.5C158 174.875 158.225 176 158.5 176C158.775 176 159 177.125 159 178.5C159 179.875 159.225 181 159.5 181C159.775 181 160 181.9 160 183C160 184.1 160.225 185 160.5 185C160.775 185 161 186.029 161 187.286C161 190.072 162.064 191.508 163.25 190.322C163.698 189.874 164 188.651 164 187.286C164 186.029 164.225 185 164.5 185C164.775 185 165 183.875 165 182.5C165 181.125 165.225 180 165.5 180C165.775 180 166 178.875 166 177.5C166 176.125 166.225 175 166.5 175C166.775 175 167 173.875 167 172.5C167 171.125 167.225 170 167.5 170C167.775 170 168 169.1 168 168C168 166.9 168.225 166 168.5 166C168.775 166 169 164.875 169 163.5C169 162.125 169.225 161 169.5 161C169.775 161 170 159.875 170 158.5C170 157.125 170.225 156 170.5 156C170.775 156 171 154.875 171 153.5C171 152.125 171.225 151 171.5 151C171.775 151 172 149.875 172 148.5C172 147.125 172.225 146 172.5 146C172.775 146 173 144.875 173 143.5C173 142.125 173.225 141 173.5 141C173.775 141 174 139.875 174 138.5C174 137.125 174.225 136 174.5 136C174.775 136 175 135.1 175 134C175 132.9 175.225 132 175.5 132C175.775 132 176 130.875 176 129.5C176 128.125 176.225 127 176.5 127C176.775 127 177 125.875 177 124.5C177 123.125 177.225 122 177.5 122C177.775 122 178 120.875 178 119.5C178 118.125 178.225 117 178.5 117C178.775 117 179 115.875 179 114.5C179 113.125 179.225 112 179.5 112C179.775 112 180 111.1 180 110V108H206.5H233V112.5C233 115.167 233.204 117 233.5 117C233.803 117 234 119.167 234 122.5C234 125.833 234.197 128 234.5 128C234.8 128 235 130 235 133C235 136 235.2 138 235.5 138C235.8 138 236 140 236 143C236 146 236.2 148 236.5 148C236.803 148 237 150.167 237 153.5C237 156.833 237.197 159 237.5 159C237.8 159 238 161 238 164C238 167 238.2 169 238.5 169C238.8 169 239 171 239 174C239 177 239.2 179 239.5 179C239.8 179 240 181 240 184C240 187 240.2 189 240.5 189C240.803 189 241 191.167 241 194.5C241 197.833 241.197 200 241.5 200C241.8 200 242 202 242 205C242 208 242.2 210 242.5 210C242.8 210 243 212 243 215C243 218 243.2 220 243.5 220C243.803 220 244 222.167 244 225.5C244 228.833 244.197 231 244.5 231C244.775 231 245 232.125 245 233.5V236H229C213.333 236 213 235.979 213 235C213 234.45 212.775 234 212.5 234C212.194 234 212 231.667 212 228C212 224.333 211.806 222 211.5 222C211.197 222 211 219.833 211 216.5C211 213.167 210.803 211 210.5 211C210.194 211 210 208.667 210 205C210 201.333 209.806 199 209.5 199C209.197 199 209 196.833 209 193.5C209 190.167 208.803 188 208.5 188C208.194 188 208 185.667 208 182C208 178.333 207.806 176 207.5 176C207.197 176 207 173.833 207 170.5C207 167.167 206.803 165 206.5 165C206.197 165 206 162.833 206 159.5C206 156.167 205.803 154 205.5 154C205.194 154 205 151.667 205 148C205 144.333 204.806 142 204.5 142C204.208 142 204 140.333 204 138C204 134.333 203.916 134 203 134C202.222 134 202 134.334 202 135.5C202 136.325 201.775 137 201.5 137C201.225 137 201 137.9 201 139C201 140.1 200.775 141 200.5 141C200.225 141 200 142.125 200 143.5C200 144.875 199.775 146 199.5 146C199.225 146 199 147.125 199 148.5C199 149.875 198.775 151 198.5 151C198.225 151 198 151.9 198 153C198 154.1 197.775 155 197.5 155C197.225 155 197 156.125 197 157.5C197 158.875 196.775 160 196.5 160C196.225 160 196 161.125 196 162.5C196 163.875 195.775 165 195.5 165C195.225 165 195 165.9 195 167C195 168.1 194.775 169 194.5 169C194.225 169 194 170.125 194 171.5C194 172.875 193.775 174 193.5 174C193.225 174 193 175.125 193 176.5C193 177.875 192.775 179 192.5 179C192.225 179 192 180.125 192 181.5C192 182.875 191.775 184 191.5 184C191.225 184 191 184.9 191 186C191 187.1 190.775 188 190.5 188C190.225 188 190 189.125 190 190.5C190 191.875 189.775 193 189.5 193C189.225 193 189 194.125 189 195.5C189 196.875 188.775 198 188.5 198C188.225 198 188 198.9 188 200C188 201.1 187.775 202 187.5 202C187.225 202 187 203.125 187 204.5C187 205.875 186.775 207 186.5 207C186.225 207 186 208.125 186 209.5C186 210.875 185.775 212 185.5 212C185.225 212 185 212.9 185 214C185 215.1 184.775 216 184.5 216C184.225 216 184 217.125 184 218.5C184 219.875 183.775 221 183.5 221C183.225 221 183 222.125 183 223.5C183 224.875 182.775 226 182.5 226C182.225 226 182 226.9 182 228C182 229.1 181.775 230 181.5 230C181.225 230 181 231.125 181 232.5V235H160.5H140V232.5C140 231.125 139.775 230 139.5 230C139.225 230 139 228.875 139 227.5C139 226.125 138.775 225 138.5 225C138.225 225 138 224.1 138 223C138 221.9 137.775 221 137.5 221C137.225 221 137 219.875 137 218.5C137 217.125 136.775 216 136.5 216C136.225 216 136 214.875 136 213.5C136 212.125 135.775 211 135.5 211C135.225 211 135 209.875 135 208.5C135 207.125 134.775 206 134.5 206C134.225 206 134 205.1 134 204C134 202.9 133.775 202 133.5 202C133.225 202 133 200.875 133 199.5C133 198.125 132.775 197 132.5 197C132.225 197 132 195.875 132 194.5C132 193.125 131.775 192 131.5 192C131.225 192 131 191.1 131 190C131 188.9 130.775 188 130.5 188C130.225 188 130 186.875 130 185.5C130 184.125 129.775 183 129.5 183C129.225 183 129 181.875 129 180.5C129 179.125 128.775 178 128.5 178C128.225 178 128 177.1 128 176C128 174.9 127.775 174 127.5 174C127.225 174 127 172.875 127 171.5C127 170.125 126.775 169 126.5 169C126.225 169 126 167.875 126 166.5C126 165.125 125.775 164 125.5 164C125.225 164 125 163.1 125 162C125 160.9 124.775 160 124.5 160C124.225 160 124 158.875 124 157.5C124 156.125 123.775 155 123.5 155C123.225 155 123 153.875 123 152.5C123 151.125 122.775 150 122.5 150C122.225 150 122 149.1 122 148C122 146.9 121.775 146 121.5 146C121.225 146 121 144.875 121 143.5C121 142.125 120.775 141 120.5 141C120.225 141 120 139.875 120 138.5C120 137.125 119.775 136 119.5 136C119.225 136 119 135.55 119 135C119 134.334 118.666 134 118 134C117.067 134 117 134.333 117 139C117 142 116.8 144 116.5 144C116.194 144 116 146.333 116 150C116 153.667 115.806 156 115.5 156C115.194 156 115 158.333 115 162C115 165.667 114.806 168 114.5 168C114.194 168 114 170.333 114 174C114 177.667 113.806 180 113.5 180C113.197 180 113 182.167 113 185.5C113 188.833 112.803 191 112.5 191C112.194 191 112 193.333 112 197C112 200.667 111.806 203 111.5 203C111.194 203 111 205.333 111 209C111 212.667 110.806 215 110.5 215C110.194 215 110 217.333 110 221C110 224.667 109.806 227 109.5 227C109.204 227 109 228.833 109 231.5V236H94.5H80V232C80 229.667 80.2085 228 80.5 228C80.803 228 81 225.833 81 222.5C81 219.167 81.197 217 81.5 217C81.803 217 82 214.833 82 211.5C82 208.167 82.197 206 82.5 206C82.803 206 83 203.833 83 200.5C83 197.167 83.197 195 83.5 195C83.803 195 84 192.833 84 189.5C84 186.167 84.197 184 84.5 184C84.803 184 85 181.833 85 178.5C85 175.167 85.197 173 85.5 173C85.803 173 86 170.833 86 167.5C86 164.167 86.197 162 86.5 162C86.803 162 87 159.833 87 156.5C87 153.167 87.197 151 87.5 151C87.803 151 88 148.833 88 145.5C88 142.167 88.197 140 88.5 140C88.803 140 89 137.833 89 134.5C89 131.167 89.197 129 89.5 129C89.803 129 90 126.833 90 123.5C90 120.167 90.197 118 90.5 118C90.8 118 91 116 91 113V108H117.5C143.667 108 144 108.012 144 109ZM320 137.5C320 137.775 321.125 138 322.5 138C323.875 138 325 138.225 325 138.5C325 138.775 325.9 139 327 139C328.1 139 329 139.225 329 139.5C329 139.775 329.675 140 330.5 140C331.325 140 332 140.225 332 140.5C332 140.775 332.675 141 333.5 141C334.325 141 335 141.225 335 141.5C335 141.775 335.45 142 336 142C336.55 142 337 142.225 337 142.5C337 142.775 337.45 143 338 143C338.55 143 339 143.225 339 143.5C339 143.775 339.4 144 339.889 144C340.379 144 341.104 144.45 341.5 145C341.896 145.55 342.512 146 342.867 146C343.711 146 352 154.289 352 155.133C352 155.488 352.45 156.104 353 156.5C353.55 156.896 354 157.621 354 158.111C354 158.6 354.225 159 354.5 159C354.775 159 355 159.45 355 160C355 160.55 355.225 161 355.5 161C355.775 161 356 161.45 356 162C356 162.55 356.225 163 356.5 163C356.775 163 357 163.675 357 164.5C357 165.325 357.225 166 357.5 166C357.775 166 358 166.675 358 167.5C358 168.325 358.225 169 358.5 169C358.775 169 359 169.9 359 171C359 172.1 359.225 173 359.5 173C359.796 173 360 174.833 360 177.5C360 180.167 360.204 182 360.5 182C360.803 182 361 184.167 361 187.5C361 190.833 360.803 193 360.5 193C360.208 193 360 194.667 360 197C360 199.333 359.792 201 359.5 201C359.225 201 359 201.9 359 203C359 204.1 358.775 205 358.5 205C358.225 205 358 205.675 358 206.5C358 207.325 357.775 208 357.5 208C357.225 208 357 208.675 357 209.5C357 210.325 356.775 211 356.5 211C356.225 211 356 211.45 356 212C356 212.55 355.775 213 355.5 213C355.225 213 355 213.4 355 213.889C355 214.379 354.55 215.104 354 215.5C353.45 215.896 353 216.572 353 217C353 217.428 352.55 218.104 352 218.5C351.45 218.896 351 219.512 351 219.868C351 220.224 349.316 222.2 347.258 224.258C345.2 226.316 343.224 228 342.868 228C342.512 228 341.896 228.45 341.5 229C341.104 229.55 340.428 230 340 230C339.572 230 338.896 230.45 338.5 231C338.104 231.55 337.379 232 336.889 232C336.4 232 336 232.225 336 232.5C336 232.775 335.55 233 335 233C334.45 233 334 233.225 334 233.5C334 233.775 333.325 234 332.5 234C331.675 234 331 234.225 331 234.5C331 234.775 330.55 235 330 235C329.45 235 329 235.225 329 235.5C329 235.775 328.1 236 327 236C325.9 236 325 236.225 325 236.5C325 236.775 324.1 237 323 237C321.9 237 321 237.225 321 237.5C321 237.796 319.167 238 316.5 238C313.833 238 312 238.204 312 238.5C312 238.806 309.667 239 306 239C302.333 239 300 238.806 300 238.5C300 238.208 298.333 238 296 238C293.667 238 292 237.792 292 237.5C292 237.225 291.1 237 290 237C288.9 237 288 236.775 288 236.5C288 236.225 287.1 236 286 236C284.9 236 284 235.775 284 235.5C284 235.225 283.325 235 282.5 235C281.675 235 281 234.775 281 234.5C281 234.225 280.55 234 280 234C279.45 234 279 233.775 279 233.5C279 233.225 278.55 233 278 233C277.45 233 277 232.775 277 232.5C277 232.225 276.55 232 276 232C275.45 232 275 231.775 275 231.5C275 231.225 274.6 231 274.111 231C273.621 231 272.896 230.55 272.5 230C272.104 229.45 271.469 229 271.09 229C270.711 229 269.771 228.325 269 227.5C268.229 226.675 267.346 226 267.036 226C266.304 226 262 221.696 262 220.964C262 220.655 261.325 219.771 260.5 219C259.675 218.229 259 217.239 259 216.799C259 216.359 258.775 216 258.5 216C258.225 216 258 215.55 258 215C258 214.45 257.775 214 257.5 214C257.225 214 257 213.55 257 213C257 212.45 256.775 212 256.5 212C256.225 212 256 211.55 256 211C256 210.45 255.775 210 255.5 210C255.225 210 255 209.55 255 209C255 208.45 254.775 208 254.5 208C254.225 208 254 207.325 254 206.5C254 205.675 253.775 205 253.5 205C253.225 205 253 204.1 253 203C253 201.9 252.775 201 252.5 201C252.208 201 252 199.333 252 197C252 194.667 251.792 193 251.5 193C251.194 193 251 190.667 251 187C251 183.333 251.194 181 251.5 181C251.792 181 252 179.333 252 177C252 174.667 252.208 173 252.5 173C252.775 173 253 172.1 253 171C253 169.9 253.225 169 253.5 169C253.775 169 254 168.325 254 167.5C254 166.675 254.225 166 254.5 166C254.775 166 255 165.325 255 164.5C255 163.675 255.225 163 255.5 163C255.775 163 256 162.55 256 162C256 161.45 256.225 161 256.5 161C256.775 161 257 160.6 257 160.111C257 159.621 257.45 158.896 258 158.5C258.55 158.104 259 157.428 259 157C259 156.572 259.45 155.896 260 155.5C260.55 155.104 261 154.486 261 154.129C261 153.334 266.256 148 267.039 148C267.347 148 268.229 147.325 269 146.5C269.771 145.675 270.761 145 271.201 145C271.641 145 272 144.775 272 144.5C272 144.225 272.45 144 273 144C273.55 144 274 143.775 274 143.5C274 143.225 274.45 143 275 143C275.55 143 276 142.775 276 142.5C276 142.225 276.45 142 277 142C277.55 142 278 141.775 278 141.5C278 141.225 278.45 141 279 141C279.55 141 280 140.775 280 140.5C280 140.225 280.675 140 281.5 140C282.325 140 283 139.775 283 139.5C283 139.225 283.9 139 285 139C286.1 139 287 138.775 287 138.5C287 138.222 288.334 138 290 138C291.666 138 293 137.778 293 137.5C293 137.179 297.833 137 306.5 137C315.167 137 320 137.179 320 137.5ZM558 137.5C558 137.778 559.334 138 561 138C562.666 138 564 138.222 564 138.5C564 138.775 564.9 139 566 139C567.1 139 568 139.225 568 139.5C568 139.775 568.675 140 569.5 140C570.325 140 571 140.225 571 140.5C571 140.775 571.45 141 572 141C572.55 141 573 141.225 573 141.5C573 141.775 573.45 142 574 142C574.55 142 575 142.225 575 142.5C575 142.775 575.45 143 576 143C576.55 143 577 143.225 577 143.5C577 143.775 577.359 144 577.799 144C578.239 144 579.229 144.675 580 145.5C580.771 146.325 581.656 147 581.968 147C582.704 147 586 150.297 586 151.033C586 151.344 586.675 152.229 587.5 153C588.325 153.771 589 154.761 589 155.201C589 155.641 589.225 156 589.5 156C589.775 156 590 156.45 590 157C590 157.55 590.225 158 590.5 158C590.775 158 591 158.45 591 159C591 159.55 591.225 160 591.5 160C591.775 160 592 160.45 592 161C592 161.55 592.225 162 592.5 162C592.775 162 593 162.675 593 163.5C593 164.325 593.225 165 593.5 165C593.775 165 594 165.675 594 166.5C594 167.325 594.225 168 594.5 168C594.775 168 595 169.125 595 170.5C595 171.875 595.225 173 595.5 173C595.792 173 596 174.667 596 177C596 179.333 596.208 181 596.5 181C596.812 181 597 184 597 189V197H562.714C531.356 197 528.357 197.072 527.594 197.835C526.986 198.442 526.928 198.726 527.38 198.876C527.762 199.004 528 200.029 528 201.542C528 202.894 528.225 204 528.5 204C528.775 204 529 204.45 529 205C529 205.55 529.225 206 529.5 206C529.775 206 530 206.343 530 206.761C530 207.751 535.249 213 536.239 213C536.658 213 537 213.225 537 213.5C537 213.775 537.45 214 538 214C538.55 214 539 214.225 539 214.5C539 214.775 539.675 215 540.5 215C541.325 215 542 215.225 542 215.5C542 215.775 542.675 216 543.5 216C544.325 216 545 216.225 545 216.5C545 216.778 546.334 217 548 217C549.666 217 551 217.222 551 217.5C551 217.813 554.167 218 559.5 218C564.833 218 568 217.813 568 217.5C568 217.2 570 217 573 217C576 217 578 216.8 578 216.5C578 216.215 579.5 216 581.5 216C583.5 216 585 215.785 585 215.5C585 215.225 585.675 215 586.5 215H588V225V235H586.5C585.675 235 585 235.225 585 235.5C585 235.785 583.5 236 581.5 236C579.5 236 578 236.215 578 236.5C578 236.792 576.333 237 574 237C571.667 237 570 237.208 570 237.5C570 237.823 564.333 238 554 238C543.667 238 538 237.823 538 237.5C538 237.215 536.5 237 534.5 237C532.5 237 531 236.785 531 236.5C531 236.225 530.1 236 529 236C527.9 236 527 235.775 527 235.5C527 235.225 526.325 235 525.5 235C524.675 235 524 234.775 524 234.5C524 234.225 523.325 234 522.5 234C521.675 234 521 233.775 521 233.5C521 233.225 520.325 233 519.5 233C518.675 233 518 232.775 518 232.5C518 232.225 517.55 232 517 232C516.45 232 516 231.775 516 231.5C516 231.225 515.599 231 515.11 231C514.621 231 513.896 230.55 513.5 230C513.104 229.45 512.428 229 512 229C511.572 229 510.896 228.55 510.5 228C510.104 227.45 509.487 227 509.13 227C508.285 227 502 220.715 502 219.87C502 219.513 501.55 218.896 501 218.5C500.45 218.104 500 217.428 500 217C500 216.572 499.55 215.896 499 215.5C498.45 215.104 498 214.379 498 213.889C498 213.4 497.775 213 497.5 213C497.225 213 497 212.55 497 212C497 211.45 496.775 211 496.5 211C496.225 211 496 210.55 496 210C496 209.45 495.775 209 495.5 209C495.225 209 495 208.1 495 207C495 205.9 494.775 205 494.5 205C494.225 205 494 204.1 494 203C494 201.9 493.775 201 493.5 201C493.215 201 493 199.5 493 197.5C493 195.5 492.785 194 492.5 194C492.19 194 492 191.333 492 187C492 182.667 492.19 180 492.5 180C492.785 180 493 178.5 493 176.5C493 174.5 493.215 173 493.5 173C493.775 173 494 172.1 494 171C494 169.9 494.225 169 494.5 169C494.775 169 495 168.325 495 167.5C495 166.675 495.225 166 495.5 166C495.775 166 496 165.55 496 165C496 164.45 496.225 164 496.5 164C496.775 164 497 163.55 497 163C497 162.45 497.225 162 497.5 162C497.775 162 498 161.55 498 161C498 160.45 498.225 160 498.5 160C498.775 160 499 159.6 499 159.111C499 158.621 499.45 157.896 500 157.5C500.55 157.104 501 156.488 501 156.133C501 155.29 510.29 146 511.133 146C511.488 146 512.104 145.55 512.5 145C512.896 144.45 513.621 144 514.11 144C514.599 144 515 143.775 515 143.5C515 143.225 515.45 143 516 143C516.55 143 517 142.775 517 142.5C517 142.225 517.45 142 518 142C518.55 142 519 141.775 519 141.5C519 141.225 519.675 141 520.5 141C521.325 141 522 140.775 522 140.5C522 140.225 522.675 140 523.5 140C524.325 140 525 139.775 525 139.5C525 139.225 525.9 139 527 139C528.1 139 529 138.775 529 138.5C529 138.225 530.125 138 531.5 138C532.875 138 534 137.775 534 137.5C534 137.181 538.333 137 546 137C553.667 137 558 137.181 558 137.5ZM677 151V164H673C670.667 164 669 163.792 669 163.5C669 163.215 667.5 163 665.5 163C663.5 163 662 163.215 662 163.5C662 163.8 660 164 657 164C654 164 652 164.2 652 164.5C652 164.775 650.746 165 649.214 165C647.466 165 646.162 165.266 645.714 165.714C645.109 166.319 645 171.733 645 201.214V236H627.5H610V190C610 144.333 610.007 144 611 144C611.55 144 612 143.775 612 143.5C612 143.225 613.125 143 614.5 143C615.875 143 617 142.775 617 142.5C617 142.225 618.125 142 619.5 142C620.875 142 622 141.775 622 141.5C622 141.222 623.334 141 625 141C626.666 141 628 140.778 628 140.5C628 140.208 629.667 140 632 140C634.333 140 636 139.792 636 139.5C636 139.197 638.167 139 641.5 139C644.833 139 647 138.803 647 138.5C647 138.178 652.333 138 662 138H677V151ZM755 138.5C755 138.785 756.5 139 758.5 139C760.5 139 762 139.215 762 139.5C762 139.775 763.125 140 764.5 140C765.875 140 767 140.225 767 140.5C767 140.775 767.675 141 768.5 141C769.325 141 770 141.225 770 141.5C770 141.775 770.45 142 771 142C771.55 142 772 142.225 772 142.5C772 142.775 772.45 143 773 143C773.55 143 774 143.225 774 143.5C774 143.775 774.401 144 774.89 144C775.379 144 776.104 144.45 776.5 145C776.896 145.55 777.516 146 777.877 146C778.73 146 782 149.27 782 150.123C782 150.484 782.45 151.104 783 151.5C783.55 151.896 784 152.621 784 153.111C784 153.6 784.225 154 784.5 154C784.775 154 785 154.45 785 155C785 155.55 785.225 156 785.5 156C785.775 156 786 156.675 786 157.5C786 158.325 786.225 159 786.5 159C786.775 159 787 160.125 787 161.5C787 162.875 787.225 164 787.5 164C787.829 164 788 176.333 788 200V236H770.5H753V203C753 181.333 752.829 170 752.5 170C752.225 170 752 169.431 752 168.737C752 167.014 747.986 163 746.263 163C745.569 163 745 162.775 745 162.5C745 162.225 743.875 162 742.5 162C741.125 162 740 161.775 740 161.5C740 161.222 738.666 161 737 161C735.334 161 734 161.222 734 161.5C734 161.8 732 162 729 162C726 162 724 162.2 724 162.5C724 162.775 723.55 163 723 163C722.009 163 722 163.333 722 199.5V236H704.5H687V189.714C687 150.266 687.105 143.323 687.714 142.714C688.207 142.221 689.6 142 692.214 142C694.405 142 696 141.789 696 141.5C696 141.204 697.833 141 700.5 141C703.167 141 705 140.796 705 140.5C705 140.2 707 140 710 140C713 140 715 139.8 715 139.5C715 139.197 717.167 139 720.5 139C723.833 139 726 138.803 726 138.5C726 138.178 731.167 138 740.5 138C749.833 138 755 138.178 755 138.5ZM866 138.5C866 138.785 867.5 139 869.5 139C871.5 139 873 139.215 873 139.5C873 139.775 874.125 140 875.5 140C876.875 140 878 140.225 878 140.5C878 140.775 878.675 141 879.5 141C880.325 141 881 141.225 881 141.5C881 141.775 881.45 142 882 142C882.55 142 883 142.225 883 142.5C883 142.775 883.45 143 884 143C884.55 143 885 143.225 885 143.5C885 143.775 885.401 144 885.89 144C886.379 144 887.104 144.45 887.5 145C887.896 145.55 888.514 146 888.873 146C889.723 146 894 150.277 894 151.126C894 151.485 894.45 152.104 895 152.5C895.55 152.896 896 153.621 896 154.111C896 154.6 896.225 155 896.5 155C896.775 155 897 155.45 897 156C897 156.55 897.225 157 897.5 157C897.775 157 898 157.9 898 159C898 160.1 898.225 161 898.5 161C898.829 161 899 173.833 899 198.5V236H894.5C891.833 236 890 236.204 890 236.5C890 236.806 887.667 237 884 237C880.333 237 878 237.194 878 237.5C878 237.813 874.833 238 869.5 238C864.167 238 861 238.187 861 238.5C861 238.819 856.667 239 849 239C841.333 239 837 238.819 837 238.5C837 238.2 835 238 832 238C829 238 827 237.8 827 237.5C827 237.225 825.875 237 824.5 237C823.125 237 822 236.775 822 236.5C822 236.225 821.325 236 820.5 236C819.675 236 819 235.775 819 235.5C819 235.225 818.325 235 817.5 235C816.675 235 816 234.775 816 234.5C816 234.225 815.55 234 815 234C814.45 234 814 233.775 814 233.5C814 233.225 813.599 233 813.11 233C812.621 233 811.896 232.55 811.5 232C811.104 231.45 810.487 231 810.129 231C809.219 231 804 225.688 804 224.761C804 224.343 803.775 224 803.5 224C803.225 224 803 223.55 803 223C803 222.45 802.775 222 802.5 222C802.225 222 802 221.55 802 221C802 220.45 801.775 220 801.5 220C801.225 220 801 219.325 801 218.5C801 217.675 800.775 217 800.5 217C800.225 217 800 215.875 800 214.5C800 213.125 799.775 212 799.5 212C799.2 212 799 210 799 207C799 204 799.2 202 799.5 202C799.775 202 800 200.875 800 199.5C800 198.125 800.225 197 800.5 197C800.775 197 801 196.325 801 195.5C801 194.675 801.225 194 801.5 194C801.775 194 802 193.6 802 193.111C802 192.621 802.45 191.896 803 191.5C803.55 191.104 804 190.485 804 190.126C804 189.277 808.277 185 809.127 185C809.486 185 810.104 184.55 810.5 184C810.896 183.45 811.621 183 812.11 183C812.599 183 813 182.775 813 182.5C813 182.225 813.45 182 814 182C814.55 182 815 181.775 815 181.5C815 181.225 815.45 181 816 181C816.55 181 817 180.775 817 180.5C817 180.225 817.675 180 818.5 180C819.325 180 820 179.775 820 179.5C820 179.225 820.9 179 822 179C823.1 179 824 178.775 824 178.5C824 178.225 825.125 178 826.5 178C827.875 178 829 177.775 829 177.5C829 177.2 831 177 834 177C837 177 839 176.8 839 176.5C839 176.18 843.667 176 852 176H865V172C865 169.667 864.792 168 864.5 168C864.225 168 864 167.431 864 166.737C864 165.324 860.053 161 858.763 161C858.344 161 858 160.775 858 160.5C858 160.225 857.325 160 856.5 160C855.675 160 855 159.775 855 159.5C855 159.225 853.875 159 852.5 159C851.125 159 850 158.775 850 158.5C850 158.185 846.667 158 841 158C835.333 158 832 158.185 832 158.5C832 158.8 830 159 827 159C824 159 822 159.2 822 159.5C822 159.792 820.333 160 818 160C815.667 160 814 160.208 814 160.5C814 160.775 812.875 161 811.5 161H809V151V141H811.5C812.875 141 814 140.775 814 140.5C814 140.208 815.667 140 818 140C820.333 140 822 139.792 822 139.5C822 139.194 824.333 139 828 139C831.667 139 834 138.806 834 138.5C834 138.177 839.667 138 850 138C860.333 138 866 138.177 866 138.5ZM542 156.5C542 156.775 541.1 157 540 157C538.9 157 538 157.225 538 157.5C538 157.775 537.55 158 537 158C536.45 158 536 158.225 536 158.5C536 158.775 535.655 159 535.234 159C534.238 159 531 162.238 531 163.234C531 163.655 530.775 164 530.5 164C530.225 164 530 164.45 530 165C530 165.55 529.775 166 529.5 166C529.225 166 529 166.675 529 167.5C529 168.325 528.775 169 528.5 169C528.222 169 528 170.334 528 172C528 173.666 527.778 175 527.5 175C527.225 175 527 175.9 527 177V179H545H563V175C563 172.667 562.792 171 562.5 171C562.225 171 562 170.1 562 169C562 167.9 561.775 167 561.5 167C561.225 167 561 166.375 561 165.611C561 164.795 560.587 163.924 560 163.5C559.45 163.104 559 162.481 559 162.117C559 161.205 556.718 159 555.773 159C555.348 159 555 158.775 555 158.5C555 158.225 554.55 158 554 158C553.45 158 553 157.775 553 157.5C553 157.225 551.875 157 550.5 157C549.125 157 548 156.775 548 156.5C548 156.222 546.666 156 545 156C543.334 156 542 156.222 542 156.5ZM301 157.5C301 157.775 300.325 158 299.5 158C298.675 158 298 158.225 298 158.5C298 158.775 297.55 159 297 159C296.45 159 296 159.225 296 159.5C296 159.775 295.656 160 295.237 160C294.244 160 290 164.244 290 165.237C290 165.656 289.775 166 289.5 166C289.225 166 289 166.675 289 167.5C289 168.325 288.775 169 288.5 169C288.225 169 288 169.675 288 170.5C288 171.325 287.775 172 287.5 172C287.222 172 287 173.334 287 175C287 176.666 286.778 178 286.5 178C286.184 178 286 181.5 286 187.5C286 193.5 286.184 197 286.5 197C286.778 197 287 198.334 287 200C287 201.666 287.222 203 287.5 203C287.775 203 288 203.9 288 205C288 206.1 288.225 207 288.5 207C288.775 207 289 207.45 289 208C289 208.55 289.225 209 289.5 209C289.775 209 290 209.343 290 209.761C290 210.751 295.249 216 296.239 216C296.658 216 297 216.225 297 216.5C297 216.775 297.675 217 298.5 217C299.325 217 300 217.225 300 217.5C300 217.808 302.5 218 306.5 218C310.5 218 313 217.808 313 217.5C313 217.225 313.625 217 314.389 217C315.205 217 316.076 216.587 316.5 216C316.896 215.45 317.516 215 317.877 215C318.789 215 322 211.702 322 210.766C322 210.345 322.225 210 322.5 210C322.775 210 323 209.55 323 209C323 208.45 323.225 208 323.5 208C323.775 208 324 207.1 324 206C324 204.9 324.225 204 324.5 204C324.778 204 325 202.666 325 201C325 199.334 325.222 198 325.5 198C325.817 198 326 194.167 326 187.5C326 180.833 325.817 177 325.5 177C325.222 177 325 175.666 325 174C325 172.334 324.778 171 324.5 171C324.225 171 324 170.325 324 169.5C324 168.675 323.775 168 323.5 168C323.225 168 323 167.375 323 166.611C323 165.795 322.587 164.924 322 164.5C321.45 164.104 321 163.476 321 163.104C321 162.234 319.766 161 318.896 161C318.524 161 317.896 160.55 317.5 160C317.104 159.45 316.379 159 315.889 159C315.4 159 315 158.775 315 158.5C315 158.225 314.1 158 313 158C311.9 158 311 157.775 311 157.5C311 157.2 309 157 306 157C303 157 301 157.2 301 157.5ZM425 159.5C425 159.775 424.1 160 423 160C421.9 160 421 160.225 421 160.5C421 160.775 420.55 161 420 161C419.45 161 419 161.225 419 161.5C419 161.775 418.6 162 418.111 162C417.621 162 416.896 162.45 416.5 163C416.104 163.55 415.379 164 414.889 164C414.4 164 414 164.359 414 164.799C414 165.239 413.325 166.229 412.5 167C411.675 167.771 411 168.761 411 169.201C411 169.641 410.775 170 410.5 170C410.225 170 410 170.45 410 171C410 171.55 409.775 172 409.5 172C409.225 172 409 172.675 409 173.5C409 174.325 408.775 175 408.5 175C408.225 175 408 175.9 408 177C408 178.1 407.775 179 407.5 179C407.184 179 407 182.5 407 188.5C407 194.5 407.184 198 407.5 198C407.775 198 408 198.9 408 200C408 201.1 408.225 202 408.5 202C408.775 202 409 202.675 409 203.5C409 204.325 409.225 205 409.5 205C409.775 205 410 205.4 410 205.889C410 206.379 410.45 207.104 411 207.5C411.55 207.896 412 208.515 412 208.874C412 209.784 416.306 214 417.237 214C417.656 214 418 214.225 418 214.5C418 214.775 418.45 215 419 215C419.55 215 420 215.225 420 215.5C420 215.775 420.675 216 421.5 216C422.325 216 423 216.225 423 216.5C423 216.816 426.5 217 432.5 217C438.5 217 442 216.816 442 216.5C442 216.225 442.45 216 443 216C443.988 216 444 215.667 444 188V160H441.5C440.125 160 439 159.775 439 159.5C439 159.19 436.333 159 432 159C427.667 159 425 159.19 425 159.5ZM844 195.5C844 195.775 843.1 196 842 196C840.9 196 840 196.225 840 196.5C840 196.775 839.655 197 839.234 197C838.238 197 835 200.238 835 201.234C835 201.655 834.775 202 834.5 202C834.2 202 834 204 834 207C834 210 834.2 212 834.5 212C834.775 212 835 212.573 835 213.273C835 214.676 837.012 217 838.227 217C838.652 217 839 217.225 839 217.5C839 217.775 839.45 218 840 218C840.55 218 841 218.225 841 218.5C841 218.775 842.125 219 843.5 219C844.875 219 846 219.225 846 219.5C846 219.806 848.333 220 852 220C855.667 220 858 219.806 858 219.5C858 219.208 859.667 219 862 219H866V207V195H855C848 195 844 195.182 844 195.5Z" fill="#F20302"/>
</svg>
