<svg width="829" height="364" viewBox="0 0 829 364" fill="none" xmlns="http://www.w3.org/2000/svg">
<path fill-rule="evenodd" clip-rule="evenodd" d="M435.74 164.47C452.269 65.3244 531.926 0.0276742 632.806 0.749645C730.947 1.45773 812.809 69.7951 827.036 162.902C843.926 273.433 731.689 376.667 609.995 362.374C572.736 358 538.374 345.852 508.283 323.096C503.014 319.111 495.179 316.584 495.568 308.309C496.011 299.007 504.81 299.167 510.883 297.716C545.266 289.503 575.523 272.947 616.229 285.498C668.09 301.478 722.121 263.873 739.607 213.474C755.11 168.768 735.475 118.438 692.322 92.2664C644.801 63.4431 578.934 72.1484 541.383 115.571C512.984 148.42 478.484 162.672 435.74 164.47V164.47ZM191.749 363.276C103.155 362.7 27.5816 305.227 5.61682 221.728C-14.2125 146.338 25.7304 62.0825 99.9517 22.742C175.872 -17.5009 281.466 -2.2146 337.155 56.147C361.331 81.4854 379.088 109.83 389.238 143.339C394.93 162.103 388.434 165.88 371.163 162.346C338.798 155.71 310.295 143.45 287.963 117.57C255.744 80.2359 213.291 68.2678 166.117 79.5278C106.961 93.6409 70.7139 150.67 84.1368 203.651C101.623 272.69 168.086 301.95 224.766 283.63C262.726 271.371 288.379 294.377 319.315 301.527C330.062 304.026 330.339 314.883 318.428 323.957C289.329 346.15 236.809 363.575 191.756 363.276" fill="#D9312B"/>
<path fill-rule="evenodd" clip-rule="evenodd" d="M625.441 127.261C628.499 218.563 614.715 242.645 532.715 269.955C431.952 303.519 333.173 298 240.28 241.52C212.963 224.908 200.303 200.798 202.799 169.628C204.012 154.529 210.46 146.116 227.384 157.834C322.981 224.019 426.718 226.72 534.462 195.161C570.862 184.505 601.16 165.019 625.441 127.268" fill="#D9312B"/>
<path fill-rule="evenodd" clip-rule="evenodd" d="M459.418 50.7739C444.109 72.9536 432.517 92.3497 424.786 113.683C422.886 118.903 420.605 124.595 413.339 124.387C405.865 124.172 405.185 118.112 403.147 112.829C394.986 91.6902 383.893 72.0234 367.898 52.079C398.841 42.1935 426.339 43.4986 459.418 50.7739" fill="#D9312B"/>
</svg>
