<svg width="80" height="80" viewBox="0 0 80 80" fill="none" xmlns="http://www.w3.org/2000/svg">
<path d="M36.4 28.6C36.4 38.7 28.2 46.8 18.2 46.8C8.09998 46.8 0 38.6 0 28.6C0 18.5 8.19998 10.4 18.2 10.4C28.2 10.4 36.4 18.6 36.4 28.6Z" fill="#E2231A"/>
<path d="M68.0001 61.5C68.0001 71.6 59.8001 79.7 49.8001 79.7C39.7001 79.7 31.6001 71.5 31.6001 61.5C31.6001 51.4 39.8001 43.3 49.8001 43.3C59.9001 43.3 68.0001 51.4 68.0001 61.5Z" fill="#E2231A"/>
<path d="M79.4 18.2C79.4 28.3 71.2 36.4 61.2 36.4C51.1 36.4 43 28.2 43 18.2C43 8.1 51.2 0 61.2 0C71.2 0 79.4 8.2 79.4 18.2Z" fill="#E2231A"/>
</svg>
