<?xml version="1.0" encoding="UTF-8"?>
<svg width="48px" height="48px" viewBox="0 0 48 48" version="1.1" xmlns="http://www.w3.org/2000/svg" xmlns:xlink="http://www.w3.org/1999/xlink">
    <!-- Generator: Sketch 59.1 (86144) - https://sketch.com -->
    <title>icons/perils/prylskyddet/no BG/drulle </title>
    <desc>Created with Sketch.</desc>
    <defs>
        <polygon id="path-1" points="0.0001 0 48 0 48 47.9998 0.0001 47.9998"></polygon>
    </defs>
    <g id="icons/perils/prylskyddet/no-BG/drulle-" stroke="none" stroke-width="1" fill="none" fill-rule="evenodd">
        <g id="Page-1">
            <g id="Group-3">
                <mask id="mask-2" fill="white">
                    <use xlink:href="#path-1"></use>
                </mask>
                <g id="Clip-2"></g>
            </g>
            <polygon id="Fill-4" fill="#141033" points="21.847 15.654 26.152 15.654 26.152 14.654 21.847 14.654"></polygon>
            <path d="M30.5734,37.8939 L17.4274,37.8939 C16.2564,37.8939 15.3034,36.9409 15.3034,35.7699 L15.3034,23.8529 L16.3034,23.8529 L16.3034,35.7699 C16.3034,36.3899 16.8074,36.8939 17.4274,36.8939 L30.5734,36.8939 C31.1924,36.8939 31.6964,36.3899 31.6964,35.7699 L31.6964,16.8309 L32.6964,16.8309 L32.6964,35.7699 C32.6964,36.9409 31.7444,37.8939 30.5734,37.8939" id="Fill-6" fill="#141033"></path>
            <path d="M16.3038,25.3587 L15.3038,25.3587 L15.3038,12.2297 C15.3038,11.0587 16.2558,10.1067 17.4268,10.1067 L30.5738,10.1067 C31.7438,10.1067 32.6968,11.0587 32.6968,12.2297 L32.6968,23.0467 L31.6968,23.0467 L31.6968,12.2297 C31.6968,11.6097 31.1928,11.1067 30.5738,11.1067 L17.4268,11.1067 C16.8078,11.1067 16.3038,11.6097 16.3038,12.2297 L16.3038,25.3587 Z" id="Fill-7" fill="#141033"></path>
            <path d="M25.5226,32.7948 C25.5226,31.9538 24.8406,31.2718 24.0006,31.2718 C23.1596,31.2718 22.4776,31.9538 22.4776,32.7948 C22.4776,33.6358 23.1596,34.3168 24.0006,34.3168 C24.8406,34.3168 25.5226,33.6358 25.5226,32.7948" id="Fill-8" fill="#141033"></path>
            <path d="M38.0031,25.6917 C36.4181,25.6917 35.6001,24.9957 34.8771,24.3807 C34.2001,23.8057 33.6161,23.3087 32.3991,23.3087 C31.1831,23.3087 30.5991,23.8057 29.9231,24.3807 C29.2001,24.9957 28.3821,25.6917 26.7971,25.6917 C25.2131,25.6917 24.3951,24.9957 23.6731,24.3807 C22.9971,23.8057 22.4131,23.3087 21.1971,23.3087 C19.9811,23.3087 19.3971,23.8057 18.7211,24.3807 C17.9981,24.9957 17.1801,25.6917 15.5961,25.6917 C14.0121,25.6917 13.1931,24.9957 12.4721,24.3807 C11.7961,23.8057 11.2121,23.3087 9.9961,23.3087 L9.9961,22.3087 C11.5801,22.3087 12.3991,23.0047 13.1201,23.6197 C13.7961,24.1947 14.3801,24.6917 15.5961,24.6917 C16.8131,24.6917 17.3971,24.1947 18.0721,23.6197 C18.7951,23.0047 19.6131,22.3087 21.1971,22.3087 C22.7811,22.3087 23.6001,23.0047 24.3211,23.6197 C24.9971,24.1947 25.5811,24.6917 26.7971,24.6917 C28.0141,24.6917 28.5991,24.1947 29.2741,23.6187 C29.9971,23.0047 30.8161,22.3087 32.3991,22.3087 C33.9841,22.3087 34.8031,23.0047 35.5251,23.6197 C36.2021,24.1947 36.7861,24.6917 38.0031,24.6917 L38.0031,25.6917 Z" id="Fill-9" fill="#141033"></path>
        </g>
    </g>
</svg>