<?xml version="1.0" encoding="UTF-8"?>
<svg width="48px" height="48px" viewBox="0 0 48 48" version="1.1" xmlns="http://www.w3.org/2000/svg" xmlns:xlink="http://www.w3.org/1999/xlink">
    <!-- Generator: Sketch 59.1 (86144) - https://sketch.com -->
    <title>icons/perils/prylskyddet/no BG/eldsvada </title>
    <desc>Created with Sketch.</desc>
    <defs>
        <polygon id="path-1" points="0.0001 0 48 0 48 47.9998 0.0001 47.9998"></polygon>
    </defs>
    <g id="icons/perils/prylskyddet/no-BG/eldsvada-" stroke="none" stroke-width="1" fill="none" fill-rule="evenodd">
        <g id="Page-1">
            <g id="Group-3">
                <mask id="mask-2" fill="white">
                    <use xlink:href="#path-1"></use>
                </mask>
                <g id="Clip-2"></g>
            </g>
            <path d="M20.5236,10.5462 C20.2456,12.0062 19.4026,15.7042 17.6426,18.0912 C17.0896,18.9522 16.5236,19.7112 15.9756,20.4452 C14.4036,22.5512 13.1626,24.2152 13.1626,27.2362 C13.1626,32.6842 18.3286,37.6452 24.0006,37.6452 C29.6716,37.6452 34.8376,32.6842 34.8376,27.2362 C34.8376,24.5222 31.7916,20.0862 30.5386,18.3772 L29.4986,20.9902 C29.2816,21.5362 28.7796,21.8692 28.1746,21.8242 C27.5916,21.7852 27.1256,21.3922 26.9846,20.8242 C26.2096,17.6722 24.3576,12.2842 20.5236,10.5462 M24.0006,38.6452 C17.8046,38.6452 12.1626,33.2072 12.1626,27.2362 C12.1626,23.8832 13.5576,22.0122 15.1736,19.8472 C15.7116,19.1272 16.2676,18.3812 16.8196,17.5242 C18.8776,14.7302 19.6346,9.8292 19.6426,9.7802 L19.7316,9.1862 L20.2996,9.3822 C24.9566,10.9862 27.0946,17.0892 27.9556,20.5842 C28.0056,20.7892 28.1726,20.8222 28.2436,20.8272 C28.2966,20.8302 28.4866,20.8272 28.5686,20.6202 L30.2586,16.3752 L30.7946,17.0562 C31.0016,17.3172 35.8376,23.4942 35.8376,27.2362 C35.8376,33.2072 30.1956,38.6452 24.0006,38.6452" id="Fill-4" fill="#141033"></path>
            <path d="M23.7824,23.7318 L20.2244,27.7638 C19.1954,28.8738 18.6564,30.2838 18.6564,31.8528 C18.6564,35.0468 21.0514,37.6458 23.9954,37.6458 C26.9234,37.6458 29.3394,35.0438 29.3804,31.8458 C29.3804,30.3538 28.8234,28.9018 27.8114,27.7658 L23.7824,23.7318 Z M23.9954,38.6458 C20.5004,38.6458 17.6564,35.5978 17.6564,31.8528 C17.6564,30.0528 18.3044,28.3628 19.4834,27.0928 L23.7374,22.2718 L28.5394,27.0798 C29.7334,28.4208 30.3804,30.1078 30.3804,31.8528 C30.3314,35.6008 27.4674,38.6458 23.9954,38.6458 L23.9954,38.6458 Z" id="Fill-6" fill="#141033"></path>
        </g>
    </g>
</svg>