<?xml version="1.0" encoding="UTF-8"?>
<svg width="48px" height="48px" viewBox="0 0 48 48" version="1.1" xmlns="http://www.w3.org/2000/svg" xmlns:xlink="http://www.w3.org/1999/xlink">
    <!-- Generator: Sketch 59.1 (86144) - https://sketch.com -->
    <title>icons/perils/familjskyddet/no BG/juridisk_tvist</title>
    <desc>Created with Sketch.</desc>
    <defs>
        <polygon id="path-1" points="0.0001 0 48 0 48 48 0.0001 48"></polygon>
    </defs>
    <g id="icons/perils/familjskyddet/no-BG/juridisk_tvist" stroke="none" stroke-width="1" fill="none" fill-rule="evenodd">
        <g id="Page-1">
            <g id="Group-3">
                <mask id="mask-2" fill="white">
                    <use xlink:href="#path-1"></use>
                </mask>
                <g id="Clip-2"></g>
            </g>
            <path d="M14.673,33.5405 L13.673,33.5405 L13.673,12.3035 C13.673,11.4205 14.392,10.7015 15.275,10.7015 L32.725,10.7015 C33.609,10.7015 34.327,11.4205 34.327,12.3035 L34.327,30.2825 L33.327,30.2825 L33.327,12.3035 C33.327,11.9715 33.057,11.7015 32.725,11.7015 L15.275,11.7015 C14.943,11.7015 14.673,11.9715 14.673,12.3035 L14.673,33.5405 Z" id="Fill-4" fill="#141033"></path>
            <polygon id="Fill-6" fill="#141033" points="13.838 34.041 34.327 34.041 34.327 33.041 13.838 33.041"></polygon>
            <path d="M34.3273,37.2983 L17.4313,37.2983 C15.3583,37.2983 13.6733,35.6123 13.6733,33.5403 C13.6733,31.4683 15.3583,29.7823 17.4313,29.7823 L34.3273,29.7823 L34.3273,30.7823 L17.4313,30.7823 C15.9103,30.7823 14.6733,32.0203 14.6733,33.5403 C14.6733,35.0613 15.9103,36.2983 17.4313,36.2983 L34.3273,36.2983 L34.3273,37.2983 Z" id="Fill-8" fill="#141033"></path>
            <path d="M24.0831,19.5576 C22.8301,19.5576 21.8121,18.5386 21.8121,17.2866 C21.8121,16.0346 22.8301,15.0156 24.0831,15.0156 L26.6091,15.0156 L26.6091,16.0156 L24.0831,16.0156 C23.3821,16.0156 22.8121,16.5866 22.8121,17.2866 C22.8121,17.9876 23.3821,18.5576 24.0831,18.5576 L24.0831,19.5576 Z" id="Fill-9" fill="#141033"></path>
            <path d="M24.0831,19.5576 C23.3821,19.5576 22.8121,20.1276 22.8121,20.8286 C22.8121,21.5286 23.3821,22.0986 24.0831,22.0986 C24.7831,22.0986 25.3541,21.5286 25.3541,20.8286 C25.3541,20.1276 24.7831,19.5576 24.0831,19.5576 M24.0831,23.0986 C22.8301,23.0986 21.8121,22.0796 21.8121,20.8286 C21.8121,19.5766 22.8301,18.5576 24.0831,18.5576 C25.3351,18.5576 26.3541,19.5766 26.3541,20.8286 C26.3541,22.0796 25.3351,23.0986 24.0831,23.0986" id="Fill-10" fill="#141033"></path>
            <path d="M24.0831,26.6401 L21.5561,26.6401 L21.5561,25.6401 L24.0831,25.6401 C24.7831,25.6401 25.3541,25.0701 25.3541,24.3691 C25.3541,23.6691 24.7831,23.0981 24.0831,23.0981 L24.0831,22.0981 C25.3351,22.0981 26.3541,23.1171 26.3541,24.3691 C26.3541,25.6211 25.3351,26.6401 24.0831,26.6401" id="Fill-11" fill="#141033"></path>
        </g>
    </g>
</svg>