<?xml version="1.0" encoding="UTF-8"?>
<svg width="48px" height="48px" viewBox="0 0 48 48" version="1.1" xmlns="http://www.w3.org/2000/svg" xmlns:xlink="http://www.w3.org/1999/xlink">
    <!-- Generator: Sketch 59.1 (86144) - https://sketch.com -->
    <title>icons/perils/prylskyddet/no BG/ovader </title>
    <desc>Created with Sketch.</desc>
    <defs>
        <polygon id="path-1" points="0.0001 0 48 0 48 47.9998 0.0001 47.9998"></polygon>
    </defs>
    <g id="icons/perils/prylskyddet/no-BG/ovader-" stroke="none" stroke-width="1" fill="none" fill-rule="evenodd">
        <g id="Page-1">
            <g id="Group-3">
                <mask id="mask-2" fill="white">
                    <use xlink:href="#path-1"></use>
                </mask>
                <g id="Clip-2"></g>
            </g>
            <polygon id="Fill-4" fill="#141033" points="25.8947 38.6829 25.8947 32.7039 23.8347 32.7039 23.8347 25.9099 24.8347 25.9099 24.8347 31.7029 26.8947 31.7029 26.8947 36.2129 32.5027 30.4209 30.2047 30.4209 32.0567 25.7259 32.9867 26.0939 31.6727 29.4209 34.8647 29.4209"></polygon>
            <path d="M15.3038,31.243 C15.0278,31.243 14.8038,31.019 14.8038,30.743 L14.8038,25.899 C14.8038,25.623 15.0278,25.399 15.3038,25.399 C15.5798,25.399 15.8038,25.623 15.8038,25.899 L15.8038,30.743 C15.8038,31.019 15.5798,31.243 15.3038,31.243" id="Fill-6" fill="#141033"></path>
            <path d="M19.7179,36.5765 C19.4419,36.5765 19.2179,36.3525 19.2179,36.0765 L19.2179,26.2995 C19.2179,26.0225 19.4419,25.7995 19.7179,25.7995 C19.9939,25.7995 20.2179,26.0225 20.2179,26.2995 L20.2179,36.0765 C20.2179,36.3525 19.9939,36.5765 19.7179,36.5765" id="Fill-8" fill="#141033"></path>
            <path d="M14.0167,18.7313 C12.1447,18.7313 10.6777,20.1983 10.6777,22.0703 C10.6777,23.9433 12.1447,25.4103 14.0167,25.4103 L34.3667,25.4103 C36.0237,25.4103 37.3227,24.1113 37.3227,22.4543 C37.3227,20.8243 35.9957,19.4993 34.3667,19.4993 C33.9227,19.4993 33.5547,19.5803 33.2077,19.7533 C33.0147,19.8503 32.7837,19.8123 32.6307,19.6593 C32.4787,19.5073 32.4417,19.2753 32.5377,19.0833 C32.6517,18.8533 32.7147,18.5503 32.7147,18.2313 C32.7147,16.8133 31.5617,15.6593 30.1437,15.6593 C29.5687,15.6593 29.1207,15.8483 28.6247,16.1313 C28.4917,16.2083 28.3297,16.2183 28.1837,16.1583 C28.0397,16.0983 27.9327,15.9743 27.8937,15.8243 C27.1547,13.0143 24.6057,11.0523 21.6967,11.0523 C18.1617,11.0523 15.2857,13.9283 15.2857,17.4633 C15.2857,17.7253 15.2857,17.9973 15.3357,18.1513 C15.3937,18.3243 15.3517,18.5143 15.2277,18.6483 C15.1037,18.7813 14.9167,18.8383 14.7407,18.7933 C14.4937,18.7313 14.3137,18.7313 14.0167,18.7313 M34.3667,26.4103 L14.0167,26.4103 C11.5837,26.4103 9.6777,24.5033 9.6777,22.0703 C9.6777,19.6373 11.5837,17.7313 14.0167,17.7313 C14.1097,17.7313 14.1987,17.7313 14.2877,17.7333 C14.2857,17.6433 14.2857,17.5533 14.2857,17.4633 C14.2857,13.3773 17.6097,10.0523 21.6967,10.0523 C24.8527,10.0523 27.6417,12.0503 28.6787,14.9813 C29.0917,14.7983 29.5727,14.6593 30.1437,14.6593 C32.1127,14.6593 33.7147,16.2613 33.7147,18.2313 C33.7147,18.3393 33.7097,18.4473 33.6997,18.5533 C33.9127,18.5173 34.1337,18.4993 34.3667,18.4993 C36.5477,18.4993 38.3227,20.2733 38.3227,22.4543 C38.3227,24.6353 36.5477,26.4103 34.3667,26.4103" id="Fill-10" fill="#141033"></path>
        </g>
    </g>
</svg>