<?xml version="1.0" encoding="UTF-8"?>
<svg width="48px" height="48px" viewBox="0 0 48 48" version="1.1" xmlns="http://www.w3.org/2000/svg" xmlns:xlink="http://www.w3.org/1999/xlink">
    <!-- Generator: Sketch 59.1 (86144) - https://sketch.com -->
    <title>icons/perils/familjskyddet/no BG/overfall </title>
    <desc>Created with Sketch.</desc>
    <defs>
        <polygon id="path-1" points="0.0001 0 48 0 48 48 0.0001 48"></polygon>
    </defs>
    <g id="icons/perils/familjskyddet/no-BG/overfall-" stroke="none" stroke-width="1" fill="none" fill-rule="evenodd">
        <g id="Page-1">
            <g id="Group-3">
                <mask id="mask-2" fill="white">
                    <use xlink:href="#path-1"></use>
                </mask>
                <g id="Clip-2"></g>
            </g>
            <path d="M31.5001,33.6968 L30.5001,33.6968 L30.5001,24.6968 C30.5001,21.1128 27.5841,18.1968 24.0001,18.1968 C20.4161,18.1968 17.5001,21.1128 17.5001,24.6968 L17.5001,33.6968 L16.5001,33.6968 L16.5001,24.6968 C16.5001,20.5608 19.8641,17.1968 24.0001,17.1968 C28.1361,17.1968 31.5001,20.5608 31.5001,24.6968 L31.5001,33.6968 Z" id="Fill-4" fill="#141033"></path>
            <polygon id="Fill-6" fill="#141033" points="14 35.197 34 35.197 34 34.197 14 34.197"></polygon>
            <path d="M21.1945,24.5288 L20.1945,24.5288 C20.1945,22.5428 21.7915,20.9268 23.7535,20.9268 L23.7535,21.9268 C22.3415,21.9268 21.1945,23.0938 21.1945,24.5288" id="Fill-8" fill="#141033"></path>
            <polygon id="Fill-9" fill="#141033" points="23.5 13.705 24.5 13.705 24.5 9.303 23.5 9.303"></polygon>
            <polygon id="Fill-10" fill="#141033" points="8.556 24.697 12.958 24.697 12.958 23.697 8.556 23.697"></polygon>
            <polygon id="Fill-11" fill="#141033" points="35.042 24.697 39.443 24.697 39.443 23.697 35.042 23.697"></polygon>
            <polygon id="Fill-12" fill="#141033" points="16.2277 17.1318 13.1157 14.0188 13.8227 13.3118 16.9347 16.4248"></polygon>
            <polygon id="Fill-13" fill="#141033" points="31.7726 17.1318 31.0656 16.4248 34.1776 13.3118 34.8846 14.0188"></polygon>
        </g>
    </g>
</svg>