<?xml version="1.0" encoding="UTF-8"?>
<svg width="48px" height="48px" viewBox="0 0 48 48" version="1.1" xmlns="http://www.w3.org/2000/svg" xmlns:xlink="http://www.w3.org/1999/xlink">
    <!-- Generator: Sketch 59.1 (86144) - https://sketch.com -->
    <title>icons/perils/familjskyddet/no BG/resetrubbel </title>
    <desc>Created with Sketch.</desc>
    <defs>
        <polygon id="path-1" points="0.0001 0 48 0 48 48 0.0001 48"></polygon>
    </defs>
    <g id="icons/perils/familjskyddet/no-BG/resetrubbel-" stroke="none" stroke-width="1" fill="none" fill-rule="evenodd">
        <g id="Page-1">
            <g id="Group-3">
                <mask id="mask-2" fill="white">
                    <use xlink:href="#path-1"></use>
                </mask>
                <g id="Clip-2"></g>
            </g>
            <polygon id="Fill-4" fill="#141033" points="35.7169 29.1592 25.8709 27.4722 26.0409 26.4862 34.7169 27.9732 34.7169 24.8412 35.7169 24.8412"></polygon>
            <polygon id="Fill-6" fill="#141033" points="10.9103 29.1592 10.9103 24.5022 20.4863 20.6972 20.8553 21.6272 11.9103 25.1802 11.9103 27.9732 20.5863 26.4862 20.7563 27.4722"></polygon>
            <path d="M17.2589,37.3784 L17.2589,34.9694 L20.1489,32.2274 L20.1709,14.8204 C20.1709,13.3344 21.2269,12.0404 22.6809,11.7424 L22.8819,12.7224 C21.8909,12.9244 21.1709,13.8074 21.1709,14.8214 L21.1489,32.6584 L18.2589,35.3994 L18.2589,36.1644 L23.3139,35.1804 L28.3689,36.1644 L28.3689,35.3994 L25.4799,32.6584 L25.4699,25.0904 L26.4699,25.0894 L26.4799,32.2274 L29.3689,34.9694 L29.3689,37.3784 L23.3139,36.1984 L17.2589,37.3784 Z" id="Fill-8" fill="#141033"></path>
            <path d="M30.6378,11.7285 C27.6318,11.7285 25.1858,14.1745 25.1858,17.1805 C25.1858,20.1865 27.6318,22.6315 30.6378,22.6315 C33.6438,22.6315 36.0898,20.1865 36.0898,17.1805 C36.0898,14.1745 33.6438,11.7285 30.6378,11.7285 M30.6378,23.6315 C27.0798,23.6315 24.1858,20.7375 24.1858,17.1805 C24.1858,13.6225 27.0798,10.7285 30.6378,10.7285 C34.1958,10.7285 37.0898,13.6225 37.0898,17.1805 C37.0898,20.7375 34.1958,23.6315 30.6378,23.6315" id="Fill-10" fill="#141033"></path>
            <polygon id="Fill-12" fill="#141033" points="33.8849 18.2378 29.5889 18.2378 29.5889 13.9248 30.5889 13.9248 30.5889 17.2378 33.8849 17.2378"></polygon>
        </g>
    </g>
</svg>