<?xml version="1.0" encoding="UTF-8"?>
<svg width="48px" height="48px" viewBox="0 0 48 48" version="1.1" xmlns="http://www.w3.org/2000/svg" xmlns:xlink="http://www.w3.org/1999/xlink">
    <!-- Generator: Sketch 59.1 (86144) - https://sketch.com -->
    <title>icons/perils/prylskyddet/no BG/skadegorelse </title>
    <desc>Created with Sketch.</desc>
    <defs>
        <polygon id="path-1" points="0.0001 0 48 0 48 47.9998 0.0001 47.9998"></polygon>
    </defs>
    <g id="icons/perils/prylskyddet/no-BG/skadegorelse-" stroke="none" stroke-width="1" fill="none" fill-rule="evenodd">
        <g id="Page-1">
            <g id="Group-3">
                <mask id="mask-2" fill="white">
                    <use xlink:href="#path-1"></use>
                </mask>
                <g id="Clip-2"></g>
            </g>
            <path d="M16.1828,33.346 L17.8498,35.014 L22.8888,29.975 L35.5658,20.422 C36.3578,19.826 36.8518,18.917 36.9208,17.928 C36.9908,16.939 36.6278,15.97 35.9268,15.269 C35.2248,14.568 34.2508,14.207 33.2688,14.275 C32.2798,14.345 31.3708,14.838 30.7738,15.63 L21.2208,28.307 L16.1828,33.346 Z M17.8498,36.428 L14.7688,33.346 L20.4898,27.625 L29.9748,15.029 C30.7458,14.005 31.9208,13.367 33.1988,13.278 C34.4748,13.184 35.7288,13.657 36.6338,14.562 C37.5398,15.468 38.0078,16.72 37.9178,17.998 C37.8288,19.275 37.1908,20.45 36.1668,21.221 L23.5428,30.728 L17.8498,36.428 Z" id="Fill-4" fill="#141033"></path>
            <path d="M18.4357,36.8065 C18.3077,36.8065 18.1797,36.7575 18.0817,36.6605 L14.5367,33.1145 C14.3407,32.9185 14.3407,32.6025 14.5367,32.4075 C14.7317,32.2115 15.0477,32.2115 15.2437,32.4075 L18.7897,35.9525 C18.9847,36.1485 18.9847,36.4645 18.7897,36.6605 C18.6917,36.7575 18.5637,36.8065 18.4357,36.8065" id="Fill-6" fill="#141033"></path>
            <path d="M11.5255,23.6385 L10.5705,23.6385 C10.2945,23.6385 10.0705,23.4145 10.0705,23.1385 C10.0705,22.8625 10.2945,22.6385 10.5705,22.6385 L11.5255,22.6385 C11.8015,22.6385 12.0255,22.8625 12.0255,23.1385 C12.0255,23.4145 11.8015,23.6385 11.5255,23.6385" id="Fill-8" fill="#141033"></path>
            <polygon id="Fill-10" fill="#141033" points="18.2033 36.0745 17.4963 35.3675 22.1823 30.6815 22.8893 31.3885"></polygon>
            <polygon id="Fill-12" fill="#141033" points="15.8605 33.7318 15.1535 33.0248 19.8395 28.3388 20.5465 29.0458"></polygon>
            <polygon id="Fill-14" fill="#141033" points="22.5353 31.7425 19.4533 28.6605 20.1603 27.9535 23.2423 31.0355"></polygon>
            <path d="M18.0255,23.6385 L14.5705,23.6385 C14.2945,23.6385 14.0705,23.4145 14.0705,23.1385 C14.0705,22.8625 14.2945,22.6385 14.5705,22.6385 L18.0255,22.6385 C18.3015,22.6385 18.5255,22.8625 18.5255,23.1385 C18.5255,23.4145 18.3015,23.6385 18.0255,23.6385" id="Fill-16" fill="#141033"></path>
            <path d="M17.8253,14.1937 L16.8703,14.1937 C16.5943,14.1937 16.3703,13.9697 16.3703,13.6937 C16.3703,13.4177 16.5943,13.1937 16.8703,13.1937 L17.8253,13.1937 C18.1013,13.1937 18.3253,13.4177 18.3253,13.6937 C18.3253,13.9697 18.1013,14.1937 17.8253,14.1937" id="Fill-18" fill="#141033"></path>
            <path d="M24.3253,14.1937 L20.8703,14.1937 C20.5943,14.1937 20.3703,13.9697 20.3703,13.6937 C20.3703,13.4177 20.5943,13.1937 20.8703,13.1937 L24.3253,13.1937 C24.6013,13.1937 24.8253,13.4177 24.8253,13.6937 C24.8253,13.9697 24.6013,14.1937 24.3253,14.1937" id="Fill-20" fill="#141033"></path>
            <path d="M16.9757,18.9163 L13.0207,18.9163 C12.7447,18.9163 12.5207,18.6923 12.5207,18.4163 C12.5207,18.1403 12.7447,17.9163 13.0207,17.9163 L16.9757,17.9163 C17.2517,17.9163 17.4757,18.1403 17.4757,18.4163 C17.4757,18.6923 17.2517,18.9163 16.9757,18.9163" id="Fill-22" fill="#141033"></path>
            <path d="M21.4757,18.9163 L20.0207,18.9163 C19.7447,18.9163 19.5207,18.6923 19.5207,18.4163 C19.5207,18.1403 19.7447,17.9163 20.0207,17.9163 L21.4757,17.9163 C21.7517,17.9163 21.9757,18.1403 21.9757,18.4163 C21.9757,18.6923 21.7517,18.9163 21.4757,18.9163" id="Fill-24" fill="#141033"></path>
        </g>
    </g>
</svg>