<?xml version="1.0" encoding="UTF-8"?>
<svg width="48px" height="48px" viewBox="0 0 48 48" version="1.1" xmlns="http://www.w3.org/2000/svg" xmlns:xlink="http://www.w3.org/1999/xlink">
    <!-- Generator: Sketch 59.1 (86144) - https://sketch.com -->
    <title>icons/perils/lagenhetsskyddet/no BG/skadedjur </title>
    <desc>Created with Sketch.</desc>
    <g id="icons/perils/lagenhetsskyddet/no-BG/skadedjur-" stroke="none" stroke-width="1" fill="none" fill-rule="evenodd">
        <g id="Group" transform="translate(9.000000, 10.000000)" fill="#141033">
            <path d="M15,3.5 C19.6944204,3.5 23.5,7.30557963 23.5,12 L23.5,18 C23.5,22.6944204 19.6944204,26.5 15,26.5 C10.3055796,26.5 6.5,22.6944204 6.5,18 L6.5,12 C6.5,7.30557963 10.3055796,3.5 15,3.5 Z M15,4.5 C10.8578644,4.5 7.5,7.85786438 7.5,12 L7.5,18 C7.5,22.1421356 10.8578644,25.5 15,25.5 C19.1421356,25.5 22.5,22.1421356 22.5,18 L22.5,12 C22.5,7.85786438 19.1421356,4.5 15,4.5 Z" id="Rectangle" fill-rule="nonzero"></path>
            <circle id="Oval" cx="15" cy="9" r="1"></circle>
            <circle id="Oval" cx="15" cy="15" r="1"></circle>
            <circle id="Oval" cx="15" cy="21" r="1"></circle>
            <rect id="Rectangle" x="22.5" y="9" width="5.2" height="1"></rect>
            <rect id="Rectangle" x="22.5" y="21" width="5.2" height="1"></rect>
            <rect id="Rectangle" x="22.5" y="15" width="7" height="1"></rect>
            <rect id="Rectangle" transform="translate(4.600000, 9.500000) scale(-1, 1) translate(-4.600000, -9.500000) " x="2" y="9" width="5.2" height="1"></rect>
            <rect id="Rectangle" transform="translate(19.600000, 2.500000) scale(-1, 1) rotate(-315.000000) translate(-19.600000, -2.500000) " x="17" y="2" width="5.2" height="1"></rect>
            <rect id="Rectangle" transform="translate(10.600000, 2.500000) rotate(-315.000000) translate(-10.600000, -2.500000) " x="8" y="2" width="5.2" height="1"></rect>
            <rect id="Rectangle" transform="translate(5.000000, 21.500000) scale(-1, 1) translate(-5.000000, -21.500000) " x="2" y="21" width="6" height="1"></rect>
            <rect id="Rectangle" transform="translate(3.500000, 15.500000) scale(-1, 1) translate(-3.500000, -15.500000) " x="0" y="15" width="7" height="1"></rect>
        </g>
    </g>
</svg>