<?xml version="1.0" encoding="UTF-8"?>
<svg width="48px" height="48px" viewBox="0 0 48 48" version="1.1" xmlns="http://www.w3.org/2000/svg" xmlns:xlink="http://www.w3.org/1999/xlink">
    <!-- Generator: Sketch 59.1 (86144) - https://sketch.com -->
    <title>icons/perils/prylskyddet/no BG/stold </title>
    <desc>Created with Sketch.</desc>
    <defs>
        <polygon id="path-1" points="0.0001 0 48 0 48 47.9998 0.0001 47.9998"></polygon>
    </defs>
    <g id="icons/perils/prylskyddet/no-BG/stold-" stroke="none" stroke-width="1" fill="none" fill-rule="evenodd">
        <g id="Page-1">
            <g id="Group-3">
                <mask id="mask-2" fill="white">
                    <use xlink:href="#path-1"></use>
                </mask>
                <g id="Clip-2"></g>
            </g>
            <path d="M33.6281,22.4705 L32.6281,22.4705 L32.6281,14.4965 C32.6281,13.7305 31.9451,13.1075 31.1061,13.1075 L16.8941,13.1075 C16.0551,13.1075 15.3721,13.7305 15.3721,14.4965 L15.3721,22.4705 L14.3721,22.4705 L14.3721,14.4965 C14.3721,13.1795 15.5031,12.1075 16.8941,12.1075 L31.1061,12.1075 C32.4961,12.1075 33.6281,13.1795 33.6281,14.4965 L33.6281,22.4705 Z" id="Fill-4" fill="#141033"></path>
            <polygon id="Fill-6" fill="#141033" points="8.727 22.471 39.274 22.471 39.274 21.471 8.727 21.471"></polygon>
            <path d="M14.1076,26.5076 L14.1076,33.0886 C14.1076,33.6776 14.3826,34.2126 14.8626,34.5546 C15.3426,34.8986 15.9386,34.9846 16.4946,34.7926 L24.0006,32.2956 L31.5026,34.7916 C32.0646,34.9846 32.6596,34.8966 33.1376,34.5546 C33.6176,34.2126 33.8926,33.6776 33.8926,33.0886 L33.8926,26.5076 L14.1076,26.5076 Z M15.9016,35.8946 C15.3306,35.8946 14.7676,35.7166 14.2816,35.3686 C13.5356,34.8366 13.1076,34.0046 13.1076,33.0886 L13.1076,25.5076 L34.8926,25.5076 L34.8926,33.0886 C34.8926,34.0046 34.4646,34.8366 33.7186,35.3686 C32.9726,35.9006 32.0456,36.0356 31.1816,35.7386 L24.0006,33.3496 L16.8146,35.7406 C16.5136,35.8436 16.2066,35.8946 15.9016,35.8946 L15.9016,35.8946 Z" id="Fill-8" fill="#141033"></path>
            <polygon id="Fill-9" fill="#141033" points="20.3732 31.2225 16.8412 29.3675 17.3062 28.4815 20.8382 30.3365"></polygon>
            <polygon id="Fill-10" fill="#141033" points="27.6212 31.2225 27.1562 30.3365 30.6882 28.4815 31.1532 29.3675"></polygon>
        </g>
    </g>
</svg>