<?xml version="1.0" encoding="UTF-8"?>
<svg width="48px" height="48px" viewBox="0 0 48 48" version="1.1" xmlns="http://www.w3.org/2000/svg" xmlns:xlink="http://www.w3.org/1999/xlink">
    <!-- Generator: Sketch 59.1 (86144) - https://sketch.com -->
    <title>icons/perils/lagenhetsskyddet/no BG/underkonstruktion </title>
    <desc>Created with Sketch.</desc>
    <g id="icons/perils/lagenhetsskyddet/no-BG/underkonstruktion-" stroke="none" stroke-width="1" fill="none" fill-rule="evenodd">
        <g id="Group" transform="translate(10.000000, 13.000000)" fill="#141033">
            <polygon id="Path-6" fill-rule="nonzero" points="19 5.5 24 5.5 24 4.5 19 4.5"></polygon>
            <polygon id="Path-6" fill-rule="nonzero" points="27 5.5 29 5.5 29 4.5 27 4.5"></polygon>
            <rect id="Rectangle" x="25" y="0" width="1" height="10" rx="0.5"></rect>
            <polygon id="Path-6" fill-rule="nonzero" points="10 13.5 13 13.5 13 12.5 10 12.5"></polygon>
            <path d="M16.5,8.5 C18.4329966,8.5 20,6.93299662 20,5 C20,3.06700338 18.4329966,1.5 16.5,1.5 L16.5,2.5 C17.8807119,2.5 19,3.61928813 19,5 C19,6.38071187 17.8807119,7.5 16.5,7.5 L16.5,8.5 Z" id="Path" fill-rule="nonzero"></path>
            <rect id="Rectangle" x="22" y="12" width="2" height="2" rx="1"></rect>
            <rect id="Rectangle" x="21" y="15" width="2" height="2" rx="1"></rect>
            <rect id="Rectangle" x="22" y="18" width="2" height="2" rx="1"></rect>
            <rect id="Rectangle" transform="translate(6.000000, 6.500000) rotate(90.000000) translate(-6.000000, -6.500000) " x="5.5" y="4.5" width="1" height="4" rx="0.5"></rect>
            <rect id="Rectangle" transform="translate(6.000000, 3.500000) rotate(90.000000) translate(-6.000000, -3.500000) " x="5.5" y="1.5" width="1" height="4" rx="0.5"></rect>
            <path d="M9.12877407,18 L3.33997593,18 L5.87122593,9 L11.6600241,9 L9.12877407,18 Z M6.62877407,10 L4.66002407,17 L8.37122593,17 L10.3399759,10 L6.62877407,10 Z" id="Rectangle" fill-rule="nonzero"></path>
            <path d="M17.135333,0 L17.075338,10 L2.73265016,10 C1.84630235,10 1.13232422,9.27001139 1.13232422,8.375 L1.13232422,1.625 C1.13232422,0.729988606 1.84630235,0 2.73265016,0 L17.135333,0 Z M16.1293155,1 L2.73265016,1 C2.40361149,1 2.13232422,1.27737071 2.13232422,1.625 L2.13232422,8.375 C2.13232422,8.72262929 2.40361149,9 2.73265016,9 L16.0813195,9 L16.1293155,1 Z" id="Path" fill-rule="nonzero"></path>
            <path d="M11,17 C11.8284271,17 12.5,17.6715729 12.5,18.5 L12.5,20.5 C12.5,21.3284271 11.8284271,22 11,22 L2,22 C1.17157288,22 0.5,21.3284271 0.5,20.5 L0.5,18.5 C0.5,17.6715729 1.17157288,17 2,17 L11,17 Z M11,18 L2,18 C1.72385763,18 1.5,18.2238576 1.5,18.5 L1.5,20.5 C1.5,20.7761424 1.72385763,21 2,21 L11,21 C11.2761424,21 11.5,20.7761424 11.5,20.5 L11.5,18.5 C11.5,18.2238576 11.2761424,18 11,18 Z" id="Rectangle" fill-rule="nonzero"></path>
        </g>
    </g>
</svg>