<?xml version="1.0" encoding="UTF-8"?>
<svg width="48px" height="48px" viewBox="0 0 48 48" version="1.1" xmlns="http://www.w3.org/2000/svg" xmlns:xlink="http://www.w3.org/1999/xlink">
    <!-- Generator: Sketch 59.1 (86144) - https://sketch.com -->
    <title>icons/perils/prylskyddet/no BG/vattenlacka </title>
    <desc>Created with Sketch.</desc>
    <defs>
        <polygon id="path-1" points="0.0001 0 48 0 48 47.9998 0.0001 47.9998"></polygon>
    </defs>
    <g id="icons/perils/prylskyddet/no-BG/vattenlacka-" stroke="none" stroke-width="1" fill="none" fill-rule="evenodd">
        <g id="Page-1">
            <g id="Group-3">
                <mask id="mask-2" fill="white">
                    <use xlink:href="#path-1"></use>
                </mask>
                <g id="Clip-2"></g>
            </g>
            <polygon id="Fill-4" fill="#141033" points="20.067 36.111 21.067 36.111 21.067 31.667 20.067 31.667"></polygon>
            <path d="M35.2863,24.4759 C34.5673,25.9689 33.9633,27.3759 33.9633,28.1579 C33.9643,28.8889 34.5583,29.4829 35.2893,29.4829 C36.0193,29.4829 36.6143,28.8889 36.6143,28.1579 C36.6143,27.4009 36.0643,26.1049 35.2863,24.4759 M35.2893,30.4829 C34.0083,30.4829 32.9643,29.4399 32.9633,28.1589 C32.9633,27.1029 33.6233,25.5699 34.8413,23.1109 L35.2933,22.1999 L35.7383,23.1139 C36.8713,25.4379 37.6143,27.0439 37.6143,28.1579 C37.6143,29.4399 36.5713,30.4829 35.2893,30.4829" id="Fill-6" fill="#141033"></path>
            <path d="M35.2667,13.6111 C33.8877,13.6111 32.7667,14.7331 32.7667,16.1111 C32.7667,17.4891 33.8877,18.6111 35.2667,18.6111 C36.6457,18.6111 37.7667,17.4891 37.7667,16.1111 C37.7667,14.7331 36.6457,13.6111 35.2667,13.6111 M35.2667,19.6111 C33.3367,19.6111 31.7667,18.0411 31.7667,16.1111 C31.7667,14.1811 33.3367,12.6111 35.2667,12.6111 C37.1967,12.6111 38.7667,14.1811 38.7667,16.1111 C38.7667,18.0411 37.1967,19.6111 35.2667,19.6111" id="Fill-7" fill="#141033"></path>
            <path d="M20.5665,37.389 C15.4205,37.389 11.2335,33.202 11.2335,28.056 L11.2335,12.889 L18.2335,12.889 L18.2335,28.056 C18.2335,29.343 19.2805,30.389 20.5665,30.389 C21.8535,30.389 22.9005,29.343 22.9005,28.056 L22.9005,18.11 C22.9005,15.078 25.3675,12.611 28.3985,12.611 L35.2665,12.611 L35.2665,13.611 L28.3985,13.611 C25.9185,13.611 23.9005,15.629 23.9005,18.11 L23.9005,28.056 C23.9005,29.894 22.4045,31.389 20.5665,31.389 C18.7285,31.389 17.2335,29.894 17.2335,28.056 L17.2335,13.889 L12.2335,13.889 L12.2335,28.056 C12.2335,32.651 15.9715,36.389 20.5665,36.389 C25.1625,36.389 28.9005,32.651 28.9005,28.056 L28.9005,18.611 L35.2665,18.611 L35.2665,19.611 L29.9005,19.611 L29.9005,28.056 C29.9005,33.202 25.7125,37.389 20.5665,37.389" id="Fill-8" fill="#141033"></path>
        </g>
    </g>
</svg>