<?xml version="1.0" encoding="UTF-8"?>
<svg width="48px" height="48px" viewBox="0 0 48 48" version="1.1" xmlns="http://www.w3.org/2000/svg" xmlns:xlink="http://www.w3.org/1999/xlink">
    <!-- Generator: Sketch 59.1 (86144) - https://sketch.com -->
    <title>icons/perils/lagenhetsskyddet/no BG/vitvaror </title>
    <desc>Created with Sketch.</desc>
    <defs>
        <polygon id="path-1" points="0.0001 0.0002 48 0.0002 48 48 0.0001 48"></polygon>
    </defs>
    <g id="icons/perils/lagenhetsskyddet/no-BG/vitvaror-" stroke="none" stroke-width="1" fill="none" fill-rule="evenodd">
        <g id="Page-1">
            <g id="Group-3">
                <mask id="mask-2" fill="white">
                    <use xlink:href="#path-1"></use>
                </mask>
                <g id="Clip-2"></g>
            </g>
            <path d="M29.4113,26.7277 L29.0123,26.4277 C26.0603,24.2147 21.9393,24.2147 18.9883,26.4277 L18.5893,26.7277 L17.9883,25.9277 L18.3893,25.6277 C21.6913,23.1487 26.3083,23.1487 29.6113,25.6277 L30.0123,25.9277 L29.4113,26.7277 Z" id="Fill-4" fill="#141033"></path>
            <path d="M16.421,35.6188 C16.145,35.6188 15.921,35.3948 15.921,35.1188 L15.921,33.7908 C15.921,33.5148 16.145,33.2908 16.421,33.2908 C16.697,33.2908 16.921,33.5148 16.921,33.7908 L16.921,35.1188 C16.921,35.3948 16.697,35.6188 16.421,35.6188" id="Fill-6" fill="#141033"></path>
            <path d="M31.5792,35.6188 C31.3032,35.6188 31.0792,35.3948 31.0792,35.1188 L31.0792,33.7908 C31.0792,33.5148 31.3032,33.2908 31.5792,33.2908 C31.8552,33.2908 32.0792,33.5148 32.0792,33.7908 L32.0792,35.1188 C32.0792,35.3948 31.8552,35.6188 31.5792,35.6188" id="Fill-8" fill="#141033"></path>
            <path d="M13.877,32.3 L34.123,32.3 L34.123,13.381 L13.877,13.381 L13.877,32.3 Z M12.877,33.3 L35.123,33.3 L35.123,12.381 L12.877,12.381 L12.877,33.3 Z" id="Fill-10" fill="#141033"></path>
            <path d="M20.0167,18.193 C20.0167,17.46 19.4217,16.865 18.6887,16.865 C17.9547,16.865 17.3607,17.46 17.3607,18.193 C17.3607,18.926 17.9547,19.521 18.6887,19.521 C19.4217,19.521 20.0167,18.926 20.0167,18.193" id="Fill-12" fill="#141033"></path>
            <path d="M25.3283,18.193 C25.3283,17.46 24.7333,16.865 24.0003,16.865 C23.2663,16.865 22.6723,17.46 22.6723,18.193 C22.6723,18.926 23.2663,19.521 24.0003,19.521 C24.7333,19.521 25.3283,18.926 25.3283,18.193" id="Fill-13" fill="#141033"></path>
            <path d="M30.6398,18.193 C30.6398,17.46 30.0448,16.865 29.3118,16.865 C28.5778,16.865 27.9838,17.46 27.9838,18.193 C27.9838,18.926 28.5778,19.521 29.3118,19.521 C30.0448,19.521 30.6398,18.926 30.6398,18.193" id="Fill-14" fill="#141033"></path>
        </g>
    </g>
</svg>